<svg xmlns="http://www.w3.org/2000/svg" width="16" height="16" viewBox="0 0 16 16" fill="none">
  <path d="M2.13281 2.13281H3.19948V3.19948H2.13281V2.13281Z" fill="#999631"/>
  <path d="M9.59961 9.60156L9.59961 10.6682L8.53294 10.6682L8.53294 9.60156L9.59961 9.60156Z" fill="#999631"/>
  <path d="M10.666 8.53125L10.666 9.59792L9.59935 9.59792L9.59935 8.53125L10.666 8.53125Z" fill="#999631"/>
  <path d="M11.7324 7.46875L11.7324 8.53542L10.6658 8.53542L10.6658 7.46875L11.7324 7.46875Z" fill="#999631"/>
  <path d="M6.40039 8.53125L6.40039 9.59792L5.33372 9.59792L5.33372 8.53125L6.40039 8.53125Z" fill="#999631"/>
  <path d="M5.33398 7.46875L5.33398 8.53542L4.26732 8.53542L4.26732 7.46875L5.33398 7.46875Z" fill="#999631"/>
  <path d="M8.5332 4.26562L8.5332 9.59896L7.46654 9.59896L7.46654 4.26562L8.5332 4.26562Z" fill="#999631"/>
  <path d="M7.4668 9.60156L7.4668 10.6682L6.40013 10.6682L6.40013 9.60156L7.4668 9.60156Z" fill="#999631"/>
  <path d="M8.5332 10.6641L8.5332 11.7307L7.46654 11.7307L7.46654 10.6641L8.5332 10.6641Z" fill="#999631"/>
  <path d="M12.8008 2.13281H13.8674V3.19948H12.8008V2.13281Z" fill="#999631"/>
  <path d="M12.8008 12.7969H13.8674V13.8635H12.8008V12.7969Z" fill="#999631"/>
  <path d="M2.13281 12.7969H3.19948V13.8635H2.13281V12.7969Z" fill="#999631"/>
  <path d="M13.8672 3.20312H14.9339V5.33646H13.8672V3.20312Z" fill="#999631"/>
  <path d="M1.06641 3.20312H2.13307V5.33646H1.06641V3.20312Z" fill="#999631"/>
  <path d="M13.8672 10.6641H14.9339V12.7974H13.8672V10.6641Z" fill="#999631"/>
  <path d="M1.06641 10.6641H2.13307V12.7974H1.06641V10.6641Z" fill="#999631"/>
  <path d="M14.9336 5.33594H16.0003V10.6693H14.9336V5.33594Z" fill="#999631"/>
  <path d="M0 5.33594H1.06667V10.6693H0V5.33594Z" fill="#999631"/>
  <path d="M3.19922 1.07031H5.33255V2.13698H3.19922V1.07031Z" fill="#999631"/>
  <path d="M3.19922 13.8672H5.33255V14.9339H3.19922V13.8672Z" fill="#999631"/>
  <path d="M10.666 1.07031H12.7993V2.13698H10.666V1.07031Z" fill="#999631"/>
  <path d="M10.666 13.8672H12.7993V14.9339H10.666V13.8672Z" fill="#999631"/>
  <path d="M5.33398 0H10.6673V1.06667H5.33398V0Z" fill="#999631"/>
  <path d="M5.33398 14.9297H10.6673V15.9964H5.33398V14.9297Z" fill="#999631"/>
</svg>