<svg xmlns="http://www.w3.org/2000/svg" width="16" height="16" viewBox="0 0 16 16" fill="none">
  <path d="M2.13281 2.13281H3.19948V3.19948H2.13281V2.13281Z" fill="#319999"/>
  <path d="M4.26758 7.46875H5.33424V8.53542H4.26758V7.46875Z" fill="#319999"/>
  <path d="M5.33398 8.53125H6.40065V9.59792H5.33398V8.53125Z" fill="#319999"/>
  <path d="M6.40039 9.60156H7.46706V10.6682H6.40039V9.60156Z" fill="#319999"/>
  <path d="M7.4668 8.53125H8.53346V9.59792H7.4668V8.53125Z" fill="#319999"/>
  <path d="M8.5332 7.46875H9.59987V8.53542H8.5332V7.46875Z" fill="#319999"/>
  <path d="M9.59961 6.39844H10.6663V7.4651H9.59961V6.39844Z" fill="#319999"/>
  <path d="M10.666 5.33594H11.7327V6.4026H10.666V5.33594Z" fill="#319999"/>
  <path d="M12.8008 2.13281H13.8674V3.19948H12.8008V2.13281Z" fill="#319999"/>
  <path d="M12.8008 12.7969H13.8674V13.8635H12.8008V12.7969Z" fill="#319999"/>
  <path d="M2.13281 12.7969H3.19948V13.8635H2.13281V12.7969Z" fill="#319999"/>
  <path d="M13.8672 3.20312H14.9339V5.33646H13.8672V3.20312Z" fill="#319999"/>
  <path d="M1.06641 3.20312H2.13307V5.33646H1.06641V3.20312Z" fill="#319999"/>
  <path d="M13.8672 10.6641H14.9339V12.7974H13.8672V10.6641Z" fill="#319999"/>
  <path d="M1.06641 10.6641H2.13307V12.7974H1.06641V10.6641Z" fill="#319999"/>
  <path d="M14.9336 5.33594H16.0003V10.6693H14.9336V5.33594Z" fill="#319999"/>
  <path d="M0 5.33594H1.06667V10.6693H0V5.33594Z" fill="#319999"/>
  <path d="M3.19922 1.07031H5.33255V2.13698H3.19922V1.07031Z" fill="#319999"/>
  <path d="M3.19922 13.8672H5.33255V14.9339H3.19922V13.8672Z" fill="#319999"/>
  <path d="M10.666 1.07031H12.7993V2.13698H10.666V1.07031Z" fill="#319999"/>
  <path d="M10.666 13.8672H12.7993V14.9339H10.666V13.8672Z" fill="#319999"/>
  <path d="M5.33398 0H10.6673V1.06667H5.33398V0Z" fill="#319999"/>
  <path d="M5.33398 14.9297H10.6673V15.9964H5.33398V14.9297Z" fill="#319999"/>
</svg>