<svg xmlns="http://www.w3.org/2000/svg" width="34" height="22" viewBox="0 0 34 22" fill="none">
  <rect x="4.85547" y="2.44531" width="2.42863" height="2.44437" fill="currentColor"/>
  <rect x="7.28516" y="2.44531" width="2.42863" height="2.44437" fill="currentColor"/>
  <rect x="9.71484" y="2.44531" width="2.42863" height="2.44437" fill="currentColor"/>
  <rect x="12.1445" y="2.44531" width="2.42863" height="2.44437" fill="currentColor"/>
  <rect x="14.5703" y="2.44531" width="2.42863" height="2.44437" fill="#E7E7E7"/>
  <rect x="17" y="2.44531" width="2.42863" height="2.44437" fill="#E7E7E7"/>
  <rect x="19.4297" y="2.44531" width="2.42863" height="2.44437" fill="currentColor"/>
  <rect x="21.8555" y="2.44531" width="2.42863" height="2.44437" fill="currentColor"/>
  <rect x="24.2852" y="2.44531" width="2.42863" height="2.44437" fill="currentColor"/>
  <rect x="24.2852" y="4.88281" width="2.42863" height="2.44437" fill="currentColor"/>
  <rect x="24.2852" y="7.32812" width="2.42863" height="2.44437" fill="currentColor"/>
  <rect x="24.2852" y="9.77344" width="2.42863" height="2.44437" fill="currentColor"/>
  <rect x="24.2852" y="12.2266" width="2.42863" height="2.44437" fill="currentColor"/>
  <rect x="24.2852" y="14.6562" width="2.42863" height="2.44437" fill="currentColor"/>
  <rect x="4.85547" y="4.88281" width="2.42863" height="2.44437" fill="currentColor"/>
  <rect x="4.85547" y="7.32812" width="2.42863" height="2.44437" fill="currentColor"/>
  <rect x="4.85547" y="9.77344" width="2.42863" height="2.44437" fill="currentColor"/>
  <rect x="4.85547" y="12.2266" width="2.42863" height="2.44437" fill="currentColor"/>
  <rect x="4.85547" y="14.6562" width="2.42863" height="2.44437" fill="currentColor"/>
  <rect x="7.28516" y="14.6562" width="2.42863" height="2.44437" fill="currentColor"/>
  <rect x="9.71484" y="14.6562" width="2.42863" height="2.44437" fill="currentColor"/>
  <rect x="12.1445" y="14.6562" width="2.42863" height="2.44437" fill="#E7E7E7"/>
  <rect x="14.5703" y="14.6562" width="2.42863" height="2.44437" fill="#E7E7E7"/>
  <rect x="17" y="14.6562" width="2.42863" height="2.44437" fill="#E7E7E7"/>
  <rect x="19.4297" y="14.6562" width="2.42863" height="2.44437" fill="#E7E7E7"/>
  <rect x="21.8555" y="14.6562" width="2.42863" height="2.44437" fill="currentColor"/>
  <rect x="26.7148" y="14.6562" width="2.42863" height="2.44437" fill="currentColor"/>
  <rect x="26.7148" y="12.2266" width="2.42863" height="2.44437" fill="currentColor"/>
  <rect x="26.7148" y="9.77344" width="2.42863" height="2.44437" fill="currentColor"/>
  <rect x="26.7148" y="7.32812" width="2.42863" height="2.44437" fill="currentColor"/>
  <rect x="26.7148" y="4.88281" width="2.42863" height="2.44437" fill="currentColor"/>
  <rect x="26.7148" y="2.44531" width="2.42863" height="2.44437" fill="currentColor"/>
  <rect x="7.28516" y="4.88281" width="2.42863" height="2.44437" fill="currentColor"/>
  <rect x="7.28516" y="7.32812" width="2.42863" height="2.44437" fill="currentColor"/>
  <rect x="7.28516" y="9.77344" width="2.42863" height="2.44437" fill="currentColor"/>
  <rect x="7.28516" y="12.2266" width="2.42863" height="2.44437" fill="currentColor"/>
  <rect x="9.71484" y="12.2266" width="2.42863" height="2.44437" fill="currentColor"/>
  <rect x="12.1445" y="12.2266" width="2.42863" height="2.44437" fill="currentColor"/>
  <rect x="14.5703" y="12.2266" width="2.42863" height="2.44437" fill="currentColor"/>
  <rect x="19.4297" y="12.2266" width="2.42863" height="2.44437" fill="currentColor"/>
  <rect x="21.8555" y="12.2266" width="2.42863" height="2.44437" fill="currentColor"/>
  <rect x="21.8555" y="9.77344" width="2.42863" height="2.44437" fill="currentColor"/>
  <rect x="21.8555" y="7.32812" width="2.42863" height="2.44437" fill="currentColor"/>
  <rect x="21.8555" y="4.88281" width="2.42863" height="2.44437" fill="currentColor"/>
  <rect x="19.4297" y="4.88281" width="2.42863" height="2.44437" fill="#E7E7E7"/>
  <rect x="17" y="4.88281" width="2.42863" height="2.44437" fill="#E7E7E7"/>
  <rect x="14.5703" y="4.88281" width="2.42863" height="2.44437" fill="#E7E7E7"/>
  <rect x="12.1445" y="4.88281" width="2.42863" height="2.44437" fill="#E7E7E7"/>
  <rect x="9.71484" y="4.88281" width="2.42863" height="2.44437" fill="currentColor"/>
  <rect x="9.71484" y="7.32812" width="2.42863" height="2.44437" fill="currentColor"/>
  <rect x="12.1445" y="7.32812" width="2.42863" height="2.44437" fill="#E7E7E7"/>
  <rect x="14.5703" y="7.32812" width="2.42863" height="2.44437" fill="#E7E7E7"/>
  <rect x="17" y="7.32812" width="2.42863" height="2.44437" fill="#E7E7E7"/>
  <rect x="19.4297" y="7.32812" width="2.42863" height="2.44437" fill="#E7E7E7"/>
  <rect x="19.4297" y="9.77344" width="2.42863" height="2.44437" fill="currentColor"/>
  <rect x="17" y="9.77344" width="2.42863" height="2.44437" fill="#E7E7E7"/>
  <rect x="14.5703" y="9.77344" width="2.42863" height="2.44437" fill="#E7E7E7"/>
  <rect x="12.1445" y="9.77344" width="2.42863" height="2.44437" fill="currentColor"/>
  <rect x="9.71484" y="9.77344" width="2.42863" height="2.44437" fill="currentColor"/>
  <rect x="4.85547" width="2.42863" height="2.44437" fill="currentColor"/>
  <rect x="7.28516" width="2.42863" height="2.44437" fill="currentColor"/>
  <rect x="9.71484" width="2.42863" height="2.44437" fill="currentColor"/>
  <rect x="12.1445" width="2.42863" height="2.44437" fill="currentColor"/>
  <rect x="14.5703" width="2.42863" height="2.44437" fill="currentColor"/>
  <rect x="17" width="2.42863" height="2.44437" fill="currentColor"/>
  <rect x="19.4297" width="2.42863" height="2.44437" fill="currentColor"/>
  <rect x="21.8555" width="2.42863" height="2.44437" fill="currentColor"/>
  <rect x="24.2852" width="2.42863" height="2.44437" fill="currentColor"/>
  <rect x="26.7148" width="2.42863" height="2.44437" fill="currentColor"/>
  <rect x="4.85547" y="17.1094" width="2.42863" height="2.44437" fill="currentColor"/>
  <rect x="7.28516" y="17.1094" width="2.42863" height="2.44437" fill="currentColor"/>
  <rect x="9.71484" y="17.1094" width="2.42863" height="2.44437" fill="#E7E7E7"/>
  <rect x="12.1445" y="17.1094" width="2.42863" height="2.44437" fill="#E7E7E7"/>
  <rect x="14.5703" y="17.1094" width="2.42863" height="2.44437" fill="#E7E7E7"/>
  <rect x="17" y="17.1094" width="2.42863" height="2.44437" fill="#E7E7E7"/>
  <rect x="19.4297" y="17.1094" width="2.42863" height="2.44437" fill="#E7E7E7"/>
  <rect x="21.8555" y="17.1094" width="2.42863" height="2.44437" fill="#E7E7E7"/>
  <rect x="24.2852" y="17.1094" width="2.42863" height="2.44437" fill="currentColor"/>
  <rect x="26.7148" y="17.1094" width="2.42863" height="2.44437" fill="currentColor"/>
  <rect x="29.1445" width="2.42863" height="2.44437" fill="currentColor"/>
  <rect x="29.1445" y="2.44531" width="2.42863" height="2.44437" fill="currentColor"/>
  <rect x="29.1445" y="4.88281" width="2.42863" height="2.44437" fill="currentColor"/>
  <rect x="29.1445" y="7.32812" width="2.42863" height="2.44437" fill="currentColor"/>
  <rect x="29.1445" y="9.77344" width="2.42863" height="2.44437" fill="currentColor"/>
  <rect x="29.1445" y="12.2266" width="2.42863" height="2.44437" fill="currentColor"/>
  <rect x="29.1445" y="14.6562" width="2.42863" height="2.44437" fill="currentColor"/>
  <rect x="29.1445" y="17.1094" width="2.42863" height="2.44437" fill="currentColor"/>
  <rect x="2.42969" width="2.42863" height="2.44437" fill="currentColor"/>
  <rect x="2.42969" y="2.44531" width="2.42863" height="2.44437" fill="currentColor"/>
  <rect x="2.42969" y="4.88281" width="2.42863" height="2.44437" fill="currentColor"/>
  <rect x="2.42969" y="7.32812" width="2.42863" height="2.44437" fill="currentColor"/>
  <rect x="2.42969" y="9.77344" width="2.42863" height="2.44437" fill="currentColor"/>
  <rect x="2.42969" y="12.2266" width="2.42863" height="2.44437" fill="currentColor"/>
  <rect x="2.42969" y="14.6562" width="2.42863" height="2.44437" fill="currentColor"/>
  <rect x="2.42969" y="17.1094" width="2.42863" height="2.44437" fill="currentColor"/>
  <rect x="17" y="12.2266" width="2.42863" height="2.44437" fill="currentColor"/>
  <rect x="2.42969" y="19.5547" width="2.42863" height="2.44437" fill="currentColor"/>
  <rect x="4.85547" y="19.5547" width="2.42863" height="2.44437" fill="currentColor"/>
  <rect x="7.28516" y="19.5547" width="2.42863" height="2.44437" fill="currentColor"/>
  <rect x="9.71484" y="19.5547" width="2.42863" height="2.44437" fill="currentColor"/>
  <rect x="12.1445" y="19.5547" width="2.42863" height="2.44437" fill="currentColor"/>
  <rect x="14.5703" y="19.5547" width="2.42863" height="2.44437" fill="currentColor"/>
  <rect x="17" y="19.5547" width="2.42863" height="2.44437" fill="currentColor"/>
  <rect x="19.4297" y="19.5547" width="2.42863" height="2.44437" fill="currentColor"/>
  <rect x="21.8555" y="19.5547" width="2.42863" height="2.44437" fill="currentColor"/>
  <rect x="24.2852" y="19.5547" width="2.42863" height="2.44437" fill="currentColor"/>
  <rect x="26.7148" y="19.5547" width="2.42863" height="2.44437" fill="currentColor"/>
  <rect x="29.1445" y="19.5547" width="2.42863" height="2.44437" fill="currentColor"/>
  <rect width="2.42863" height="2.44437" fill="#E7E7E7"/>
  <rect y="2.44531" width="2.42863" height="2.44437" fill="currentColor"/>
  <rect y="4.88281" width="2.42863" height="2.44437" fill="currentColor"/>
  <rect y="7.32812" width="2.42863" height="2.44437" fill="currentColor"/>
  <rect y="9.77344" width="2.42863" height="2.44437" fill="currentColor"/>
  <rect y="12.2266" width="2.42863" height="2.44437" fill="currentColor"/>
  <rect y="14.6562" width="2.42863" height="2.44437" fill="currentColor"/>
  <rect y="17.1094" width="2.42863" height="2.44437" fill="currentColor"/>
  <rect y="19.5547" width="2.42863" height="2.44437" fill="#E7E7E7"/>
  <rect x="31.5703" width="2.42863" height="2.44437" fill="#E7E7E7"/>
  <rect x="31.5703" y="2.44531" width="2.42863" height="2.44437" fill="currentColor"/>
  <rect x="31.5703" y="4.88281" width="2.42863" height="2.44437" fill="currentColor"/>
  <rect x="31.5703" y="7.32812" width="2.42863" height="2.44437" fill="currentColor"/>
  <rect x="31.5703" y="9.77344" width="2.42863" height="2.44437" fill="currentColor"/>
  <rect x="31.5703" y="12.2266" width="2.42863" height="2.44437" fill="currentColor"/>
  <rect x="31.5703" y="14.6562" width="2.42863" height="2.44437" fill="currentColor"/>
  <rect x="31.5703" y="17.1094" width="2.42863" height="2.44437" fill="currentColor"/>
  <rect x="31.5703" y="19.5547" width="2.42863" height="2.44437" fill="#E7E7E7"/>
</svg>