<svg xmlns="http://www.w3.org/2000/svg" width="22" height="22" viewBox="0 0 22 22" fill="none">
  <g clip-path="url(#clip0_558_231352)">
    <path d="M12.5714 6.28571H15.7143V9.42857H9.42857V6.28571H6.28571V3.14286H12.5714V6.28571ZM3.14286 22H0V18.8571H3.14286V15.7143H0V12.5714H6.28571V18.8571H9.42857V22H3.14286ZM18.8571 15.7143V18.8571H15.7143V22H12.5714V18.8571H9.42857V12.5714H12.5714V15.7143H15.7143V9.42857H18.8571V12.5714H22V15.7143H18.8571ZM3.14286 0H6.28571V3.14286H3.14286V0ZM0 3.14286H3.14286V6.28571H0V3.14286ZM12.5714 0H15.7143V3.14286H12.5714V0ZM15.7143 3.14286H18.8571V6.28571H15.7143V3.14286ZM18.8571 0H22V3.14286H18.8571V0ZM18.8571 6.28571H22V9.42857H18.8571V6.28571ZM3.14286 6.28571H6.28571V9.42857H3.14286V6.28571ZM6.28571 9.42857H9.42857V12.5714H6.28571V9.42857ZM18.8571 18.8571H22V22H18.8571V18.8571Z" fill="currentColor"/>
  </g>
  <defs>
    <clipPath id="clip0_558_231352">
      <rect width="22" height="22" fill="white"/>
    </clipPath>
  </defs>
</svg>