<svg xmlns="http://www.w3.org/2000/svg" width="14" height="14" viewBox="0 0 14 14" fill="none">
  <path d="M1.07422 10.7724L1.0743 3.23289L3.22825 1.07812H10.7706L12.9244 3.22984V10.7682L10.7706 12.9224H3.23385L1.07422 10.7724Z" fill="#E2F2F2"/>
  <path d="M10.7686 14H3.23047V12.9229H10.7686V14ZM3.23047 12.9229H2.1543V11.8457H3.23047V12.9229ZM11.8457 12.9229H10.7695V11.8457H11.8457V12.9229ZM2.1543 11.8457H1.07715V10.7686H2.1543V11.8457ZM4.30762 11.8457H3.23145V10.7686H4.30762V11.8457ZM9.69238 10.7686H10.7686V11.8457H9.69141V10.7686H8.61523V9.69238H9.69238V10.7686ZM12.9229 11.8457H11.8457V10.7686H12.9229V11.8457ZM1.07715 10.7695H0V3.23047H1.07715V10.7695ZM14 10.7695H12.9229V3.23047H14V10.7695ZM5.38477 10.7686H4.30762V9.69238H5.38477V10.7686ZM8.61523 9.69238H5.38477V8.61523H8.61523V9.69238ZM5.38477 8.61523H4.30762V7.53809H5.38477V8.61523ZM9.69238 8.61523H8.61523V7.53809H9.69238V8.61523ZM4.30762 7.53809H3.23145V4.30762H4.30762V7.53809ZM10.7695 7.53809H9.69238V4.30762H10.7695V7.53809ZM5.38477 4.30762H4.30762V3.23047H5.38477V4.30762ZM9.69238 4.30762H8.61523V3.23047H9.69238V4.30762ZM2.1543 3.23047H1.07715V2.15332H2.1543V3.23047ZM8.61523 3.23047H5.38477V2.15332H8.61523V3.23047ZM12.9229 3.23047H11.8457V2.15332H12.9229V3.23047ZM10.7686 1.07715H3.23145V2.15332H2.1543V1.07715H3.23047V0H10.7686V1.07715ZM11.8457 2.15332H10.7686V1.07715H11.8457V2.15332Z" fill="#6C6C6C"/>
</svg>