<svg xmlns="http://www.w3.org/2000/svg" width="16" height="17" viewBox="0 0 16 17" fill="none">
  <path d="M1.22656 12.4773L1.22666 3.86097L3.68831 1.39844H12.3082L14.7696 3.85748V12.4725L12.3082 14.9344H3.69472L1.22656 12.4773Z" fill="#E2F2F2"/>
  <path d="M12.3076 16.165H3.69238V14.9346H12.3076V16.165ZM3.69238 14.9346H2.46191V13.7041H3.69238V14.9346ZM13.5381 14.9346H12.3076V13.7041H13.5381V14.9346ZM2.46191 13.7041H1.23145V12.4727H2.46191V13.7041ZM14.7686 13.7041H13.5381V12.4727H14.7686V13.7041ZM12.9229 11.2422H11.6934V12.4736H4.30859V11.2422H11.6914V6.31934H12.9229V11.2422ZM1.23145 12.4727H0V3.8584H1.23145V12.4727ZM16 12.4727H14.7686V3.8584H16V12.4727ZM8.61523 5.08887H11.6914V6.31934H4.30859V11.2422H3.07715V6.31934H4.30664V5.08887H7.38477V3.8584H8.61523V5.08887ZM6.76953 10.0117H5.53906V7.55078H6.76953V10.0117ZM10.4619 10.0117H9.23145V7.55078H10.4619V10.0117ZM2.46191 3.8584H1.23145V2.62695H2.46191V3.8584ZM14.7686 3.8584H13.5381V2.62695H14.7686V3.8584ZM3.69238 2.62695H2.46191V1.39648H3.69238V2.62695ZM13.5381 2.62695H12.3076V1.39648H13.5381V2.62695ZM12.3076 1.39648H3.69238V0.166016H12.3076V1.39648Z" fill="#666666"/>
</svg>