<svg width="158" height="55" viewBox="0 0 158 55" fill="none" xmlns="http://www.w3.org/2000/svg">
<rect x="32.75" y="3" width="7" height="7" fill="black"/>
<rect width="7" height="7" transform="matrix(-1 0 0 1 124.25 3)" fill="black"/>
<rect x="32.5" y="31" width="7" height="7" fill="black"/>
<rect width="7" height="7" transform="matrix(-1 0 0 1 124.5 31)" fill="black"/>
<rect x="39.5" y="10" width="7" height="7" fill="black"/>
<rect width="7" height="7" transform="matrix(-1 0 0 1 117.5 10)" fill="black"/>
<rect x="39.5" y="24" width="7" height="7" fill="black"/>
<rect width="7" height="7" transform="matrix(-1 0 0 1 117.5 24)" fill="black"/>
<rect x="46.5" y="17" width="7" height="7" fill="black"/>
<rect width="7" height="7" transform="matrix(-1 0 0 1 110.5 17)" fill="black"/>
<rect x="76.25" y="3" width="7" height="42" fill="black"/>
<rect x="69.25" y="45" width="14" height="7" fill="black"/>
</svg>
