<svg xmlns="http://www.w3.org/2000/svg" width="16" height="17" viewBox="0 0 16 17" fill="none">
  <path d="M5.81818 1.95455H4.36364H2.90909V3.40909H1.45455V4.86364V6.31818H0V7.77273V10.6818H1.45455V12.1364V13.5909H2.90909V15.0455H4.36364H5.81818V16.5H8.72727H10.1818V15.0455H11.6364H13.0909V13.5909H14.5455V12.1364V10.6818H16V7.77273V6.31818H14.5455V4.86364V3.40909H13.0909V1.95455H11.6364H10.1818V0.5H8.72727H5.81818V1.95455ZM10.1818 3.40909H11.6364H13.0909V4.86364V6.31818H14.5455V7.77273V10.6818H13.0909V12.1364V13.5909H11.6364H10.1818V15.0455H8.72727H5.81818V13.5909H4.36364H2.90909V12.1364V10.6818H1.45455V7.77273V6.31818H2.90909V4.86364V3.40909H4.36364H5.81818V1.95455H8.72727H10.1818V3.40909Z" fill="#CE0D36"/>
  <path d="M7.27271 6.3182V9.22729H8.72725V6.3182V4.86366H7.27271V6.3182Z" fill="#CE0D36"/>
  <path d="M7.27271 10.6819V12.1365H8.72725V10.6819H7.27271Z" fill="#CE0D36"/>
</svg>