<svg xmlns="http://www.w3.org/2000/svg" width="24" height="24" viewBox="0 0 24 24" fill="none">
  <rect x="8" y="5" width="1" height="1" fill="#6C6C6C"/>
  <rect x="8" y="19" width="1" height="1" fill="#6C6C6C"/>
  <rect x="9" y="6" width="1" height="1" fill="#6C6C6C"/>
  <rect x="9" y="18" width="1" height="1" fill="#6C6C6C"/>
  <rect x="10" y="7" width="1" height="1" fill="#6C6C6C"/>
  <rect x="10" y="17" width="1" height="1" fill="#6C6C6C"/>
  <rect x="11" y="8" width="1" height="1" fill="#6C6C6C"/>
  <rect x="11" y="16" width="1" height="1" fill="#6C6C6C"/>
  <rect x="12" y="9" width="1" height="1" fill="#6C6C6C"/>
  <rect x="12" y="15" width="1" height="1" fill="#6C6C6C"/>
  <rect x="13" y="10" width="1" height="1" fill="#6C6C6C"/>
  <rect x="13" y="14" width="1" height="1" fill="#6C6C6C"/>
  <rect x="14" y="11" width="1" height="1" fill="#6C6C6C"/>
  <rect x="14" y="13" width="1" height="1" fill="#6C6C6C"/>
  <rect x="15" y="12" width="1" height="1" fill="#6C6C6C"/>
</svg>