<svg xmlns="http://www.w3.org/2000/svg" width="24" height="24" viewBox="0 0 24 24" fill="none">
  <rect x="9.5" y="2" width="1.25" height="1.25" fill="currentColor"/>
  <rect x="9.5" y="20.75" width="1.25" height="1.25" fill="currentColor"/>
  <rect x="13.25" y="2" width="1.25" height="1.25" fill="currentColor"/>
  <rect x="13.25" y="20.75" width="1.25" height="1.25" fill="currentColor"/>
  <rect x="10.75" y="2" width="1.25" height="1.25" fill="currentColor"/>
  <rect x="10.75" y="20.75" width="1.25" height="1.25" fill="currentColor"/>
  <rect x="12" y="2" width="1.25" height="1.25" fill="currentColor"/>
  <rect x="12" y="20.75" width="1.25" height="1.25" fill="currentColor"/>
  <rect x="8.25" y="3.25" width="1.25" height="1.25" fill="currentColor"/>
  <rect x="8.25" y="19.5" width="1.25" height="1.25" fill="currentColor"/>
  <rect x="14.5" y="3.25" width="1.25" height="1.25" fill="currentColor"/>
  <rect x="14.5" y="19.5" width="1.25" height="1.25" fill="currentColor"/>
  <rect x="7" y="3.25" width="1.25" height="1.25" fill="currentColor"/>
  <rect x="7" y="19.5" width="1.25" height="1.25" fill="currentColor"/>
  <rect x="15.75" y="3.25" width="1.25" height="1.25" fill="currentColor"/>
  <rect x="15.75" y="19.5" width="1.25" height="1.25" fill="currentColor"/>
  <rect x="5.75" y="4.5" width="1.25" height="1.25" fill="currentColor"/>
  <rect x="5.75" y="18.25" width="1.25" height="1.25" fill="currentColor"/>
  <rect x="17" y="4.5" width="1.25" height="1.25" fill="currentColor"/>
  <rect x="17" y="18.25" width="1.25" height="1.25" fill="currentColor"/>
  <rect x="4.5" y="5.75" width="1.25" height="1.25" fill="currentColor"/>
  <rect x="4.5" y="17" width="1.25" height="1.25" fill="currentColor"/>
  <rect x="18.25" y="5.75" width="1.25" height="1.25" fill="currentColor"/>
  <rect x="18.25" y="17" width="1.25" height="1.25" fill="currentColor"/>
  <rect x="2" y="9.5" width="1.25" height="1.25" fill="currentColor"/>
  <rect x="2" y="13.25" width="1.25" height="1.25" fill="currentColor"/>
  <rect x="20.75" y="9.5" width="1.25" height="1.25" fill="currentColor"/>
  <rect x="20.75" y="13.25" width="1.25" height="1.25" fill="currentColor"/>
  <rect x="2" y="10.75" width="1.25" height="1.25" fill="currentColor"/>
  <rect x="2" y="12" width="1.25" height="1.25" fill="currentColor"/>
  <rect x="20.75" y="10.75" width="1.25" height="1.25" fill="currentColor"/>
  <rect x="20.75" y="12" width="1.25" height="1.25" fill="currentColor"/>
  <rect x="3.25" y="14.5" width="1.25" height="1.25" fill="currentColor"/>
  <rect x="3.25" y="8.25" width="1.25" height="1.25" fill="currentColor"/>
  <rect x="19.5" y="14.5" width="1.25" height="1.25" fill="currentColor"/>
  <rect x="19.5" y="8.25" width="1.25" height="1.25" fill="currentColor"/>
  <rect x="3.25" y="15.75" width="1.25" height="1.25" fill="currentColor"/>
  <rect x="3.25" y="7" width="1.25" height="1.25" fill="currentColor"/>
  <rect x="19.5" y="15.75" width="1.25" height="1.25" fill="currentColor"/>
  <rect x="19.5" y="7" width="1.25" height="1.25" fill="currentColor"/>
  <rect x="8.25" y="14.5" width="1.25" height="1.25" fill="currentColor"/>
  <rect x="7" y="13.25" width="1.25" height="1.25" fill="currentColor"/>
  <rect x="5.75" y="12" width="1.25" height="1.25" fill="currentColor"/>
  <rect x="9.5" y="15.75" width="1.25" height="1.25" fill="currentColor"/>
  <rect x="17" y="8.25" width="1.25" height="1.25" fill="currentColor"/>
  <rect x="15.75" y="9.5" width="1.25" height="1.25" fill="currentColor"/>
  <rect x="14.5" y="10.75" width="1.25" height="1.25" fill="currentColor"/>
  <rect x="13.25" y="12" width="1.25" height="1.25" fill="currentColor"/>
  <rect x="12" y="13.25" width="1.25" height="1.25" fill="currentColor"/>
  <rect x="10.75" y="14.5" width="1.25" height="1.25" fill="currentColor"/>
</svg>