<svg xmlns="http://www.w3.org/2000/svg" width="24" height="24" viewBox="0 0 24 24" fill="none">
  <rect x="0.5" y="4.5" width="23" height="15.7273" stroke="currentColor"/>
  <rect x="6.3916" y="7" width="0.727312" height="0.727226" fill="currentColor"/>
  <rect x="7.11816" y="7" width="0.727312" height="0.727226" fill="currentColor"/>
  <rect x="7.84668" y="7" width="0.727312" height="0.727226" fill="currentColor"/>
  <rect x="5.66309" y="7.72656" width="0.727312" height="0.727226" fill="currentColor"/>
  <rect x="4.93652" y="8.4541" width="0.727312" height="0.727226" fill="currentColor"/>
  <rect x="4.93652" y="9.18164" width="0.727312" height="0.727226" fill="currentColor"/>
  <rect x="4.93652" y="9.90918" width="0.727312" height="0.727226" fill="currentColor"/>
  <rect x="5.66309" y="10.6357" width="0.727312" height="0.727226" fill="currentColor"/>
  <rect x="6.3916" y="11.3633" width="0.727312" height="0.727226" fill="currentColor"/>
  <rect x="7.11816" y="11.3633" width="0.727312" height="0.727226" fill="currentColor"/>
  <rect x="7.84668" y="11.3633" width="0.727312" height="0.727226" fill="currentColor"/>
  <rect x="8.57227" y="10.6357" width="0.727312" height="0.727226" fill="currentColor"/>
  <rect x="9.30078" y="9.90918" width="0.727312" height="0.727226" fill="currentColor"/>
  <rect x="9.30078" y="9.18164" width="0.727312" height="0.727226" fill="currentColor"/>
  <rect x="9.30078" y="8.4541" width="0.727312" height="0.727226" fill="currentColor"/>
  <rect x="8.57227" y="7.72656" width="0.727312" height="0.727226" fill="currentColor"/>
  <rect x="4.93652" y="12.8174" width="0.727312" height="0.727226" fill="currentColor"/>
  <rect x="5.66309" y="12.8174" width="0.727312" height="0.727226" fill="currentColor"/>
  <rect x="6.3916" y="12.8174" width="0.727312" height="0.727226" fill="currentColor"/>
  <rect x="7.11816" y="12.8174" width="0.727312" height="0.727226" fill="currentColor"/>
  <rect x="7.84668" y="12.8174" width="0.727312" height="0.727226" fill="currentColor"/>
  <rect x="8.57227" y="12.8174" width="0.727312" height="0.727226" fill="currentColor"/>
  <rect x="9.30078" y="12.8174" width="0.727312" height="0.727226" fill="currentColor"/>
  <rect x="4.20996" y="13.5449" width="0.727312" height="0.727226" fill="currentColor"/>
  <rect x="3.48145" y="14.2725" width="0.727312" height="0.727226" fill="currentColor"/>
  <rect x="3.48145" y="15" width="0.727312" height="0.727226" fill="currentColor"/>
  <rect x="3.48145" y="15.7266" width="0.727312" height="0.727226" fill="currentColor"/>
  <rect x="4.20996" y="16.4541" width="0.727312" height="0.727226" fill="currentColor"/>
  <rect x="4.93652" y="16.4541" width="0.727312" height="0.727226" fill="currentColor"/>
  <rect x="5.66309" y="16.4541" width="0.727312" height="0.727226" fill="currentColor"/>
  <rect x="6.3916" y="16.4541" width="0.727312" height="0.727226" fill="currentColor"/>
  <rect x="7.11816" y="16.4541" width="0.727312" height="0.727226" fill="currentColor"/>
  <rect x="7.84668" y="16.4541" width="0.727312" height="0.727226" fill="currentColor"/>
  <rect x="8.57227" y="16.4541" width="0.727312" height="0.727226" fill="currentColor"/>
  <rect x="9.30078" y="16.4541" width="0.727312" height="0.727226" fill="currentColor"/>
  <rect x="10.0273" y="16.4541" width="0.727312" height="0.727226" fill="currentColor"/>
  <rect x="10.0273" y="13.5449" width="0.727312" height="0.727226" fill="currentColor"/>
  <rect x="10.7539" y="14.2725" width="0.727312" height="0.727226" fill="currentColor"/>
  <rect x="10.7539" y="15" width="0.727312" height="0.727226" fill="currentColor"/>
  <rect x="10.7539" y="15.7266" width="0.727312" height="0.727226" fill="currentColor"/>
  <line x1="13" y1="8.6" x2="20.2727" y2="8.6" stroke="currentColor" stroke-width="0.8"/>
  <line x1="13" y1="12.6" x2="20.2727" y2="12.6" stroke="currentColor" stroke-width="0.8"/>
  <line x1="13" y1="16.6" x2="20.2727" y2="16.6" stroke="currentColor" stroke-width="0.8"/>
</svg>