<svg xmlns="http://www.w3.org/2000/svg" width="24" height="24" viewBox="0 0 24 24" fill="none">
  <rect x="10" y="2.05859" width="1.5" height="1.5" fill="currentColor"/>
  <rect x="11.5" y="2.01172" width="1.5" height="1.5" fill="currentColor"/>
  <rect x="13" y="2" width="1.5" height="1.5" fill="currentColor"/>
  <rect x="8.5" y="3.51172" width="1.5" height="1.5" fill="currentColor"/>
  <rect x="7" y="5" width="1.5" height="1.5" fill="currentColor"/>
  <rect x="7" y="6.5" width="1.5" height="1.5" fill="currentColor"/>
  <rect x="7" y="8" width="1.5" height="1.5" fill="currentColor"/>
  <rect x="8.5" y="9.51172" width="1.5" height="1.5" fill="currentColor"/>
  <rect x="10" y="11" width="1.5" height="1.5" fill="currentColor"/>
  <rect x="11.5" y="11.0117" width="1.5" height="1.5" fill="currentColor"/>
  <rect x="13" y="11" width="1.5" height="1.5" fill="currentColor"/>
  <rect x="14.5" y="9.5" width="1.5" height="1.5" fill="currentColor"/>
  <rect x="16" y="8" width="1.5" height="1.5" fill="currentColor"/>
  <rect x="16" y="6.5" width="1.5" height="1.5" fill="currentColor"/>
  <rect x="16" y="5" width="1.5" height="1.5" fill="currentColor"/>
  <rect x="14.5" y="3.51172" width="1.5" height="1.5" fill="currentColor"/>
  <rect x="7" y="13.9941" width="1.5" height="1.5" fill="currentColor"/>
  <rect x="8.5" y="14" width="1.5" height="1.5" fill="currentColor"/>
  <rect x="10" y="14.0117" width="1.5" height="1.5" fill="currentColor"/>
  <rect x="11.5" y="14" width="1.5" height="1.5" fill="currentColor"/>
  <rect x="13" y="13.9941" width="1.5" height="1.5" fill="currentColor"/>
  <rect x="14.5" y="14" width="1.5" height="1.5" fill="currentColor"/>
  <rect x="16" y="14.0117" width="1.5" height="1.5" fill="currentColor"/>
  <rect x="5.5" y="15.5" width="1.5" height="1.5" fill="currentColor"/>
  <rect x="4" y="16.9941" width="1.5" height="1.5" fill="currentColor"/>
  <rect x="4" y="18.4941" width="1.5" height="1.5" fill="currentColor"/>
  <rect x="4" y="19.9941" width="1.5" height="1.5" fill="currentColor"/>
  <rect x="5.5" y="21.4941" width="1.5" height="1.5" fill="currentColor"/>
  <rect x="7" y="21.4883" width="1.5" height="1.5" fill="currentColor"/>
  <rect x="8.5" y="21.5" width="1.5" height="1.5" fill="currentColor"/>
  <rect x="10" y="21.5" width="1.5" height="1.5" fill="currentColor"/>
  <rect x="11.5" y="21.5" width="1.5" height="1.5" fill="currentColor"/>
  <rect x="13" y="21.5" width="1.5" height="1.5" fill="currentColor"/>
  <rect x="14.5" y="21.5" width="1.5" height="1.5" fill="currentColor"/>
  <rect x="16" y="21.5" width="1.5" height="1.5" fill="currentColor"/>
  <rect x="17.5" y="21.5" width="1.5" height="1.5" fill="currentColor"/>
  <rect x="17.5" y="15.5" width="1.5" height="1.5" fill="currentColor"/>
  <rect x="19" y="17" width="1.5" height="1.5" fill="currentColor"/>
  <rect x="19" y="18.5" width="1.5" height="1.5" fill="currentColor"/>
  <rect x="19" y="20" width="1.5" height="1.5" fill="currentColor"/>
</svg>