<svg xmlns="http://www.w3.org/2000/svg" width="50" height="56" viewBox="0 0 50 56" fill="none">
  <g clip-path="url(#clip0_18_237)">
    <path d="M2 2.64526H24H35L40 8.64526L46 15.3953V28.1453V53.6453H2V2.64526Z" fill="white"/>
    <path d="M23.9999 49.0456H21.9998V51.2455H23.9999V49.0456Z" fill="#D8D8D8"/>
    <path d="M12.0007 49.0456H10.0005V51.2455H12.0007V49.0456Z" fill="#D8D8D8"/>
    <path d="M31.999 24.8454H29.9989V27.0453H31.999V24.8454Z" fill="#D8D8D8"/>
    <path d="M8.00045 24.8454H6.00034V27.0453H8.00045V24.8454Z" fill="#D8D8D8"/>
    <path d="M26.0001 20.4456H23.9999V22.6455H26.0001V20.4456Z" fill="#D8D8D8"/>
    <path d="M41.9996 9.44482H39.9995V11.6447H41.9996V9.44482Z" fill="#797978"/>
    <path d="M10.0006 9.44482H8.00046V11.6447H10.0006V9.44482Z" fill="#D8D8D8"/>
    <path d="M39.9994 7.24493H37.9993V9.44483H39.9994V7.24493Z" fill="#7E7E7D"/>
    <path d="M43.9997 18.2444H41.9996H39.9994H37.9993V20.4456V22.6455V24.8454V27.0453V29.2452H39.9994H41.9996H43.9997V31.4451H41.9996H39.9994H37.9993V33.645V35.8449H39.9994H41.9996H43.9997V38.0448H41.9996H39.9994H37.9993V40.2447V42.4445H39.9994H41.9996H43.9997V44.6444H41.9996H39.9994H37.9993V46.8457V49.0456V51.2441V53.4454H39.9994H41.9996H43.9997H45.9998H47.9999V51.2441V49.0456V46.8457V44.6444V42.4445V40.2447V38.0448V35.8449V33.645V31.4451V29.2452V27.0453V24.8454V22.6455V20.4456V18.2444H45.9998H43.9997Z" fill="#BFBFBE"/>
    <path d="M39.9994 16.0445H41.9995H43.9997H45.9998V13.8446H43.9997V11.6447H41.9995H39.9994V9.44483H37.9993V7.24493H35.9992V9.44483V11.6447V13.8446V16.0445H37.9993H39.9994Z" fill="#BFBFBE"/>
    <path d="M21.9998 7.24493H19.9997V9.44483H21.9998V7.24493Z" fill="#D8D8D8"/>
    <path d="M34 7.04526V9.44526V11.8453V14.2453V16.6453H36V14.2453V11.8453V9.44526V7.04526V4.64526H34V7.04526Z" fill="#9B9B9A"/>
    <path d="M11.9993 40.2447H10.0006H8.00045H6.00034V42.4446H8.00045H10.0006H11.9993H13.9994H15.9995V40.2447H13.9994H11.9993Z" fill="#D8D8D8"/>
    <path d="M11.9993 33.645H10.0006H8.00045H6.00034V35.8449H8.00045H10.0006H11.9993H13.9994H15.9995V33.645H13.9994H11.9993Z" fill="#D8D8D8"/>
    <path d="M11.9993 24.8454H10.0006H8.00046V27.0453H10.0006H11.9993H13.9994H15.9995V24.8454H13.9994H11.9993Z" fill="#D8D8D8"/>
    <path d="M11.9993 18.2444H10.0006H8.00045H6.00034V20.4456H8.00045H10.0006H11.9993H13.9994H15.9995V18.2444H13.9994H11.9993Z" fill="#D8D8D8"/>
    <path d="M2.00011 5.04505V7.24494V9.44483V11.6447V13.8446V16.0445V18.2444V20.4456V22.6455V24.8454V27.0453V29.2452V31.4451V33.645V35.8449V38.0448V40.2447V42.4446V44.6445V46.8457V49.0456V51.2441V53.4454H4.00022V51.2441V49.0456V46.8457V44.6445V42.4446V40.2447V38.0448V35.8449V33.645V31.4451V29.2452V27.0453V24.8454V22.6455V20.4456V18.2444V16.0445V13.8446V11.6447V9.44483V7.24494V5.04505V2.64496H2.00011V5.04505Z" fill="#D8D8D8"/>
    <path d="M39.9994 42.4446H37.9993H35.9992H33.9991H31.999H29.9989H28.0002H26.0001H23.9999H21.9998H19.9997H17.9996H15.9995H13.9994H11.9993H10.0006H8.00045H6.00034V44.6445H8.00045H10.0006H11.9993H13.9994H15.9995H17.9996H19.9997H21.9998H23.9999H26.0001H28.0002H29.9989H31.999H33.9991H35.9992H37.9993H39.9994H41.9996H43.9997V42.4446H41.9996H39.9994Z" fill="black"/>
    <path d="M39.9994 35.8449H37.9993H35.9992H33.9991H31.999H29.9989H28.0002H26.0001H23.9999H21.9998H19.9997H17.9996H15.9995H13.9994H11.9993H10.0006H8.00045H6.00034V38.0448H8.00045H10.0006H11.9993H13.9994H15.9995H17.9996H19.9997H21.9998H23.9999H26.0001H28.0002H29.9989H31.999H33.9991H35.9992H37.9993H39.9994H41.9996H43.9997V35.8449H41.9996H39.9994Z" fill="black"/>
    <path d="M39.9994 29.2452H37.9993H35.9992H33.9991H31.999H29.9989H28.0002H26.0001H23.9999H21.9998H19.9997H17.9996H15.9995H13.9994H11.9993H10.0006H8.00045H6.00034V31.4451H8.00045H10.0006H11.9993H13.9994H15.9995H17.9996H19.9997H21.9998H23.9999H26.0001H28.0002H29.9989H31.999H33.9991H35.9992H37.9993H39.9994H41.9996H43.9997V29.2452H41.9996H39.9994Z" fill="black"/>
    <path d="M47.9999 13.8446H45.9998V16.0445H33.9991V4.64526H35.9992V7.24494H39.9994V5.04505H37.9993V2.64526H33.9991V0.645264H0V55.6453H50V16.0445H47.9999V13.8446ZM47.9999 20.4456V53.4454H2.00011V2.64526H31.999V18.2458H47.9985V20.4456H47.9999Z" fill="black"/>
    <path d="M45.9998 11.6447H43.9997V13.8446H45.9998V11.6447Z" fill="black"/>
    <path d="M43.9997 9.44482H41.9995V11.6447H43.9997V9.44482Z" fill="black"/>
    <path d="M41.9996 7.24493H39.9995V9.44483H41.9996V7.24493Z" fill="black"/>
  </g>
  <defs>
    <clipPath id="clip0_18_237">
      <rect width="50" height="55" fill="white" transform="translate(0 0.645264)"/>
    </clipPath>
  </defs>
</svg>