<svg xmlns="http://www.w3.org/2000/svg" width="32" height="32" viewBox="0 0 32 32" fill="none">
  <path d="M20.8009 24H11.2012V25.6H20.8009V24Z" fill="black"/>
  <path d="M22.4027 22.4062H20.8027V24.0062H22.4027V22.4062Z" fill="black"/>
  <path d="M24.0003 16H22.4004V22.3998H24.0003V16Z" fill="black"/>
  <path d="M9.59996 16.0078H8V22.4076H9.59996V16.0078Z" fill="black"/>
  <path d="M11.2015 22.4062H9.60156V24.0062H11.2015V22.4062Z" fill="black"/>
  <path d="M11.2015 14.4062H9.60156V16.0062H11.2015V14.4062Z" fill="black"/>
  <path d="M22.4027 14.4062H20.8027V16.0062H22.4027V14.4062Z" fill="black"/>
  <path d="M19.1987 6.39844H12.7988V7.99839H19.1987V6.39844Z" fill="black"/>
  <path d="M19.201 8.00781V10.5325V11.2077V12.8077H12.8011V11.2077V10.6333V8.00781H11.2012V10.6333V11.2077V12.8077V13.3821V14.4076H20.8009V13.4829V12.8077V11.2077V10.5325V8.00781H19.201Z" fill="black"/>
  <path d="M16.8003 19.1999V16H15.2004V19.1999H14.4004V22.3998H17.6003V19.1999H16.8003Z" fill="black"/>
</svg>