<svg xmlns="http://www.w3.org/2000/svg" width="32" height="32" viewBox="0 0 32 32" fill="none">
  <path d="M21.6227 6H20.0605V7.56213H21.6227V6Z" fill="black"/>
  <path d="M20.0621 7.5625H18.5V9.12463H20.0621V7.5625Z" fill="black"/>
  <path d="M18.4996 9.125H16.9375V10.6871H18.4996V9.125Z" fill="black"/>
  <path d="M23.1852 7.5625H21.623V9.12463H23.1852V7.5625Z" fill="black"/>
  <path d="M24.7477 9.125H23.1855V10.6871H24.7477V9.125Z" fill="black"/>
  <path d="M26.3102 10.6875H24.748V12.2496H26.3102V10.6875Z" fill="black"/>
  <path d="M24.7477 12.25H23.1855V13.8121H24.7477V12.25Z" fill="black"/>
  <path d="M23.1852 13.8125H21.623V15.3746H23.1852V13.8125Z" fill="black"/>
  <path d="M12.2512 12.2496V10.6875H10.6891H9.12695V12.2496H10.6891H12.2512Z" fill="black"/>
  <path d="M13.8121 12.25H12.25V13.8121H13.8121V12.25Z" fill="black"/>
  <path d="M16.9368 10.6875H13.8125V12.2496H16.9368V10.6875Z" fill="black"/>
  <path d="M9.12658 12.25H7.56445V13.8121H9.12658V12.25Z" fill="black"/>
  <path d="M10.6891 13.8125H9.12695V15.3746H10.6891V13.8125Z" fill="black"/>
  <path d="M12.2496 15.375H10.6875V16.9371H12.2496V15.375Z" fill="black"/>
  <path d="M13.8121 18.4996V16.9375H12.25V18.4996V20.0618H13.8121H15.3743V18.4996H13.8121Z" fill="black"/>
  <path d="M16.9371 20.0625H15.375V21.6246H16.9371V20.0625Z" fill="black"/>
  <path d="M18.4996 21.625H16.9375V23.1871H18.4996V21.625Z" fill="black"/>
  <path d="M20.0621 23.1875H18.5V24.7496H20.0621V23.1875Z" fill="black"/>
  <path d="M21.6227 15.375H20.0605V18.4993H21.6227V15.375Z" fill="black"/>
  <path d="M20.0621 18.5H18.5V20.0621H20.0621V18.5Z" fill="black"/>
  <path d="M21.6227 20.0625H20.0605V23.1868H21.6227V20.0625Z" fill="black"/>
  <path d="M12.2496 20.0625H10.6875V21.6246H12.2496V20.0625Z" fill="black"/>
  <path d="M10.6891 21.625H9.12695V23.1871H10.6891V21.625Z" fill="black"/>
  <path d="M9.12658 23.1875H7.56445V24.7496H9.12658V23.1875Z" fill="black"/>
  <path d="M7.56408 24.7422H6.00195V26.3043H7.56408V24.7422Z" fill="black"/>
</svg>