<svg xmlns="http://www.w3.org/2000/svg" width="32" height="32" viewBox="0 0 32 32" fill="none">
  <path fill-rule="evenodd" clip-rule="evenodd" d="M16 7.59821H16.9997V8.39731H17.9993V9.19642H18.9989V8.39731H17.9993V7.59821H16.9997V6.7991H16V6H15.0004V7.59824H14.0008V8.39734H13.0011V9.19644H12.0015V8.39734H13.0011V7.59824H14.0008V6.79913L16 6.7991V7.59821ZM19.1406 26H15.4994H11.8583V25.2009H10.8586V13.1955H8.99963V12.3964H8V11.5961H8.99963V10.797H9.99926V9.99794H10.9989V9.19884H11.9985V9.99794H10.9989V10.797H9.99926V11.5961H8.99963V12.3953H10.8601V13.1944H11.8597V25.1998H20.1399V13.1955H22.0004V12.3964H23V11.5961H22.0004V10.797H21.0007V9.99794H20.0011V9.19884H19.0015V9.99794H20.0011V10.797H21.0007V11.5961H22.0004V12.3953H20.1399V13.1944H19.1403L19.1406 26Z" fill="currentColor"/>
</svg>