<svg xmlns="http://www.w3.org/2000/svg" width="32" height="32" viewBox="0 0 32 32" fill="none">
  <path fill-rule="evenodd" clip-rule="evenodd" d="M16 24.4018H16.9997V23.6027H17.9993V22.8036H18.9989V23.6027H17.9993V24.4018H16.9997V25.2009H16V26H15.0004V24.4018H14.0008V23.6027H13.0011V22.8036H12.0015V23.6027H13.0011V24.4018H14.0008V25.2009L16 25.2009V24.4018ZM19.1406 6H15.4994H11.8583V6.7991H10.8586V18.8045H8.99963V19.6036H8V20.4039H8.99963V21.203H9.99926V22.0021H10.9989V22.8012H11.9985V22.0021H10.9989V21.203H9.99926V20.4039H8.99963V19.6047H10.8601V18.8056H11.8597V6.80023H20.1399V18.8045H22.0004V19.6036H23V20.4039H22.0004V21.203H21.0007V22.0021H20.0011V22.8012H19.0015V22.0021H20.0011V21.203H21.0007V20.4039H22.0004V19.6047H20.1399V18.8056H19.1403L19.1406 6Z" fill="currentColor"/>
</svg>