<svg xmlns="http://www.w3.org/2000/svg" width="32" height="32" viewBox="0 0 32 32" fill="none">
  <path d="M21.6227 26.3047H20.0605V24.7426H21.6227V26.3047Z" fill="black"/>
  <path d="M20.0602 24.7422H18.498V23.1801H20.0602V24.7422Z" fill="black"/>
  <path d="M18.4996 23.1797H16.9375V21.6176H18.4996V23.1797Z" fill="black"/>
  <path d="M23.1852 24.7422H21.623V23.1801H23.1852V24.7422Z" fill="black"/>
  <path d="M24.7477 23.1797H23.1855V21.6176H24.7477V23.1797Z" fill="black"/>
  <path d="M26.3102 21.6172H24.748V20.0551H26.3102V21.6172Z" fill="black"/>
  <path d="M24.7477 20.0547H23.1855V18.4926H24.7477V20.0547Z" fill="black"/>
  <path d="M23.1852 18.4922H21.623V16.9301H23.1852V18.4922Z" fill="black"/>
  <path d="M12.2512 20.0551V21.6172H10.6891H9.12695V20.0551H10.6891H12.2512Z" fill="black"/>
  <path d="M13.8121 20.0547H12.25V18.4926H13.8121V20.0547Z" fill="black"/>
  <path d="M16.9368 21.6172H13.8125V20.0551H16.9368V21.6172Z" fill="black"/>
  <path d="M9.12658 20.0547H7.56445V18.4926H9.12658V20.0547Z" fill="black"/>
  <path d="M10.6891 18.4922H9.12695V16.9301H10.6891V18.4922Z" fill="black"/>
  <path d="M12.2496 16.9297H10.6875V15.3676H12.2496V16.9297Z" fill="black"/>
  <path d="M13.8121 13.8129V15.375H12.25V13.8129V12.2507H13.8121H15.3743V13.8129H13.8121Z" fill="black"/>
  <path d="M16.9371 12.25H15.375V10.6879H16.9371V12.25Z" fill="black"/>
  <path d="M18.4996 10.6875H16.9375V9.12537H18.4996V10.6875Z" fill="black"/>
  <path d="M20.0602 9.125H18.498V7.56287H20.0602V9.125Z" fill="black"/>
  <path d="M21.6227 16.9297H20.0605V13.8054H21.6227V16.9297Z" fill="black"/>
  <path d="M20.0602 13.8125H18.498V12.2504H20.0602V13.8125Z" fill="black"/>
  <path d="M21.6227 12.25H20.0605V9.12574H21.6227V12.25Z" fill="black"/>
  <path d="M12.2496 12.25H10.6875V10.6879H12.2496V12.25Z" fill="black"/>
  <path d="M10.6891 10.6875H9.12695V9.12537H10.6891V10.6875Z" fill="black"/>
  <path d="M9.12658 9.125H7.56445V7.56287H9.12658V9.125Z" fill="black"/>
  <path d="M7.56408 7.5625H6.00195V6.00037H7.56408V7.5625Z" fill="black"/>
</svg>