<svg
  xmlns="http://www.w3.org/2000/svg"
  width="168"
  height="168"
  viewBox="0 0 168 168"
  fill="none"
  >
<path
d="M109.565 168H58.4346V160.695H109.565V168ZM58.4346 160.695H43.8262V153.392H58.4346V160.695ZM124.174 160.695H109.565V153.392H124.174V160.695ZM43.8262 153.392H29.2178V146.087H43.8262V153.392ZM138.782 153.392H124.174V146.087H138.782V153.392ZM29.2178 146.087H21.9131V138.782H29.2178V146.087ZM146.087 146.087H138.782V138.782H146.087V146.087ZM21.9131 138.782H14.6084V124.174H21.9131V138.782ZM153.392 138.782H146.087V124.174H153.392V138.782ZM14.6084 124.174H7.30469V109.565H14.6084V124.174ZM160.695 124.174H153.392V109.565H160.695V124.174ZM7.30469 109.565H0V58.4346H7.30469V109.565ZM168 109.565H160.695V58.4346H168V109.565ZM14.6084 58.4346H7.30469V43.8262H14.6084V58.4346ZM160.695 58.4346H153.392V43.8262H160.695V58.4346ZM21.9131 43.8262H14.6084V29.2178H21.9131V43.8262ZM153.392 43.8262H146.087V29.2178H153.392V43.8262ZM29.2178 29.2178H21.9131V21.9131H29.2178V29.2178ZM146.087 29.2178H138.782V21.9131H146.087V29.2178ZM43.8262 21.9131H29.2178V14.6084H43.8262V21.9131ZM138.782 21.9131H124.174V14.6084H138.782V21.9131ZM58.4346 14.6084H43.8262V7.30469H58.4346V14.6084ZM124.174 14.6084H109.565V7.30469H124.174V14.6084ZM109.565 7.30469H58.4346V0H109.565V7.30469Z"
fill="currentColor"
/>
  </svg>