<svg xmlns="http://www.w3.org/2000/svg" width="24" height="24" viewBox="0 0 24 24" fill="none">
  <path d="M15.9092 5H7.90918L7.90918 5.72754H7.18164V6.4541H6.4541V7.18164H5.72754V7.90918H5L5 15.9092H5.72754V16.6367H6.4541V17.3633H7.18164V18.0908H7.90918V18.8184H13V21H13.7275V20.2725H14.4541V19.5459H15.1816V18.8184H15.9092V18.0908H15.1816V17.3633H14.4541V16.6367H13.7275V15.9092H13V18.0908H8.63672V17.3633H7.90918V16.6367H7.18164V15.9092H6.4541V15.1816H5.72754L5.72754 8.63672H6.4541V7.90918H7.18164V7.18164H7.90918V6.4541H8.63672V5.72754H15.1816V6.4541H15.9092V7.18164H16.6367V7.90918H17.3633V8.63672H18.0908V15.1816H17.3633V15.9092H18.8184V7.90918H18.0908V7.18164H17.3633V6.4541H16.6367V5.72754H15.9092V5Z" fill="currentColor"/>
</svg>