<svg width="136" height="135" viewBox="0 0 136 135" fill="none" xmlns="http://www.w3.org/2000/svg">
<g filter="url(#filter0_i_94_115932)">
<g clip-path="url(#clip0_94_115932)" filter="url(#filter1_i_94_115932)">
<rect x="61.4648" y="12" width="7" height="7" fill="#319999"/>
<rect x="61.4648" y="117" width="7" height="7" fill="#319999"/>
<rect x="68.4648" y="12" width="7" height="7" fill="#319999"/>
<rect x="68.4648" y="117" width="7" height="7" fill="#319999"/>
<rect x="54.4648" y="12" width="7" height="7" fill="#319999"/>
<rect x="54.4648" y="117" width="7" height="7" fill="#319999"/>
<rect x="75.4648" y="12" width="7" height="7" fill="#319999"/>
<rect x="75.4648" y="117" width="7" height="7" fill="#319999"/>
<rect x="47.4648" y="19" width="7" height="7" fill="#319999"/>
<rect x="47.4648" y="110" width="7" height="7" fill="#319999"/>
<rect x="82.4648" y="19" width="7" height="7" fill="#319999"/>
<rect x="82.4648" y="110" width="7" height="7" fill="#319999"/>
<rect x="40.4648" y="19" width="7" height="7" fill="#319999"/>
<rect x="40.4648" y="110" width="7" height="7" fill="#319999"/>
<rect x="89.4648" y="19" width="7" height="7" fill="#319999"/>
<rect x="89.4648" y="110" width="7" height="7" fill="#319999"/>
<rect x="33.4648" y="19" width="7" height="7" fill="#319999"/>
<rect x="33.4648" y="110" width="7" height="7" fill="#319999"/>
<rect x="96.4648" y="19" width="7" height="7" fill="#319999"/>
<rect x="96.4648" y="110" width="7" height="7" fill="#319999"/>
<rect x="47.4648" y="117" width="7" height="7" fill="#319999"/>
<rect x="82.4648" y="12" width="7" height="7" fill="#319999"/>
<rect x="82.4648" y="117" width="7" height="7" fill="#319999"/>
<rect x="19.4648" y="33" width="7" height="7" fill="#319999"/>
<rect x="19.4648" y="96" width="7" height="7" fill="#319999"/>
<rect x="110.465" y="33" width="7" height="7" fill="#319999"/>
<rect x="110.465" y="96" width="7" height="7" fill="#319999"/>
<rect x="19.4648" y="40" width="7" height="7" fill="#319999"/>
<rect x="19.4648" y="89" width="7" height="7" fill="#319999"/>
<rect x="110.465" y="40" width="7" height="7" fill="#319999"/>
<rect x="110.465" y="89" width="7" height="7" fill="#319999"/>
<rect x="12.4648" y="47" width="7" height="7" fill="#319999"/>
<rect x="12.4648" y="82" width="7" height="7" fill="#319999"/>
<rect x="117.465" y="47" width="7" height="7" fill="#319999"/>
<rect x="117.465" y="82" width="7" height="7" fill="#319999"/>
<rect x="12.4648" y="54" width="7" height="7" fill="#319999"/>
<rect x="12.4648" y="75" width="7" height="7" fill="#319999"/>
<rect x="117.465" y="54" width="7" height="7" fill="#319999"/>
<rect x="117.465" y="75" width="7" height="7" fill="#319999"/>
<rect x="12.4648" y="61" width="7" height="7" fill="#319999"/>
<rect x="12.4648" y="68" width="7" height="7" fill="#319999"/>
<rect x="117.465" y="61" width="7" height="7" fill="#319999"/>
<rect x="117.465" y="68" width="7" height="7" fill="#319999"/>
<rect x="40.4648" y="40" width="7" height="7" fill="#319999"/>
<rect x="40.4648" y="47" width="7" height="7" fill="#319999"/>
<rect x="40.4648" y="54" width="7" height="7" fill="#319999"/>
<rect x="40.4648" y="61" width="7" height="7" fill="#319999"/>
<rect x="40.4648" y="68" width="7" height="7" fill="#319999"/>
<rect x="40.4648" y="75" width="7" height="7" fill="#319999"/>
<rect x="40.4648" y="82" width="7" height="7" fill="#319999"/>
<rect x="40.4648" y="89" width="7" height="7" fill="#319999"/>
<rect x="40.4648" y="96" width="7" height="7" fill="#319999"/>
<rect x="40.4648" y="103" width="7" height="7" fill="#319999"/>
<rect x="47.4648" y="103" width="7" height="7" fill="#319999"/>
<rect x="47.4648" y="96" width="7" height="7" fill="#319999"/>
<rect x="47.4648" y="89" width="7" height="7" fill="#319999"/>
<rect x="47.4648" y="82" width="7" height="7" fill="#319999"/>
<rect x="47.4648" y="75" width="7" height="7" fill="#319999"/>
<rect x="47.4648" y="68" width="7" height="7" fill="#319999"/>
<rect x="47.4648" y="61" width="7" height="7" fill="#319999"/>
<rect x="47.4648" y="54" width="7" height="7" fill="#319999"/>
<rect x="47.4648" y="47" width="7" height="7" fill="#319999"/>
<rect x="47.4648" y="40" width="7" height="7" fill="#319999"/>
<rect x="47.4648" y="33" width="7" height="7" fill="#319999"/>
<rect x="47.4648" y="26" width="7" height="7" fill="#319999"/>
<rect x="54.4648" y="26" width="7" height="7" fill="#319999"/>
<rect x="54.4648" y="33" width="7" height="7" fill="#319999"/>
<rect x="54.4648" y="40" width="7" height="7" fill="#319999"/>
<rect x="54.4648" y="47" width="7" height="7" fill="#319999"/>
<rect x="54.4648" y="54" width="7" height="7" fill="#319999"/>
<rect x="54.4648" y="61" width="7" height="7" fill="#319999"/>
<rect x="54.4648" y="68" width="7" height="7" fill="#319999"/>
<rect x="54.4648" y="75" width="7" height="7" fill="#319999"/>
<rect x="54.4648" y="82" width="7" height="7" fill="#319999"/>
<rect x="54.4648" y="89" width="7" height="7" fill="#319999"/>
<rect x="54.4648" y="96" width="7" height="7" fill="#319999"/>
<rect x="54.4648" y="103" width="7" height="7" fill="#319999"/>
<rect x="54.4648" y="110" width="7" height="7" fill="#319999"/>
<rect x="61.4648" y="110" width="7" height="7" fill="#319999"/>
<rect x="61.4648" y="103" width="7" height="7" fill="#319999"/>
<rect x="61.4648" y="96" width="7" height="7" fill="#319999"/>
<rect x="61.4648" y="89" width="7" height="7" fill="#319999"/>
<rect x="61.4648" y="82" width="7" height="7" fill="#319999"/>
<rect x="61.4648" y="75" width="7" height="7" fill="#319999"/>
<rect x="61.4648" y="68" width="7" height="7" fill="#319999"/>
<rect x="61.4648" y="61" width="7" height="7" fill="#319999"/>
<rect x="61.4648" y="54" width="7" height="7" fill="#319999"/>
<rect x="61.4648" y="47" width="7" height="7" fill="#319999"/>
<rect x="61.4648" y="40" width="7" height="7" fill="#319999"/>
<rect x="61.4648" y="33" width="7" height="7" fill="#319999"/>
<rect x="61.4648" y="26" width="7" height="7" fill="#319999"/>
<rect x="61.4648" y="19" width="7" height="7" fill="#319999"/>
<rect x="68.4648" y="19" width="7" height="7" fill="#319999"/>
<rect x="68.4648" y="26" width="7" height="7" fill="#319999"/>
<rect x="68.4648" y="33" width="7" height="7" fill="#319999"/>
<rect x="68.4648" y="40" width="7" height="7" fill="#319999"/>
<rect x="68.4648" y="47" width="7" height="7" fill="#319999"/>
<rect x="68.4648" y="54" width="7" height="7" fill="#319999"/>
<rect x="68.4648" y="61" width="7" height="7" fill="#319999"/>
<rect x="68.4648" y="68" width="7" height="7" fill="#319999"/>
<rect x="68.4648" y="75" width="7" height="7" fill="#319999"/>
<rect x="68.4648" y="82" width="7" height="7" fill="#319999"/>
<rect x="68.4648" y="89" width="7" height="7" fill="#319999"/>
<rect x="68.4648" y="96" width="7" height="7" fill="#319999"/>
<rect x="68.4648" y="103" width="7" height="7" fill="#319999"/>
<rect x="68.4648" y="110" width="7" height="7" fill="#319999"/>
<rect x="75.4648" y="110" width="7" height="7" fill="#319999"/>
<rect x="75.4648" y="103" width="7" height="7" fill="#319999"/>
<rect x="75.4648" y="96" width="7" height="7" fill="#319999"/>
<rect x="75.4648" y="89" width="7" height="7" fill="#319999"/>
<rect x="75.4648" y="82" width="7" height="7" fill="#319999"/>
<rect x="75.4648" y="75" width="7" height="7" fill="#319999"/>
<rect x="75.4648" y="68" width="7" height="7" fill="#319999"/>
<rect x="75.4648" y="61" width="7" height="7" fill="#319999"/>
<rect x="75.4648" y="54" width="7" height="7" fill="#319999"/>
<rect x="75.4648" y="47" width="7" height="7" fill="#319999"/>
<rect x="75.4648" y="40" width="7" height="7" fill="#319999"/>
<rect x="75.4648" y="33" width="7" height="7" fill="#319999"/>
<rect x="75.4648" y="26" width="7" height="7" fill="#319999"/>
<rect x="75.4648" y="19" width="7" height="7" fill="#319999"/>
<rect x="82.4648" y="26" width="7" height="7" fill="#319999"/>
<rect x="82.4648" y="33" width="7" height="7" fill="#319999"/>
<rect x="82.4648" y="40" width="7" height="7" fill="#319999"/>
<rect x="82.4648" y="47" width="7" height="7" fill="#319999"/>
<rect x="82.4648" y="54" width="7" height="7" fill="#319999"/>
<rect x="82.4648" y="61" width="7" height="7" fill="#319999"/>
<rect x="82.4648" y="68" width="7" height="7" fill="#319999"/>
<rect x="82.4648" y="75" width="7" height="7" fill="#319999"/>
<rect x="82.4648" y="82" width="7" height="7" fill="#319999"/>
<rect x="82.4648" y="89" width="7" height="7" fill="#319999"/>
<rect x="82.4648" y="96" width="7" height="7" fill="#319999"/>
<rect x="82.4648" y="103" width="7" height="7" fill="#319999"/>
<rect x="89.4648" y="103" width="7" height="7" fill="#319999"/>
<rect x="89.4648" y="96" width="7" height="7" fill="#319999"/>
<rect x="89.4648" y="89" width="7" height="7" fill="#319999"/>
<rect x="89.4648" y="82" width="7" height="7" fill="#319999"/>
<rect x="89.4648" y="75" width="7" height="7" fill="#319999"/>
<rect x="89.4648" y="68" width="7" height="7" fill="#319999"/>
<rect x="89.4648" y="61" width="7" height="7" fill="#319999"/>
<rect x="89.4648" y="54" width="7" height="7" fill="#319999"/>
<rect x="89.4648" y="47" width="7" height="7" fill="#319999"/>
<rect x="89.4648" y="40" width="7" height="7" fill="#319999"/>
<rect x="89.4648" y="33" width="7" height="7" fill="#319999"/>
<rect x="89.4648" y="26" width="7" height="7" fill="#319999"/>
<rect x="96.4648" y="26" width="7" height="7" fill="#319999"/>
<rect x="96.4648" y="33" width="7" height="7" fill="#319999"/>
<rect x="96.4648" y="40" width="7" height="7" fill="#319999"/>
<rect x="96.4648" y="47" width="7" height="7" fill="#319999"/>
<rect x="96.4648" y="54" width="7" height="7" fill="#319999"/>
<rect x="96.4648" y="61" width="7" height="7" fill="#319999"/>
<rect x="96.4648" y="68" width="7" height="7" fill="#319999"/>
<rect x="96.4648" y="75" width="7" height="7" fill="#319999"/>
<rect x="96.4648" y="82" width="7" height="7" fill="#319999"/>
<rect x="96.4648" y="89" width="7" height="7" fill="#319999"/>
<rect x="96.4648" y="96" width="7" height="7" fill="#319999"/>
<rect x="96.4648" y="103" width="7" height="7" fill="#319999"/>
<rect x="103.465" y="103" width="7" height="7" fill="#319999"/>
<rect x="103.465" y="96" width="7" height="7" fill="#319999"/>
<rect x="103.465" y="89" width="7" height="7" fill="#319999"/>
<rect x="103.465" y="82" width="7" height="7" fill="#319999"/>
<rect x="103.465" y="75" width="7" height="7" fill="#319999"/>
<rect x="103.465" y="68" width="7" height="7" fill="#319999"/>
<rect x="103.465" y="61" width="7" height="7" fill="#319999"/>
<rect x="103.465" y="54" width="7" height="7" fill="#319999"/>
<rect x="103.465" y="47" width="7" height="7" fill="#319999"/>
<rect x="103.465" y="40" width="7" height="7" fill="#319999"/>
<rect x="103.465" y="33" width="7" height="7" fill="#319999"/>
<rect x="103.465" y="26" width="7" height="7" fill="#319999"/>
<rect x="110.465" y="47" width="7" height="7" fill="#319999"/>
<rect x="110.465" y="54" width="7" height="7" fill="#319999"/>
<rect x="110.465" y="61" width="7" height="7" fill="#319999"/>
<rect x="110.465" y="68" width="7" height="7" fill="#319999"/>
<rect x="110.465" y="75" width="7" height="7" fill="#319999"/>
<rect x="110.465" y="82" width="7" height="7" fill="#319999"/>
<rect x="54.4648" y="19" width="7" height="7" fill="#319999"/>
<rect x="40.4648" y="26" width="7" height="7" fill="#319999"/>
<rect x="40.4648" y="33" width="7" height="7" fill="#319999"/>
<rect x="33.4648" y="33" width="7" height="7" fill="#319999"/>
<rect x="33.4648" y="40" width="7" height="7" fill="#319999"/>
<rect x="33.4648" y="47" width="7" height="7" fill="#319999"/>
<rect x="33.4648" y="54" width="7" height="7" fill="#319999"/>
<rect x="33.4648" y="61" width="7" height="7" fill="#319999"/>
<rect x="33.4648" y="68" width="7" height="7" fill="#319999"/>
<rect x="33.4648" y="75" width="7" height="7" fill="#319999"/>
<rect x="33.4648" y="82" width="7" height="7" fill="#319999"/>
<rect x="33.4648" y="89" width="7" height="7" fill="#319999"/>
<rect x="33.4648" y="96" width="7" height="7" fill="#319999"/>
<rect x="33.4648" y="103" width="7" height="7" fill="#319999"/>
<rect x="26.4648" y="103" width="7" height="7" fill="#319999"/>
<rect x="26.4648" y="96" width="7" height="7" fill="#319999"/>
<rect x="26.4648" y="89" width="7" height="7" fill="#319999"/>
<rect x="26.4648" y="82" width="7" height="7" fill="#319999"/>
<rect x="26.4648" y="75" width="7" height="7" fill="#319999"/>
<rect x="26.4648" y="68" width="7" height="7" fill="#319999"/>
<rect x="26.4648" y="61" width="7" height="7" fill="#319999"/>
<rect x="26.4648" y="54" width="7" height="7" fill="#319999"/>
<rect x="26.4648" y="47" width="7" height="7" fill="#319999"/>
<rect x="26.4648" y="40" width="7" height="7" fill="#319999"/>
<rect x="26.4648" y="33" width="7" height="7" fill="#319999"/>
<rect x="26.4648" y="26" width="7" height="7" fill="#319999"/>
<rect x="33.4648" y="26" width="7" height="7" fill="#319999"/>
<rect x="19.4648" y="47" width="7" height="7" fill="#319999"/>
<rect x="19.4648" y="54" width="7" height="7" fill="#319999"/>
<rect x="19.4648" y="61" width="7" height="7" fill="#319999"/>
<rect x="19.4648" y="68" width="7" height="7" fill="#319999"/>
<rect x="19.4648" y="75" width="7" height="7" fill="#319999"/>
<rect x="19.4648" y="82" width="7" height="7" fill="#319999"/>
<rect x="47.4648" y="12" width="7" height="7" fill="#319999"/>
<path d="M83.3701 76.2119H87.833V80.6738H92.2959V94.0625H87.833V98.5244H47.6699V94.0625H43.207V80.6738H47.6699V85.1367H52.1318V80.6738H65.5205V76.2119H52.1318V71.749H83.3701V76.2119ZM52.1318 80.6738H47.6699V76.2119H52.1318V80.6738ZM74.4453 41.2549H78.9082V45.7168H83.3701V59.1055H78.9082V63.5674H74.4453V68.0303H61.0576V63.5674H56.5947V59.1055H61.0576V45.7168H69.9824V41.2549H61.0576V36.792H74.4453V41.2549ZM56.5947 59.1055H52.1318V45.7168H56.5947V59.1055ZM61.0576 45.7168H56.5947V41.2549H61.0576V45.7168Z" fill="white"/>
</g>
</g>
<defs>
<filter id="filter0_i_94_115932" x="0.564453" y="0" width="134.869" height="134.87" filterUnits="userSpaceOnUse" color-interpolation-filters="sRGB">
<feFlood flood-opacity="0" result="BackgroundImageFix"/>
<feBlend mode="normal" in="SourceGraphic" in2="BackgroundImageFix" result="shape"/>
<feColorMatrix in="SourceAlpha" type="matrix" values="0 0 0 0 0 0 0 0 0 0 0 0 0 0 0 0 0 0 127 0" result="hardAlpha"/>
<feOffset/>
<feGaussianBlur stdDeviation="7.5"/>
<feComposite in2="hardAlpha" operator="arithmetic" k2="-1" k3="1"/>
<feColorMatrix type="matrix" values="0 0 0 0 0 0 0 0 0 0 0 0 0 0 0 0 0 0 0.25 0"/>
<feBlend mode="normal" in2="shape" result="effect1_innerShadow_94_115932"/>
</filter>
<filter id="filter1_i_94_115932" x="12.4648" y="12" width="111.07" height="111.069" filterUnits="userSpaceOnUse" color-interpolation-filters="sRGB">
<feFlood flood-opacity="0" result="BackgroundImageFix"/>
<feBlend mode="normal" in="SourceGraphic" in2="BackgroundImageFix" result="shape"/>
<feColorMatrix in="SourceAlpha" type="matrix" values="0 0 0 0 0 0 0 0 0 0 0 0 0 0 0 0 0 0 127 0" result="hardAlpha"/>
<feOffset/>
<feGaussianBlur stdDeviation="7.5"/>
<feComposite in2="hardAlpha" operator="arithmetic" k2="-1" k3="1"/>
<feColorMatrix type="matrix" values="0 0 0 0 0 0 0 0 0 0 0 0 0 0 0 0 0 0 0.25 0"/>
<feBlend mode="normal" in2="shape" result="effect1_innerShadow_94_115932"/>
</filter>
<clipPath id="clip0_94_115932">
<rect width="111.069" height="111.069" fill="white" transform="translate(12.4648 12)"/>
</clipPath>
</defs>
</svg>
