<svg xmlns="http://www.w3.org/2000/svg" width="24" height="24" viewBox="0 0 24 24" fill="none">
  <path d="M17.4545 24H6.54545V21.8182H17.4545V24ZM6.54545 21.8182H4.36364V19.6364H6.54545V21.8182ZM19.6364 21.8182H17.4545V19.6364H19.6364V21.8182ZM4.36364 19.6364H2.18182V17.4545H4.36364V19.6364ZM21.8182 19.6364H19.6364V17.4545H21.8182V19.6364ZM2.18182 17.4545H0V6.54545H2.18182V17.4545ZM14.1818 8.72727H9.81818V10.9091H14.1818V13.0909H9.81818V15.2727H14.1818V17.4545H7.63636V6.54545H14.1818V8.72727ZM24 17.4545H21.8182V6.54545H24V17.4545ZM16.3636 15.2727H14.1818V13.0909H16.3636V15.2727ZM16.3636 10.9091H14.1818V8.72727H16.3636V10.9091ZM4.36364 6.54545H2.18182V4.36364H4.36364V6.54545ZM21.8182 6.54545H19.6364V4.36364H21.8182V6.54545ZM6.54545 4.36364H4.36364V2.18182H6.54545V4.36364ZM19.6364 4.36364H17.4545V2.18182H19.6364V4.36364ZM17.4545 2.18182H6.54545V0H17.4545V2.18182Z" fill="currentColor"/>
</svg>