<svg xmlns="http://www.w3.org/2000/svg" width="18" height="18" viewBox="0 0 18 18" fill="none">
  <path d="M13.0909 18H4.90909V16.3636H13.0909V18ZM4.90909 16.3636H3.27273V14.7273H4.90909V16.3636ZM14.7273 16.3636H13.0909V14.7273H14.7273V16.3636ZM3.27273 14.7273H1.63636V13.0909H3.27273V14.7273ZM16.3636 14.7273H14.7273V13.0909H16.3636V14.7273ZM1.63636 13.0909H0V4.90909H1.63636V13.0909ZM18 13.0909H16.3636V4.90909H18V13.0909ZM3.27273 4.90909H1.63636V3.27273H3.27273V4.90909ZM16.3636 4.90909H14.7273V3.27273H16.3636V4.90909ZM4.90909 3.27273H3.27273V1.63636H4.90909V3.27273ZM14.7273 3.27273H13.0909V1.63636H14.7273V3.27273ZM13.0909 1.63636H4.90909V0H13.0909V1.63636Z" fill="currentColor"/>
</svg>