<svg xmlns="http://www.w3.org/2000/svg" width="40" height="40" viewBox="0 0 40 40" fill="none">
  <path d="M26.0869 40H13.9131V38.2607H26.0869V40ZM13.9131 38.2607H10.4346V36.5215H13.9131V38.2607ZM29.5654 38.2607H26.0869V36.5215H29.5654V38.2607ZM10.4346 36.5215H6.95605V34.7822H10.4346V36.5215ZM33.0439 36.5215H29.5654V34.7822H33.0439V36.5215ZM6.95605 34.7822H5.21777V33.0439H6.95605V34.7822ZM34.7822 34.7822H33.0439V33.0439H34.7822V34.7822ZM5.21777 33.0439H3.47852V29.5654H5.21777V33.0439ZM36.5215 33.0439H34.7822V29.5654H36.5215V33.0439ZM3.47852 29.5654H1.73926V26.0869H3.47852V29.5654ZM38.2607 29.5654H36.5215V26.0869H38.2607V29.5654ZM1.73926 26.0869H0V13.9131H1.73926V26.0869ZM40 26.0869H38.2607V13.9131H40V26.0869ZM3.47852 13.9131H1.73926V10.4346H3.47852V13.9131ZM38.2607 13.9131H36.5215V10.4346H38.2607V13.9131ZM5.21777 10.4346H3.47852V6.95605H5.21777V10.4346ZM36.5215 10.4346H34.7822V6.95605H36.5215V10.4346ZM6.95605 6.95605H5.21777V5.21777H6.95605V6.95605ZM34.7822 6.95605H33.0439V5.21777H34.7822V6.95605ZM10.4346 5.21777H6.95605V3.47852H10.4346V5.21777ZM33.0439 5.21777H29.5654V3.47852H33.0439V5.21777ZM13.9131 3.47852H10.4346V1.73926H13.9131V3.47852ZM29.5654 3.47852H26.0869V1.73926H29.5654V3.47852ZM26.0869 1.73926H13.9131V0H26.0869V1.73926Z" fill="black"/>
  <path d="M29 30H27.2727V28.2727H25.5455V26.5455H27.2727V14.4545H29V30ZM25.5455 26.5455H13.4545V24.8182H25.5455V26.5455ZM13.4545 24.8182H11.7273V23.0909H13.4545V24.8182ZM11.7273 23.0909H10V14.4545H11.7273V23.0909ZM22.0909 21.3636H13.4545V19.6364H22.0909V21.3636ZM25.5455 17.9091H13.4545V16.1818H25.5455V17.9091ZM13.4545 14.4545H11.7273V12.7273H13.4545V14.4545ZM27.2727 14.4545H25.5455V12.7273H27.2727V14.4545ZM25.5455 12.7273H13.4545V11H25.5455V12.7273Z" fill="black"/>
</svg>