<svg xmlns="http://www.w3.org/2000/svg" width="40" height="40" viewBox="0 0 40 40" fill="none">
  <path d="M25.9756 39.8281H13.8535V38.0967H25.9756V39.8281ZM13.8535 38.0967H10.3906V36.3652H13.8535V38.0967ZM29.4395 38.0967H25.9756V36.3652H29.4395V38.0967ZM10.3906 36.3652H6.92676V34.6328H10.3906V36.3652ZM32.9023 36.3652H29.4395V34.6328H32.9023V36.3652ZM6.92676 34.6328H5.19531V32.9014H6.92676V34.6328ZM34.6348 34.6328H32.9023V32.9014H34.6348V34.6328ZM5.19531 32.9014H3.46387V29.4385H5.19531V32.9014ZM36.3662 32.9014H34.6348V29.4385H36.3662V32.9014ZM3.46387 29.4385H1.73242V25.9746H3.46387V29.4385ZM38.0977 29.4385H36.3662V25.9746H38.0977V29.4385ZM1.73242 25.9746H0V13.8535H1.73242V25.9746ZM39.8291 25.9746H38.0977V13.8535H39.8291V25.9746ZM3.46387 13.8535H1.73242V10.3896H3.46387V13.8535ZM38.0977 13.8535H36.3662V10.3896H38.0977V13.8535ZM5.19531 10.3896H3.46387V6.92676H5.19531V10.3896ZM36.3662 10.3896H34.6348V6.92676H36.3662V10.3896ZM6.92676 6.92676H5.19531V5.19531H6.92676V6.92676ZM34.6348 6.92676H32.9023V5.19531H34.6348V6.92676ZM10.3906 5.19531H6.92676V3.46289H10.3906V5.19531ZM32.9023 5.19531H29.4395V3.46289H32.9023V5.19531ZM13.8535 3.46289H10.3906V1.73145H13.8535V3.46289ZM29.4395 3.46289H25.9756V1.73145H29.4395V3.46289ZM25.9756 1.73145H13.8535V0H25.9756V1.73145Z" fill="black"/>
  <path d="M18.4307 28.291H19.998V29.8672H18.4209V28.2998H16.8535V26.7236H18.4307V28.291ZM23.1445 28.2998H21.5771V29.8672H20.001V28.291H21.5684V26.7236H23.1445V28.2998ZM16.8516 26.7246H15.2744V25.1475H16.8516V26.7246ZM24.7324 26.7246H23.1553V25.1475H24.7324V26.7246ZM15.2715 25.1416H13.6953V23.5645H15.2715V25.1416ZM27.8789 23.5664H26.3115V25.1416H24.7344V23.5645H26.3018V21.9893H27.8789V23.5664ZM12.1172 21.9893H13.6846V23.5664H12.1074V21.9902H10.54V20.4141H12.1172V21.9893ZM29.458 21.9902H27.8818V20.4141H29.458V21.9902ZM10.5381 20.415H8.96094V15.6875H10.5381V20.415ZM31.042 20.415H29.4648V15.6875H31.042V20.415ZM13.6846 18.8398H12.1074V15.6875H13.6846V18.8398ZM10.5381 15.6807H8.96094V14.1045H10.5381V15.6807ZM15.2715 15.6807H13.6953V14.1045H15.2715V15.6807ZM18.4307 14.1045H19.998V15.6807H18.4209V14.1055H16.8535V12.5283H18.4307V14.1045ZM23.1445 14.1055H21.5771V15.6807H20.001V14.1045H21.5684V12.5283H23.1445V14.1055ZM31.042 15.6807H29.4648V14.1045H31.042V15.6807ZM13.6846 12.5303H12.1172V14.1055H10.54V12.5283H12.1074V10.9531H13.6846V12.5303ZM29.458 14.1055H27.8818V12.5283H29.458V14.1055ZM15.2715 12.5303H13.6953V10.9531H15.2715V12.5303ZM16.8516 12.5303H15.2744V10.9531H16.8516V12.5303ZM24.7324 12.5303H23.1553V10.9531H24.7324V12.5303ZM27.8789 12.5303H24.7344V10.9531H27.8789V12.5303Z" fill="black"/>
</svg>