<svg xmlns="http://www.w3.org/2000/svg" width="40" height="40" viewBox="0 0 40 40" fill="none">
  <path d="M26.0889 40H13.9141V38.2607H26.0889V40ZM13.9141 38.2607H10.4355V36.5215H13.9141V38.2607ZM29.5674 38.2607H26.0889V36.5215H29.5674V38.2607ZM10.4355 36.5215H6.95703V34.7822H10.4355V36.5215ZM33.0449 36.5215H29.5674V34.7822H33.0449V36.5215ZM6.95703 34.7822H5.21777V33.043H6.95703V34.7822ZM34.7842 34.7822H33.0449V33.043H34.7842V34.7822ZM5.21777 33.043H3.47852V29.5654H5.21777V33.043ZM36.5234 33.043H34.7842V29.5654H36.5234V33.043ZM3.47852 29.5654H1.73926V26.0869H3.47852V29.5654ZM38.2627 29.5654H36.5234V26.0869H38.2627V29.5654ZM1.73926 26.0869H0V13.9131H1.73926V26.0869ZM40.002 26.0869H38.2627V13.9131H40.002V26.0869ZM3.47852 13.9131H1.73926V10.4346H3.47852V13.9131ZM38.2627 13.9131H36.5234V10.4346H38.2627V13.9131ZM5.21777 10.4346H3.47852V6.95605H5.21777V10.4346ZM36.5234 10.4346H34.7842V6.95605H36.5234V10.4346ZM6.95703 6.95605H5.21777V5.21777H6.95703V6.95605ZM34.7842 6.95605H33.0449V5.21777H34.7842V6.95605ZM10.4355 5.21777H6.95703V3.47852H10.4355V5.21777ZM33.0449 5.21777H29.5674V3.47852H33.0449V5.21777ZM13.9141 3.47852H10.4355V1.73926H13.9141V3.47852ZM29.5674 3.47852H26.0889V1.73926H29.5674V3.47852ZM26.0889 1.73926H13.9141V0H26.0889V1.73926Z" fill="black"/>
  <path d="M12.5846 13.4219H11.293V14.8385H12.5846V13.4219Z" fill="black"/>
  <path d="M28.0821 12H12.582V13.4167H28.0821V12Z" fill="black"/>
  <path d="M29.3737 13.4219H28.082V14.8385H29.3737V13.4219Z" fill="black"/>
  <path d="M13.8737 14.8281H12.582V16.2448H13.8737V14.8281Z" fill="black"/>
  <path d="M15.1667 16.25H13.875V17.6667H15.1667V16.25Z" fill="black"/>
  <path d="M16.4596 17.6719H15.168V19.0885H16.4596V17.6719Z" fill="black"/>
  <path d="M17.7487 19.0781H16.457V20.4948H17.7487V19.0781Z" fill="black"/>
  <path d="M22.9167 20.5H17.75V21.9167H22.9167V20.5Z" fill="black"/>
  <path d="M28.0846 14.8281H26.793V16.2448H28.0846V14.8281Z" fill="black"/>
  <path d="M26.7917 16.25H25.5V17.6667H26.7917V16.25Z" fill="black"/>
  <path d="M25.4987 17.6719H24.207V19.0885H25.4987V17.6719Z" fill="black"/>
  <path d="M24.2096 19.0781H22.918V20.4948H24.2096V19.0781Z" fill="black"/>
  <path d="M11.2917 14.8281H10V26.1615H11.2917V14.8281Z" fill="black"/>
  <path d="M30.6667 14.8281H29.375V26.1615H30.6667V14.8281Z" fill="black"/>
  <path d="M29.3737 26.1719H28.082V27.5885H29.3737V26.1719Z" fill="black"/>
  <path d="M28.0821 27.5781H12.582V28.9948H28.0821V27.5781Z" fill="black"/>
  <path d="M12.5846 26.1719H11.293V27.5885H12.5846V26.1719Z" fill="black"/>
</svg>