<svg xmlns="http://www.w3.org/2000/svg" width="40" height="40" viewBox="0 0 40 40" fill="none">
  <path d="M25.8154 39.585H13.7686V37.8633H25.8154V39.585ZM13.7686 37.8633H10.3262V36.1426H13.7686V37.8633ZM29.2578 37.8633H25.8154V36.1426H29.2578V37.8633ZM10.3262 36.1426H6.88379V34.4219H10.3262V36.1426ZM32.7002 36.1426H29.2578V34.4219H32.7002V36.1426ZM6.88379 34.4219H5.16309V32.7002H6.88379V34.4219ZM34.4209 34.4219H32.7002V32.7002H34.4209V34.4219ZM5.16309 32.7002H3.44238V29.2578H5.16309V32.7002ZM36.1416 32.7002H34.4209V29.2578H36.1416V32.7002ZM3.44238 29.2578H1.7207V25.8164H3.44238V29.2578ZM37.8633 29.2578H36.1416V25.8164H37.8633V29.2578ZM1.7207 25.8164H0V13.7686H1.7207V25.8164ZM39.584 25.8164H37.8633V13.7686H39.584V25.8164ZM3.44238 13.7686H1.7207V10.3262H3.44238V13.7686ZM37.8633 13.7686H36.1416V10.3262H37.8633V13.7686ZM5.16309 10.3262H3.44238V6.88379H5.16309V10.3262ZM36.1416 10.3262H34.4209V6.88379H36.1416V10.3262ZM6.88379 6.88379H5.16309V5.16309H6.88379V6.88379ZM34.4209 6.88379H32.7002V5.16309H34.4209V6.88379ZM10.3262 5.16309H6.88379V3.44141H10.3262V5.16309ZM32.7002 5.16309H29.2578V3.44141H32.7002V5.16309ZM13.7686 3.44141H10.3262V1.7207H13.7686V3.44141ZM29.2578 3.44141H25.8154V1.7207H29.2578V3.44141ZM25.8154 1.7207H13.7686V0H25.8154V1.7207Z" fill="black"/>
  <path d="M23.569 28.7014H15.0225V26.992H23.569V28.7014ZM15.0225 26.992H13.3132V25.2826H15.0225V26.992ZM25.2784 26.992H23.569V25.2826H25.2784V26.992ZM13.3132 25.2826H11.6038V23.5733H13.3132V25.2826ZM26.9877 25.2826H25.2784V23.5733H26.9877V25.2826ZM11.6038 23.5733H9.89453V15.0265H11.6038V23.5733ZM21.0051 16.7359H17.5864V18.4452H21.0051V20.1546H17.5864V21.8639H21.0051V23.5733H15.8771V15.0265H21.0051V16.7359ZM28.697 23.5733H26.9877V15.0265H28.697V23.5733ZM22.7144 21.8639H21.0051V20.1546H22.7144V21.8639ZM22.7144 18.4452H21.0051V16.7359H22.7144V18.4452ZM13.3132 15.0265H11.6038V13.3172H13.3132V15.0265ZM26.9877 15.0265H25.2784V13.3172H26.9877V15.0265ZM15.0225 13.3172H13.3132V11.6078H15.0225V13.3172ZM25.2784 13.3172H23.569V11.6078H25.2784V13.3172ZM23.569 11.6078H15.0225V9.89844H23.569V11.6078Z" fill="black"/>
</svg>