<svg xmlns="http://www.w3.org/2000/svg" width="40" height="40" viewBox="0 0 40 40" fill="none">
  <path d="M26.0869 40H13.9131V38.2607H26.0869V40ZM13.9131 38.2607H10.4346V36.5215H13.9131V38.2607ZM29.5654 38.2607H26.0869V36.5215H29.5654V38.2607ZM10.4346 36.5215H6.95605V34.7822H10.4346V36.5215ZM33.0439 36.5215H29.5654V34.7822H33.0439V36.5215ZM6.95605 34.7822H5.21777V33.0439H6.95605V34.7822ZM34.7822 34.7822H33.0439V33.0439H34.7822V34.7822ZM5.21777 33.0439H3.47852V29.5654H5.21777V33.0439ZM36.5215 33.0439H34.7822V29.5654H36.5215V33.0439ZM3.47852 29.5654H1.73926V26.0869H3.47852V29.5654ZM38.2607 29.5654H36.5215V26.0869H38.2607V29.5654ZM1.73926 26.0869H0V13.9131H1.73926V26.0869ZM40 26.0869H38.2607V13.9131H40V26.0869ZM3.47852 13.9131H1.73926V10.4346H3.47852V13.9131ZM38.2607 13.9131H36.5215V10.4346H38.2607V13.9131ZM5.21777 10.4346H3.47852V6.95605H5.21777V10.4346ZM36.5215 10.4346H34.7822V6.95605H36.5215V10.4346ZM6.95605 6.95605H5.21777V5.21777H6.95605V6.95605ZM34.7822 6.95605H33.0439V5.21777H34.7822V6.95605ZM10.4346 5.21777H6.95605V3.47852H10.4346V5.21777ZM33.0439 5.21777H29.5654V3.47852H33.0439V5.21777ZM13.9131 3.47852H10.4346V1.73926H13.9131V3.47852ZM29.5654 3.47852H26.0869V1.73926H29.5654V3.47852ZM26.0869 1.73926H13.9131V0H26.0869V1.73926Z" fill="currentColor"/>
  <rect x="15.6523" y="8.69531" width="8.69565" height="1.73913" fill="currentColor"/>
  <rect x="15.6523" y="29.5625" width="8.69565" height="1.73913" fill="currentColor"/>
  <rect x="24.3477" y="10.4375" width="3.47826" height="1.73913" fill="currentColor"/>
  <rect x="12.1738" y="10.4375" width="15.6522" height="19.1304" fill="currentColor"/>
  <rect x="12.1738" y="27.8281" width="3.47826" height="1.73913" fill="currentColor"/>
  <rect x="24.3477" y="27.8281" width="3.47826" height="1.73913" fill="currentColor"/>
  <rect x="27.8262" y="12.1719" width="1.73913" height="3.47826" fill="currentColor"/>
  <rect x="10.4355" y="12.1719" width="1.73913" height="3.47826" fill="currentColor"/>
  <rect x="10.4355" y="24.3516" width="1.73913" height="3.47826" fill="currentColor"/>
  <rect x="10.4355" y="12.1719" width="19.1304" height="15.6522" fill="currentColor"/>
  <rect x="8.69531" y="15.6484" width="1.73913" height="8.69565" fill="currentColor"/>
  <rect x="14.7832" y="14.7891" width="1.73913" height="10.4348" fill="white"/>
  <rect x="16.5215" y="14.7891" width="6.95652" height="1.73913" fill="white"/>
  <rect x="23.4785" y="16.5234" width="1.73913" height="2.6087" fill="white"/>
  <rect x="23.4785" y="20.875" width="1.73913" height="2.6087" fill="white"/>
  <rect x="16.5215" y="25.2188" width="1.73913" height="1.73913" fill="white"/>
  <rect x="16.5215" y="13.0469" width="1.73913" height="1.73913" fill="white"/>
  <rect x="20.8691" y="25.2188" width="1.73913" height="1.73913" fill="white"/>
  <rect x="20.8691" y="13.0469" width="1.73913" height="1.73913" fill="white"/>
  <rect x="16.5215" y="19.1328" width="6.95652" height="1.73913" fill="white"/>
  <rect x="16.5215" y="23.4844" width="6.95652" height="1.73913" fill="white"/>
  <rect x="29.5645" y="15.6484" width="1.73913" height="8.69565" fill="currentColor"/>
</svg>