<svg xmlns="http://www.w3.org/2000/svg" width="40" height="40" viewBox="0 0 40 40" fill="none">
  <path d="M26.0869 40H13.9131V38.2607H26.0869V40ZM13.9131 38.2607H10.4346V36.5215H13.9131V38.2607ZM29.5654 38.2607H26.0869V36.5215H29.5654V38.2607ZM10.4346 36.5215H6.95605V34.7822H10.4346V36.5215ZM33.0439 36.5215H29.5654V34.7822H33.0439V36.5215ZM6.95605 34.7822H5.21777V33.0439H6.95605V34.7822ZM34.7822 34.7822H33.0439V33.0439H34.7822V34.7822ZM5.21777 33.0439H3.47852V29.5654H5.21777V33.0439ZM36.5215 33.0439H34.7822V29.5654H36.5215V33.0439ZM3.47852 29.5654H1.73926V26.0869H3.47852V29.5654ZM38.2607 29.5654H36.5215V26.0869H38.2607V29.5654ZM1.73926 26.0869H0V13.9131H1.73926V26.0869ZM40 26.0869H38.2607V13.9131H40V26.0869ZM3.47852 13.9131H1.73926V10.4346H3.47852V13.9131ZM38.2607 13.9131H36.5215V10.4346H38.2607V13.9131ZM5.21777 10.4346H3.47852V6.95605H5.21777V10.4346ZM36.5215 10.4346H34.7822V6.95605H36.5215V10.4346ZM6.95605 6.95605H5.21777V5.21777H6.95605V6.95605ZM34.7822 6.95605H33.0439V5.21777H34.7822V6.95605ZM10.4346 5.21777H6.95605V3.47852H10.4346V5.21777ZM33.0439 5.21777H29.5654V3.47852H33.0439V5.21777ZM13.9131 3.47852H10.4346V1.73926H13.9131V3.47852ZM29.5654 3.47852H26.0869V1.73926H29.5654V3.47852ZM26.0869 1.73926H13.9131V0H26.0869V1.73926Z" fill="currentColor"/>
  <rect x="11.7402" y="28.1797" width="1.74346" height="1.74394" fill="currentColor"/>
  <rect x="11.7402" y="29.9219" width="1.74346" height="1.74394" fill="currentColor"/>
  <rect x="13.4824" y="29.9219" width="1.74346" height="1.74394" fill="currentColor"/>
  <rect x="15.2285" y="29.9219" width="1.74346" height="1.74394" fill="currentColor"/>
  <rect x="15.2285" y="28.1797" width="1.74346" height="1.74394" fill="currentColor"/>
  <rect x="27.4336" y="29.9219" width="1.74346" height="1.74394" fill="currentColor"/>
  <rect x="25.6875" y="29.9219" width="1.74346" height="1.74394" fill="currentColor"/>
  <rect x="23.9453" y="29.9219" width="1.74346" height="1.74394" fill="currentColor"/>
  <rect x="23.9453" y="28.1797" width="1.74346" height="1.74394" fill="currentColor"/>
  <rect x="27.4336" y="28.1797" width="1.74346" height="1.74394" fill="currentColor"/>
  <rect x="11.7402" y="26.4219" width="1.74346" height="1.74394" fill="currentColor"/>
  <rect x="11.7402" y="24.6953" width="1.74346" height="1.74394" fill="currentColor"/>
  <rect x="11.7402" y="22.9531" width="1.74346" height="1.74394" fill="currentColor"/>
  <rect x="11.7402" y="21.2031" width="1.74346" height="1.74394" fill="currentColor"/>
  <rect x="11.7402" y="19.4609" width="1.74346" height="1.74394" fill="currentColor"/>
  <rect x="11.7402" y="17.7266" width="1.74346" height="1.74394" fill="currentColor"/>
  <rect x="15.2285" y="26.4219" width="1.74346" height="1.74394" fill="currentColor"/>
  <rect x="15.2285" y="24.6953" width="1.74346" height="1.74394" fill="currentColor"/>
  <rect x="15.2285" y="22.9531" width="1.74346" height="1.74394" fill="currentColor"/>
  <rect x="15.2285" y="21.2031" width="1.74346" height="1.74394" fill="currentColor"/>
  <rect x="15.2285" y="19.4609" width="1.74346" height="1.74394" fill="currentColor"/>
  <rect x="15.2285" y="17.7266" width="1.74346" height="1.74394" fill="currentColor"/>
  <rect x="13.4824" y="15.9688" width="1.74346" height="1.74394" fill="currentColor"/>
  <rect x="13.4824" y="14.2344" width="1.74346" height="1.74394" fill="currentColor"/>
  <rect x="16.9707" y="10.7656" width="1.74346" height="1.74394" fill="currentColor"/>
  <rect x="16.9707" y="12.4922" width="1.74346" height="1.74394" fill="currentColor"/>
  <rect x="10" y="19.4609" width="1.74346" height="1.74394" fill="currentColor"/>
  <rect x="10" y="21.2031" width="1.74346" height="1.74394" fill="currentColor"/>
  <rect x="10" y="22.9531" width="1.74346" height="1.74394" fill="currentColor"/>
  <rect x="10" y="24.6953" width="1.74346" height="1.74394" fill="currentColor"/>
  <rect x="10" y="26.4219" width="1.74346" height="1.74394" fill="currentColor"/>
  <rect x="10" y="28.1797" width="1.74346" height="1.74394" fill="currentColor"/>
  <rect x="10" y="29.9219" width="1.74346" height="1.74394" fill="currentColor"/>
  <rect x="29.1738" y="29.9219" width="1.74346" height="1.74394" fill="currentColor"/>
  <rect x="29.1738" y="28.1797" width="1.74346" height="1.74394" fill="currentColor"/>
  <rect x="29.1738" y="26.4219" width="1.74346" height="1.74394" fill="currentColor"/>
  <rect x="29.1738" y="24.6953" width="1.74346" height="1.74394" fill="currentColor"/>
  <rect x="29.1738" y="22.9531" width="1.74346" height="1.74394" fill="currentColor"/>
  <rect x="29.1738" y="21.2031" width="1.74346" height="1.74394" fill="currentColor"/>
  <rect x="29.1738" y="19.4609" width="1.74346" height="1.74394" fill="currentColor"/>
  <rect x="16.9707" y="14.2344" width="1.74346" height="1.74394" fill="currentColor"/>
  <rect x="18.7109" y="14.2344" width="1.74346" height="1.74394" fill="currentColor"/>
  <rect x="20.457" y="14.2344" width="1.74346" height="1.74394" fill="currentColor"/>
  <rect x="22.2051" y="14.2344" width="1.74346" height="1.74394" fill="currentColor"/>
  <rect x="23.9453" y="26.4219" width="1.74346" height="1.74394" fill="currentColor"/>
  <rect x="23.9453" y="24.6953" width="1.74346" height="1.74394" fill="currentColor"/>
  <rect x="23.9453" y="22.9531" width="1.74346" height="1.74394" fill="currentColor"/>
  <rect x="23.9453" y="21.2031" width="1.74346" height="1.74394" fill="currentColor"/>
  <rect x="23.9453" y="19.4609" width="1.74346" height="1.74394" fill="currentColor"/>
  <rect x="23.9453" y="17.7266" width="1.74346" height="1.74394" fill="currentColor"/>
  <rect x="23.9453" y="15.9688" width="1.74346" height="1.74394" fill="currentColor"/>
  <rect x="25.6875" y="17.7266" width="1.74346" height="1.74394" fill="currentColor"/>
  <rect x="27.4336" y="19.4609" width="1.74346" height="1.74394" fill="currentColor"/>
  <rect x="27.4336" y="21.2031" width="1.74346" height="1.74394" fill="currentColor"/>
  <rect x="27.4336" y="22.9531" width="1.74346" height="1.74394" fill="currentColor"/>
  <rect x="27.4336" y="24.6953" width="1.74346" height="1.74394" fill="currentColor"/>
  <rect x="27.4336" y="26.4219" width="1.74346" height="1.74394" fill="currentColor"/>
  <rect x="11.7402" y="15.9688" width="1.74346" height="1.74394" fill="currentColor"/>
  <rect x="10" y="17.7266" width="1.74346" height="1.74394" fill="currentColor"/>
  <rect x="23.9453" y="14.2344" width="1.74346" height="1.74394" fill="currentColor"/>
  <rect x="25.6875" y="15.9688" width="1.74346" height="1.74394" fill="currentColor"/>
  <rect x="27.4336" y="17.7266" width="1.74346" height="1.74394" fill="currentColor"/>
  <rect x="13.4824" y="17.7266" width="1.74346" height="1.74394" fill="currentColor"/>
  <rect x="13.4824" y="21.2031" width="1.74346" height="1.74394" fill="currentColor"/>
  <rect x="13.4824" y="22.9531" width="1.74346" height="1.74394" fill="currentColor"/>
  <rect x="13.4824" y="24.6953" width="1.74346" height="1.74394" fill="currentColor"/>
  <rect x="13.4824" y="26.4219" width="1.74346" height="1.74394" fill="currentColor"/>
  <rect x="13.4824" y="28.1797" width="1.74346" height="1.74394" fill="currentColor"/>
  <rect x="25.6875" y="19.4609" width="1.74346" height="1.74394" fill="currentColor"/>
  <rect x="25.6875" y="21.2031" width="1.74346" height="1.74394" fill="currentColor"/>
  <rect x="25.6875" y="22.9531" width="1.74346" height="1.74394" fill="currentColor"/>
  <rect x="25.6875" y="24.6953" width="1.74346" height="1.74394" fill="currentColor"/>
  <rect x="25.6875" y="26.4219" width="1.74346" height="1.74394" fill="currentColor"/>
  <rect x="25.6875" y="28.1797" width="1.74346" height="1.74394" fill="currentColor"/>
  <rect x="20.457" y="12.4922" width="1.74346" height="1.74394" fill="currentColor"/>
  <rect x="18.7109" y="12.4922" width="1.74346" height="1.74394" fill="currentColor"/>
  <rect x="18.7109" y="10.7656" width="1.74346" height="1.74394" fill="currentColor"/>
  <rect x="15.2285" y="12.4922" width="1.74346" height="1.74394" fill="currentColor"/>
  <rect x="15.2285" y="14.2344" width="1.74346" height="1.74394" fill="currentColor"/>
  <rect x="15.2285" y="15.9688" width="1.74346" height="1.74394" fill="currentColor"/>
  <rect x="20.457" y="10.7656" width="1.74346" height="1.74394" fill="currentColor"/>
  <rect x="22.2051" y="10.7656" width="1.74346" height="1.74394" fill="currentColor"/>
  <rect x="22.2051" y="12.4922" width="1.74346" height="1.74394" fill="currentColor"/>
  <rect x="23.9453" y="12.4922" width="1.74346" height="1.74394" fill="currentColor"/>
  <rect x="25.6875" y="14.2344" width="1.74346" height="1.74394" fill="currentColor"/>
  <rect x="27.4336" y="15.9688" width="1.74346" height="1.74394" fill="currentColor"/>
  <rect x="29.1738" y="17.7266" width="1.74346" height="1.74394" fill="currentColor"/>
  <rect x="16.9707" y="15.9688" width="1.74346" height="1.74394" fill="currentColor"/>
  <rect x="22.2051" y="15.9688" width="1.74346" height="1.74394" fill="currentColor"/>
  <rect x="11.7402" y="14.2344" width="1.74346" height="1.74394" fill="currentColor"/>
  <rect x="11.7402" y="12.4922" width="1.74346" height="1.74394" fill="currentColor"/>
  <rect x="11.7402" y="10.7656" width="1.74346" height="1.74394" fill="currentColor"/>
  <rect x="13.4824" y="10.7656" width="1.74346" height="1.74394" fill="currentColor"/>
  <rect x="13.4824" y="12.4922" width="1.74346" height="1.74394" fill="currentColor"/>
  <rect x="18.7109" y="9" width="1.74346" height="1.74394" fill="currentColor"/>
  <rect x="20.457" y="9" width="1.74346" height="1.74394" fill="currentColor"/>
  <rect x="16.9707" y="21.2031" width="1.74346" height="1.74394" fill="currentColor"/>
  <rect x="18.7109" y="19.4609" width="1.74346" height="1.74394" fill="currentColor"/>
  <rect x="20.457" y="19.4609" width="1.74346" height="1.74394" fill="currentColor"/>
  <rect x="22.2051" y="21.2031" width="1.74346" height="1.74394" fill="currentColor"/>
  <rect x="16.9707" y="19.4609" width="1.74346" height="1.74394" fill="currentColor"/>
  <rect x="16.9707" y="17.7266" width="1.74346" height="1.74394" fill="currentColor"/>
  <rect x="18.7109" y="15.9688" width="1.74346" height="1.74394" fill="currentColor"/>
  <rect x="20.457" y="15.9688" width="1.74346" height="1.74394" fill="currentColor"/>
  <rect x="22.2051" y="17.7266" width="1.74346" height="1.74394" fill="currentColor"/>
  <rect x="22.2051" y="19.4609" width="1.74346" height="1.74394" fill="currentColor"/>
  <rect x="20.457" y="17.7266" width="1.74346" height="1.74394" fill="currentColor"/>
  <rect x="18.7109" y="17.7266" width="1.74346" height="1.74394" fill="currentColor"/>
  <rect x="13.4824" y="19.4609" width="1.74346" height="1.74394" fill="currentColor"/>
</svg>