<svg xmlns="http://www.w3.org/2000/svg" width="40" height="40" viewBox="0 0 40 40" fill="none">
  <path d="M26.0869 40H13.9131V38.2607H26.0869V40ZM13.9131 38.2607H10.4346V36.5215H13.9131V38.2607ZM29.5654 38.2607H26.0869V36.5215H29.5654V38.2607ZM10.4346 36.5215H6.95605V34.7822H10.4346V36.5215ZM33.0439 36.5215H29.5654V34.7822H33.0439V36.5215ZM6.95605 34.7822H5.21777V33.0439H6.95605V34.7822ZM34.7822 34.7822H33.0439V33.0439H34.7822V34.7822ZM5.21777 33.0439H3.47852V29.5654H5.21777V33.0439ZM36.5215 33.0439H34.7822V29.5654H36.5215V33.0439ZM3.47852 29.5654H1.73926V26.0869H3.47852V29.5654ZM38.2607 29.5654H36.5215V26.0869H38.2607V29.5654ZM1.73926 26.0869H0V13.9131H1.73926V26.0869ZM40 26.0869H38.2607V13.9131H40V26.0869ZM3.47852 13.9131H1.73926V10.4346H3.47852V13.9131ZM38.2607 13.9131H36.5215V10.4346H38.2607V13.9131ZM5.21777 10.4346H3.47852V6.95605H5.21777V10.4346ZM36.5215 10.4346H34.7822V6.95605H36.5215V10.4346ZM6.95605 6.95605H5.21777V5.21777H6.95605V6.95605ZM34.7822 6.95605H33.0439V5.21777H34.7822V6.95605ZM10.4346 5.21777H6.95605V3.47852H10.4346V5.21777ZM33.0439 5.21777H29.5654V3.47852H33.0439V5.21777ZM13.9131 3.47852H10.4346V1.73926H13.9131V3.47852ZM29.5654 3.47852H26.0869V1.73926H29.5654V3.47852ZM26.0869 1.73926H13.9131V0H26.0869V1.73926Z" fill="currentColor"/>
  <path d="M21.9967 8H18.9961V9.50031H21.9967V8Z" fill="currentColor"/>
  <path d="M19.0003 9.50781H17.5V11.0081H19.0003V9.50781Z" fill="currentColor"/>
  <path d="M20.4964 9.50781H18.9961V11.0081H20.4964V9.50781Z" fill="currentColor"/>
  <path d="M20.4964 11.0078H18.9961V12.5081H20.4964V11.0078Z" fill="currentColor"/>
  <path d="M20.4964 12.5H18.9961V14.0003H20.4964V12.5Z" fill="currentColor"/>
  <path d="M20.4964 17.0078H18.9961V18.5081H20.4964V17.0078Z" fill="currentColor"/>
  <path d="M20.4964 18.5H18.9961V20.0003H20.4964V18.5Z" fill="currentColor"/>
  <path d="M20.4964 21.5078H18.9961V23.0081H20.4964V21.5078Z" fill="currentColor"/>
  <path d="M20.4964 23.0078H18.9961V24.5081H20.4964V23.0078Z" fill="currentColor"/>
  <path d="M20.4964 14.0078H18.9961V15.5081H20.4964V14.0078Z" fill="currentColor"/>
  <path d="M20.4964 15.5078H18.9961V17.0081H20.4964V15.5078Z" fill="currentColor"/>
  <path d="M20.4964 20.0156H18.9961V21.5159H20.4964V20.0156Z" fill="currentColor"/>
  <path d="M19.0003 11.0078H17.5V12.5081H19.0003V11.0078Z" fill="currentColor"/>
  <path d="M19.0003 12.5H17.5V14.0003H19.0003V12.5Z" fill="currentColor"/>
  <path d="M17.5003 12.5H16V14.0003H17.5003V12.5Z" fill="currentColor"/>
  <path d="M19.0003 17.0078H17.5V18.5081H19.0003V17.0078Z" fill="currentColor"/>
  <path d="M17.5003 17.0078H16V18.5081H17.5003V17.0078Z" fill="#E7E7E7"/>
  <path d="M16.0042 17.0078H14.5039V18.5081H16.0042V17.0078Z" fill="currentColor"/>
  <path d="M14.4964 17.0078H12.9961V18.5081H14.4964V17.0078Z" fill="currentColor"/>
  <path d="M19.0003 18.5H17.5V20.0003H19.0003V18.5Z" fill="currentColor"/>
  <path d="M17.5003 18.5H16V20.0003H17.5003V18.5Z" fill="#E7E7E7"/>
  <path d="M16.0042 18.5H14.5039V20.0003H16.0042V18.5Z" fill="currentColor"/>
  <path d="M14.4964 18.5H12.9961V20.0003H14.4964V18.5Z" fill="currentColor"/>
  <path d="M19.0003 21.5078H17.5V23.0081H19.0003V21.5078Z" fill="currentColor"/>
  <path d="M17.5003 21.5078H16V23.0081H17.5003V21.5078Z" fill="currentColor"/>
  <path d="M16.0042 21.5078H14.5039V23.0081H16.0042V21.5078Z" fill="currentColor"/>
  <path d="M14.4964 21.5078H12.9961V23.0081H14.4964V21.5078Z" fill="currentColor"/>
  <path d="M13.0081 21.5078H11.5078V23.0081H13.0081V21.5078Z" fill="currentColor"/>
  <path d="M19.0003 23.0078H17.5V24.5081H19.0003V23.0078Z" fill="currentColor"/>
  <path d="M17.5003 23.0078H16V24.5081H17.5003V23.0078Z" fill="currentColor"/>
  <path d="M16.0042 23.0078H14.5039V24.5081H16.0042V23.0078Z" fill="currentColor"/>
  <path d="M14.4964 23.0078H12.9961V24.5081H14.4964V23.0078Z" fill="currentColor"/>
  <path d="M19.0003 14.0078H17.5V15.5081H19.0003V14.0078Z" fill="#E7E7E7"/>
  <path d="M17.5003 14.0078H16V15.5081H17.5003V14.0078Z" fill="currentColor"/>
  <path d="M16.0042 14.0078H14.5039V15.5081H16.0042V14.0078Z" fill="currentColor"/>
  <path d="M14.4964 14.0078H12.9961V15.5081H14.4964V14.0078Z" fill="currentColor"/>
  <path d="M19.0003 15.5078H17.5V17.0081H19.0003V15.5078Z" fill="currentColor"/>
  <path d="M17.5003 15.5078H16V17.0081H17.5003V15.5078Z" fill="#E7E7E7"/>
  <path d="M16.0042 15.5078H14.5039V17.0081H16.0042V15.5078Z" fill="currentColor"/>
  <path d="M14.4964 15.5078H12.9961V17.0081H14.4964V15.5078Z" fill="currentColor"/>
  <path d="M19.0003 20.0156H17.5V21.5159H19.0003V20.0156Z" fill="currentColor"/>
  <path d="M17.5003 20.0156H16V21.5159H17.5003V20.0156Z" fill="currentColor"/>
  <path d="M16.0042 20.0156H14.5039V21.5159H16.0042V20.0156Z" fill="currentColor"/>
  <path d="M14.4964 20.0156H12.9961V21.5159H14.4964V20.0156Z" fill="currentColor"/>
  <path d="M22.0042 9.50781H20.5039V11.0081H22.0042V9.50781Z" fill="currentColor"/>
  <path d="M22.0042 11.0078H20.5039V12.5081H22.0042V11.0078Z" fill="currentColor"/>
  <path d="M22.0042 12.5H20.5039V14.0003H22.0042V12.5Z" fill="currentColor"/>
  <path d="M22.0042 17.0078H20.5039V18.5081H22.0042V17.0078Z" fill="currentColor"/>
  <path d="M22.0042 18.5H20.5039V20.0003H22.0042V18.5Z" fill="currentColor"/>
  <path d="M22.0042 21.5078H20.5039V23.0081H22.0042V21.5078Z" fill="currentColor"/>
  <path d="M22.0042 23.0078H20.5039V24.5081H22.0042V23.0078Z" fill="currentColor"/>
  <path d="M22.0042 14.0078H20.5039V15.5081H22.0042V14.0078Z" fill="currentColor"/>
  <path d="M22.0042 15.5078H20.5039V17.0081H22.0042V15.5078Z" fill="currentColor"/>
  <path d="M22.0042 20.0156H20.5039V21.5159H22.0042V20.0156Z" fill="currentColor"/>
  <path d="M23.5003 11.0078H22V12.5081H23.5003V11.0078Z" fill="currentColor"/>
  <path d="M23.5003 12.5H22V14.0003H23.5003V12.5Z" fill="currentColor"/>
  <path d="M25.0003 12.5H23.5V14.0003H25.0003V12.5Z" fill="currentColor"/>
  <path d="M23.5003 17.0078H22V18.5081H23.5003V17.0078Z" fill="currentColor"/>
  <path d="M25.0003 17.0078H23.5V18.5081H25.0003V17.0078Z" fill="currentColor"/>
  <path d="M26.5042 17.0078H25.0039V18.5081H26.5042V17.0078Z" fill="currentColor"/>
  <path d="M23.5003 18.5H22V20.0003H23.5003V18.5Z" fill="currentColor"/>
  <path d="M25.0003 18.5H23.5V20.0003H25.0003V18.5Z" fill="currentColor"/>
  <path d="M26.5042 18.5H25.0039V20.0003H26.5042V18.5Z" fill="currentColor"/>
  <path d="M23.5003 21.5078H22V23.0081H23.5003V21.5078Z" fill="currentColor"/>
  <path d="M25.0003 21.5078H23.5V23.0081H25.0003V21.5078Z" fill="currentColor"/>
  <path d="M26.5042 21.5078H25.0039V23.0081H26.5042V21.5078Z" fill="currentColor"/>
  <path d="M27.9964 21.5078H26.4961V23.0081H27.9964V21.5078Z" fill="currentColor"/>
  <path d="M29.5003 21.5078H28V23.0081H29.5003V21.5078Z" fill="currentColor"/>
  <path d="M23.5003 23.0078H22V24.5081H23.5003V23.0078Z" fill="currentColor"/>
  <path d="M25.0003 23.0078H23.5V24.5081H25.0003V23.0078Z" fill="currentColor"/>
  <path d="M26.5042 23.0078H25.0039V24.5081H26.5042V23.0078Z" fill="currentColor"/>
  <path d="M27.9964 23.0078H26.4961V24.5081H27.9964V23.0078Z" fill="currentColor"/>
  <path d="M29.5003 23.0078H28V24.5081H29.5003V23.0078Z" fill="currentColor"/>
  <path d="M23.5003 14.0078H22V15.5081H23.5003V14.0078Z" fill="currentColor"/>
  <path d="M25.0003 14.0078H23.5V15.5081H25.0003V14.0078Z" fill="currentColor"/>
  <path d="M26.5042 14.0078H25.0039V15.5081H26.5042V14.0078Z" fill="currentColor"/>
  <path d="M23.5003 15.5078H22V17.0081H23.5003V15.5078Z" fill="currentColor"/>
  <path d="M25.0003 15.5078H23.5V17.0081H25.0003V15.5078Z" fill="currentColor"/>
  <path d="M26.5042 15.5078H25.0039V17.0081H26.5042V15.5078Z" fill="currentColor"/>
  <path d="M23.5003 20.0156H22V21.5159H23.5003V20.0156Z" fill="currentColor"/>
  <path d="M25.0003 20.0156H23.5V21.5159H25.0003V20.0156Z" fill="currentColor"/>
  <path d="M26.5042 20.0156H25.0039V21.5159H26.5042V20.0156Z" fill="currentColor"/>
  <path d="M27.9964 20.0156H26.4961V21.5159H27.9964V20.0156Z" fill="currentColor"/>
  <path d="M29.5003 20.0156H28V21.5159H29.5003V20.0156Z" fill="currentColor"/>
  <path d="M17.5003 11.0078H16V12.5081H17.5003V11.0078Z" fill="currentColor"/>
  <path d="M16.0042 12.5H14.5039V14.0003H16.0042V12.5Z" fill="currentColor"/>
  <path d="M23.5003 9.50781H22V11.0081H23.5003V9.50781Z" fill="currentColor"/>
  <path d="M25.0003 11.0078H23.5V12.5081H25.0003V11.0078Z" fill="currentColor"/>
  <path d="M26.5042 12.5H25.0039V14.0003H26.5042V12.5Z" fill="currentColor"/>
  <path d="M27.9964 14.0078H26.4961V20.009H27.9964V14.0078Z" fill="currentColor"/>
  <path d="M14.4964 18.5087V14.0078H12.9961V18.5087V20.009H14.4964V18.5087Z" fill="currentColor"/>
  <path d="M13.0081 20.0156H11.5078V21.5159H13.0081V20.0156Z" fill="currentColor"/>
  <path d="M29.5003 20.0156H28V21.5159H29.5003V20.0156Z" fill="currentColor"/>
  <path d="M11.5003 21.5078H10V23.0081H11.5003V21.5078Z" fill="currentColor"/>
  <path d="M31.0003 21.5078H29.5V23.0081H31.0003V21.5078Z" fill="currentColor"/>
  <path d="M13.0081 23.0078H11.5078V24.5081H13.0081V23.0078Z" fill="currentColor"/>
  <path d="M29.5003 23.0078H28V24.5081H29.5003V23.0078Z" fill="currentColor"/>
  <path d="M12.9961 26.0159H18.2472V30.5169H19.7475H21.2478H22.7481V26.0159H27.9992V24.5156H12.9961V26.0159Z" fill="currentColor"/>
  <path d="M21.2542 30.5156H19.7539V32.0159H21.2542V30.5156Z" fill="currentColor"/>
</svg>