<svg xmlns="http://www.w3.org/2000/svg" width="40" height="40" viewBox="0 0 40 40" fill="none">
  <path d="M26.0869 40H13.9131V38.2607H26.0869V40ZM13.9131 38.2607H10.4346V36.5215H13.9131V38.2607ZM29.5654 38.2607H26.0869V36.5215H29.5654V38.2607ZM10.4346 36.5215H6.95605V34.7822H10.4346V36.5215ZM33.0439 36.5215H29.5654V34.7822H33.0439V36.5215ZM6.95605 34.7822H5.21777V33.0439H6.95605V34.7822ZM34.7822 34.7822H33.0439V33.0439H34.7822V34.7822ZM5.21777 33.0439H3.47852V29.5654H5.21777V33.0439ZM36.5215 33.0439H34.7822V29.5654H36.5215V33.0439ZM3.47852 29.5654H1.73926V26.0869H3.47852V29.5654ZM38.2607 29.5654H36.5215V26.0869H38.2607V29.5654ZM1.73926 26.0869H0V13.9131H1.73926V26.0869ZM40 26.0869H38.2607V13.9131H40V26.0869ZM3.47852 13.9131H1.73926V10.4346H3.47852V13.9131ZM38.2607 13.9131H36.5215V10.4346H38.2607V13.9131ZM5.21777 10.4346H3.47852V6.95605H5.21777V10.4346ZM36.5215 10.4346H34.7822V6.95605H36.5215V10.4346ZM6.95605 6.95605H5.21777V5.21777H6.95605V6.95605ZM34.7822 6.95605H33.0439V5.21777H34.7822V6.95605ZM10.4346 5.21777H6.95605V3.47852H10.4346V5.21777ZM33.0439 5.21777H29.5654V3.47852H33.0439V5.21777ZM13.9131 3.47852H10.4346V1.73926H13.9131V3.47852ZM29.5654 3.47852H26.0869V1.73926H29.5654V3.47852ZM26.0869 1.73926H13.9131V0H26.0869V1.73926Z" fill="currentColor"/>
  <path d="M29.7071 13.648L28.4107 16.5004L29.7071 16.4721H31V13.648H29.7071ZM12.882 19.2939V26.3524H14.1777V19.2939H12.882ZM25.8228 19.2939V26.3524H27.1185V19.2939H25.8228ZM10.2933 16.4721V17.8825H11.5891V19.2929L12.882 19.2939L12.8819 17.8825H16.7663V19.2929H18.0592V17.8825H21.9406V19.2929H23.2335V17.8825H27.1178V19.2929H28.4107V17.8825H29.7064L29.7071 16.4721H10.2933ZM23.2342 19.2939V26.3524H24.5299V19.2939H23.2342ZM20.6475 26.3524H21.9404L21.9406 19.2929L20.6475 19.2939V26.3524ZM18.0589 26.3524H19.3518V19.2939L18.0592 19.2929L18.0589 26.3524ZM15.4703 26.3524H16.766L16.7663 19.2929L15.4703 19.2939V26.3524ZM20.6475 19.2939V26.3524H21.9404L21.9406 19.2929L20.6475 19.2939ZM15.4703 19.2939V26.3524H16.766L16.7663 19.2929L15.4703 19.2939ZM23.2342 19.2939V26.3524H24.5299V19.2939H23.2342ZM18.0592 19.2929L18.0589 26.3524H19.3518V19.2939L18.0592 19.2929ZM27.1183 12.2344L25.8228 16.4721L28.4107 16.5004L29.7071 13.648L29.7069 12.2344H27.1183ZM24.5297 10.824L23.2085 16.5004L25.8228 16.4721L27.1183 12.2344V10.824H24.5297ZM21.9411 9.41044L21.8335 16.5004H23.2085L24.5297 10.824V9.41044H21.9411ZM18.0587 8V9.41044V16.5004H21.8335L21.9401 8H18.0587ZM15.4701 9.41044V10.824L18.0587 16.5004V9.41044H15.4701ZM12.8815 10.824V12.2344L14.1777 16.4721L18.0587 16.5004L15.4701 10.824H12.8815ZM10.2929 12.2344V13.648L14.1777 16.4721L12.8815 12.2344H10.2929ZM9 13.648V16.472L10.2933 16.4721H14.1777L10.2929 13.648H9Z" fill="currentColor"/>
  <path d="M30.9995 29.1756V31.9996H9V29.1756H10.2929V27.7651H11.5886V26.3516H12.8814V27.7651H16.7658V26.3516H18.0587V27.7651H21.9411V26.3516H23.2339V27.7651H27.1183V26.3516H28.4112V27.7651H29.7069V29.1756H30.9995Z" fill="currentColor"/>
</svg>