<svg xmlns="http://www.w3.org/2000/svg" width="46" height="47" viewBox="0 0 46 47" fill="none">
  <path d="M30 46.041H16V44.041H30V46.041ZM16 44.041H12V42.041H16V44.041ZM34 44.041H30V42.041H34V44.041ZM12 42.041H8V40.041H12V42.041ZM38 42.041H34V40.041H38V42.041ZM8 40.041H6V38.041H8V40.041ZM40 40.041H38V38.041H40V40.041ZM6 38.041H4V34.041H6V38.041ZM42 38.041H40V34.041H42V38.041ZM30 27.041H32V29.041H34V35.041H32V37.041H14V35.041H12V29.041H14V31.041H16V29.041H22V27.041H16V25.041H30V27.041ZM4 34.041H2V30.041H4V34.041ZM44 34.041H42V30.041H44V34.041ZM2 30.041H0V16.041H2V30.041ZM46 30.041H44V16.041H46V30.041ZM16 29.041H14V27.041H16V29.041ZM26 11.041H28V13.041H30V19.041H28V21.041H26V23.041H20V21.041H18V19.041H16V13.041H18V17.041H20V13.041H24V11.041H20V9.04102H26V11.041ZM4 16.041H2V12.041H4V16.041ZM44 16.041H42V12.041H44V16.041ZM20 13.041H18V11.041H20V13.041ZM6 12.041H4V8.04102H6V12.041ZM42 12.041H40V8.04102H42V12.041ZM8 8.04102H6V6.04102H8V8.04102ZM40 8.04102H38V6.04102H40V8.04102ZM12 6.04102H8V4.04102H12V6.04102ZM38 6.04102H34V4.04102H38V6.04102ZM16 4.04102H12V2.04102H16V4.04102ZM34 4.04102H30V2.04102H34V4.04102ZM30 2.04102H16V0.0410156H30V2.04102Z" fill="#319999"/>
</svg>