<svg xmlns="http://www.w3.org/2000/svg" width="17" height="16" viewBox="0 0 17 16" fill="none">
  <rect x="3.93091" y="3" width="12" height="12" fill="white"/>
  <rect x="2.93091" y="4" width="1" height="10" fill="black"/>
  <rect x="15.9309" y="4" width="1" height="10" fill="black"/>
  <rect x="14.9309" y="2" width="1" height="10" transform="rotate(90 14.9309 2)" fill="black"/>
  <rect x="14.9309" y="15" width="1" height="10" transform="rotate(90 14.9309 15)" fill="black"/>
  <rect x="3.93091" y="3" width="1" height="1" fill="black"/>
  <rect x="14.9309" y="3" width="1" height="1" fill="black"/>
  <rect x="3.93091" y="14" width="1" height="1" fill="black"/>
  <rect x="14.9309" y="14" width="1" height="1" fill="black"/>
  <rect x="1.93091" y="1" width="12" height="12" fill="white"/>
  <rect x="0.930908" y="2" width="1" height="10" fill="black"/>
  <rect x="13.9309" y="2" width="1" height="10" fill="black"/>
  <rect x="12.9309" width="1" height="10" transform="rotate(90 12.9309 0)" fill="black"/>
  <rect x="12.9309" y="13" width="1" height="10" transform="rotate(90 12.9309 13)" fill="black"/>
  <rect x="1.93091" y="1" width="1" height="1" fill="black"/>
  <rect x="12.9309" y="1" width="1" height="1" fill="black"/>
  <rect x="1.93091" y="12" width="1" height="1" fill="black"/>
  <rect x="12.9309" y="12" width="1" height="1" fill="black"/>
</svg>