<svg xmlns="http://www.w3.org/2000/svg" width="50" height="50" viewBox="0 0 50 50" fill="none">
  <rect y="26.5781" width="3.31822" height="3.32126" fill="black"/>
  <rect y="29.8906" width="3.31822" height="3.32126" fill="black"/>
  <rect y="33.2188" width="3.31822" height="3.32126" fill="black"/>
  <rect y="36.5391" width="3.31822" height="3.32126" fill="black"/>
  <rect y="39.8594" width="3.31822" height="3.32126" fill="black"/>
  <rect y="43.1797" width="3.31822" height="3.32126" fill="black"/>
  <rect y="46.5" width="3.31822" height="3.32126" fill="black"/>
  <rect x="13.2734" y="46.5" width="3.31822" height="3.32126" fill="black"/>
  <rect x="36.5" y="46.5" width="3.31822" height="3.32126" fill="black"/>
  <rect x="16.5918" y="46.5" width="3.31822" height="3.32126" fill="black"/>
  <rect x="33.1816" y="46.5" width="3.31822" height="3.32126" fill="black"/>
  <rect x="19.9102" y="46.5" width="3.31822" height="3.32126" fill="black"/>
  <rect x="29.8652" y="46.5" width="3.31822" height="3.32126" fill="black"/>
  <rect x="3.31836" y="46.5" width="3.31822" height="3.32126" fill="black"/>
  <rect x="46.4531" y="46.5" width="3.31822" height="3.32126" fill="black"/>
  <rect x="6.63672" y="46.5" width="3.31822" height="3.32126" fill="black"/>
  <rect x="43.1367" y="46.5" width="3.31822" height="3.32126" fill="black"/>
  <rect x="9.95508" y="46.5" width="3.31822" height="3.32126" fill="black"/>
  <rect x="39.8184" y="46.5" width="3.31822" height="3.32126" fill="black"/>
  <rect x="23.2285" y="46.5" width="3.31822" height="3.32126" fill="black"/>
  <rect x="26.5449" y="46.5" width="3.31822" height="3.32126" fill="black"/>
  <rect x="46.4531" y="26.5781" width="3.31822" height="3.32126" fill="black"/>
  <rect x="46.4531" y="29.8906" width="3.31822" height="3.32126" fill="black"/>
  <rect x="46.4531" y="33.2188" width="3.31822" height="3.32126" fill="black"/>
  <rect x="46.4531" y="36.5391" width="3.31822" height="3.32126" fill="black"/>
  <rect x="46.4531" y="39.8594" width="3.31822" height="3.32126" fill="black"/>
  <rect x="46.4531" y="43.1797" width="3.31822" height="3.32126" fill="black"/>
  <rect width="3.31822" height="3.32126" transform="matrix(1 0 0 -1 23.2285 29.9062)" fill="black"/>
  <rect width="3.31822" height="3.32126" transform="matrix(1 0 0 -1 23.2285 26.5781)" fill="black"/>
  <rect width="3.31822" height="3.32126" transform="matrix(1 0 0 -1 23.2285 23.2578)" fill="black"/>
  <rect width="3.31822" height="3.32126" transform="matrix(1 0 0 -1 23.2285 19.9297)" fill="black"/>
  <rect width="3.31822" height="3.32126" transform="matrix(1 0 0 -1 23.2285 16.6094)" fill="black"/>
  <rect width="3.31822" height="3.32126" transform="matrix(1 0 0 -1 23.2285 13.2812)" fill="black"/>
  <rect width="3.31822" height="3.32126" transform="matrix(1 0 0 -1 23.2285 9.96875)" fill="black"/>
  <rect width="3.31822" height="3.32126" transform="matrix(1 0 0 -1 23.2285 6.64062)" fill="black"/>
  <rect width="3.31822" height="3.32126" transform="matrix(1 0 0 -1 23.2285 3.32031)" fill="black"/>
  <rect width="3.31822" height="3.32126" transform="matrix(1 0 0 -1 23.2285 39.8594)" fill="black"/>
  <rect width="3.31822" height="3.32126" transform="matrix(1 0 0 -1 19.9102 36.5391)" fill="black"/>
  <rect width="3.31822" height="3.32126" transform="matrix(1 0 0 -1 16.5918 33.2188)" fill="black"/>
  <rect width="3.31822" height="3.32126" transform="matrix(1 0 0 -1 13.2734 29.9062)" fill="black"/>
  <rect width="3.31822" height="3.32126" transform="matrix(1 0 0 -1 9.95703 26.5781)" fill="black"/>
  <rect width="3.31822" height="3.32126" transform="matrix(1 0 0 -1 6.63672 23.2578)" fill="black"/>
  <rect width="3.31822" height="3.32126" transform="matrix(1 0 0 -1 26.5469 36.5391)" fill="black"/>
  <rect width="3.31822" height="3.32126" transform="matrix(1 0 0 -1 29.8652 33.2188)" fill="black"/>
  <rect width="3.31822" height="3.32126" transform="matrix(1 0 0 -1 33.1836 29.9062)" fill="black"/>
  <rect width="3.31822" height="3.32126" transform="matrix(1 0 0 -1 36.502 26.5781)" fill="black"/>
  <rect width="3.31822" height="3.32126" transform="matrix(1 0 0 -1 39.8184 23.2578)" fill="black"/>
  <rect width="3.31822" height="3.32126" transform="matrix(1 0 0 -1 23.2285 33.2188)" fill="black"/>
  <rect width="3.31822" height="3.32126" transform="matrix(1 0 0 -1 23.2285 36.5391)" fill="black"/>
</svg>