<svg xmlns="http://www.w3.org/2000/svg" width="45" height="56" viewBox="0 0 45 56" fill="none">
  <rect x="16.5" width="4" height="4" fill="currentColor"/>
  <rect x="20.5" width="4" height="4" fill="currentColor"/>
  <rect x="24.5" width="4" height="4" fill="currentColor"/>
  <rect x="12.5" y="4" width="4" height="4" fill="currentColor"/>
  <rect x="8.5" y="8" width="4" height="4" fill="currentColor"/>
  <rect x="8.5" y="12" width="4" height="4" fill="currentColor"/>
  <rect x="8.5" y="16" width="4" height="4" fill="currentColor"/>
  <rect x="12.5" y="20" width="4" height="4" fill="currentColor"/>
  <rect x="16.5" y="24" width="4" height="4" fill="currentColor"/>
  <rect x="20.5" y="24" width="4" height="4" fill="currentColor"/>
  <rect x="24.5" y="24" width="4" height="4" fill="currentColor"/>
  <rect x="28.5" y="20" width="4" height="4" fill="currentColor"/>
  <rect x="32.5" y="16" width="4" height="4" fill="currentColor"/>
  <rect x="32.5" y="12" width="4" height="4" fill="currentColor"/>
  <rect x="32.5" y="8" width="4" height="4" fill="currentColor"/>
  <rect x="28.5" y="4" width="4" height="4" fill="currentColor"/>
  <rect x="8.5" y="32" width="4" height="4" fill="currentColor"/>
  <rect x="12.5" y="32" width="4" height="4" fill="currentColor"/>
  <rect x="16.5" y="32" width="4" height="4" fill="currentColor"/>
  <rect x="20.5" y="32" width="4" height="4" fill="currentColor"/>
  <rect x="24.5" y="32" width="4" height="4" fill="currentColor"/>
  <rect x="28.5" y="32" width="4" height="4" fill="currentColor"/>
  <rect x="32.5" y="32" width="4" height="4" fill="currentColor"/>
  <rect x="4.5" y="36" width="4" height="4" fill="currentColor"/>
  <rect x="0.5" y="40" width="4" height="4" fill="currentColor"/>
  <rect x="0.5" y="44" width="4" height="4" fill="currentColor"/>
  <rect x="0.5" y="48" width="4" height="4" fill="currentColor"/>
  <rect x="4.5" y="52" width="4" height="4" fill="currentColor"/>
  <rect x="8.5" y="52" width="4" height="4" fill="currentColor"/>
  <rect x="12.5" y="52" width="4" height="4" fill="currentColor"/>
  <rect x="16.5" y="52" width="4" height="4" fill="currentColor"/>
  <rect x="20.5" y="52" width="4" height="4" fill="currentColor"/>
  <rect x="24.5" y="52" width="4" height="4" fill="currentColor"/>
  <rect x="28.5" y="52" width="4" height="4" fill="currentColor"/>
  <rect x="32.5" y="52" width="4" height="4" fill="currentColor"/>
  <rect x="36.5" y="52" width="4" height="4" fill="currentColor"/>
  <rect x="36.5" y="36" width="4" height="4" fill="currentColor"/>
  <rect x="40.5" y="40" width="4" height="4" fill="currentColor"/>
  <rect x="40.5" y="44" width="4" height="4" fill="currentColor"/>
  <rect x="40.5" y="48" width="4" height="4" fill="currentColor"/>
  <rect x="24.5" y="4" width="4" height="4" fill="currentColor"/>
  <rect x="16.5" y="8" width="4" height="4" fill="currentColor"/>
  <rect x="20.5" y="8" width="4" height="4" fill="currentColor"/>
  <rect x="16.5" y="12" width="4" height="4" fill="currentColor"/>
  <rect x="16.5" y="16" width="4" height="4" fill="currentColor"/>
  <rect x="12.5" y="16" width="4" height="4" fill="currentColor"/>
  <rect x="16.5" y="20" width="4" height="4" fill="currentColor"/>
  <rect x="20.5" y="20" width="4" height="4" fill="currentColor"/>
  <rect x="24.5" y="20" width="4" height="4" fill="currentColor"/>
  <rect x="20.5" y="12" width="4" height="4" fill="currentColor"/>
  <rect x="20.5" y="16" width="4" height="4" fill="currentColor"/>
  <rect x="24.5" y="8" width="4" height="4" fill="currentColor"/>
  <rect x="24.5" y="12" width="4" height="4" fill="currentColor"/>
  <rect x="24.5" y="16" width="4" height="4" fill="currentColor"/>
  <rect x="28.5" y="8" width="4" height="4" fill="currentColor"/>
  <rect x="28.5" y="12" width="4" height="4" fill="currentColor"/>
  <rect x="28.5" y="16" width="4" height="4" fill="currentColor"/>
  <rect x="8.5" y="40" width="4" height="4" fill="currentColor"/>
  <rect x="4.5" y="44" width="4" height="4" fill="currentColor"/>
  <rect x="8.5" y="44" width="4" height="4" fill="currentColor"/>
  <rect x="4.5" y="48" width="4" height="4" fill="currentColor"/>
  <rect x="8.5" y="48" width="4" height="4" fill="currentColor"/>
  <rect x="12.5" y="48" width="4" height="4" fill="currentColor"/>
  <rect x="16.5" y="48" width="4" height="4" fill="currentColor"/>
  <rect x="20.5" y="48" width="4" height="4" fill="currentColor"/>
  <rect x="24.5" y="48" width="4" height="4" fill="currentColor"/>
  <rect x="28.5" y="48" width="4" height="4" fill="currentColor"/>
  <rect x="32.5" y="48" width="4" height="4" fill="currentColor"/>
  <rect x="36.5" y="48" width="4" height="4" fill="currentColor"/>
  <rect x="24.5" y="36" width="4" height="4" fill="currentColor"/>
  <rect x="28.5" y="36" width="4" height="4" fill="currentColor"/>
  <rect x="32.5" y="36" width="4" height="4" fill="currentColor"/>
  <rect x="12.5" y="40" width="4" height="4" fill="currentColor"/>
  <rect x="16.5" y="40" width="4" height="4" fill="currentColor"/>
  <rect x="20.5" y="40" width="4" height="4" fill="currentColor"/>
  <rect x="24.5" y="40" width="4" height="4" fill="currentColor"/>
  <rect x="28.5" y="40" width="4" height="4" fill="currentColor"/>
  <rect x="32.5" y="40" width="4" height="4" fill="currentColor"/>
  <rect x="36.5" y="40" width="4" height="4" fill="currentColor"/>
  <rect x="12.5" y="44" width="4" height="4" fill="currentColor"/>
  <rect x="16.5" y="44" width="4" height="4" fill="currentColor"/>
  <rect x="20.5" y="44" width="4" height="4" fill="currentColor"/>
  <rect x="24.5" y="44" width="4" height="4" fill="currentColor"/>
  <rect x="28.5" y="44" width="4" height="4" fill="currentColor"/>
  <rect x="32.5" y="44" width="4" height="4" fill="currentColor"/>
  <rect x="36.5" y="44" width="4" height="4" fill="currentColor"/>
  <rect x="20.5" y="36" width="4" height="4" fill="currentColor"/>
</svg>