<svg xmlns="http://www.w3.org/2000/svg" width="24" height="24" viewBox="0 0 24 24" fill="none">
  <path d="M2.90909 0.727272V1.45454H2.18182H1.45455V2.18182V2.90909H0.727273H0V11.6364V21.0909H0.727273H1.45455V21.8182V22.5455H2.18182H2.90909V23.2727V24H10.9091H18.1818V23.2727V22.5455H18.9091H19.6364V21.8182V21.0909H20.3636H21.0909V19.6364V18.1818H21.8182H22.5455V17.4545V16.7273H23.2727H24V14.5455V13.0909H23.2727H22.5455V11.6364H21.8182H21.0909V7.27273V2.90909H20.3636H19.6364V2.18182V1.45454H18.9091H18.1818V0.727272V-7.15256e-07H10.9091H2.90909V0.727272ZM18.1818 2.18182V2.90909H18.9091H19.6364V5.09091V7.27273H18.9091H18.1818V6.54545V5.81818H16.7273H15.2727V5.09091V4.36364H14.5455H13.8182V3.63636V2.90909H8.72727H2.90909V2.18182V1.45454H10.9091H18.1818V2.18182ZM2.90909 3.63636V4.36364H2.18182H1.45455V3.63636V2.90909H2.18182H2.90909V3.63636ZM2.90909 6.54545V7.27273H10.9091H18.1818V8V8.72727H18.9091H19.6364V10.1818V11.6364H17.4545H15.2727V13.0909H14.5455H13.8182V14.5455V16.7273H14.5455H15.2727V17.4545V18.1818H17.4545H19.6364V19.6364V21.0909H18.9091H18.1818V21.8182V22.5455H10.9091H2.90909V21.8182V21.0909H2.18182H1.45455V13.0909V5.81818H2.18182H2.90909V6.54545ZM22.5455 14.5455V16.7273H18.9091H15.2727V14.5455V13.0909H18.9091H22.5455V14.5455Z" fill="currentColor"/>
  <path d="M16 14.5455V16H17.0909H18.1818V14.5455V13.8182H17.0909H16V14.5455Z" fill="currentColor"/>
</svg>