<svg xmlns="http://www.w3.org/2000/svg" width="23" height="22" viewBox="0 0 23 22" fill="none">
  <path d="M17.3242 22H5.47754V20.3076H17.3242V22ZM5.47754 20.3066H3.78516V18.6143H5.47754V20.3066ZM19.0166 20.3066H17.3242V18.6143H19.0166V20.3066ZM3.78516 18.6152H2.09277V16.9229H3.78516V18.6152ZM20.709 18.6152H19.0166V16.9229H20.709V18.6152ZM2.09277 16.9229H0.400391V5.07617H2.09277V16.9229ZM22.4004 16.9229H20.709V5.07617H22.4004V16.9229ZM3.78418 5.07715H2.09277V3.38477H3.78418V5.07715ZM20.708 5.07715H19.0166V3.38477H20.709L20.708 5.07715ZM5.47754 3.38379H3.78516V1.69238H5.47754V3.38379ZM19.0166 1.69238V3.38379H17.3242V1.69141L19.0166 1.69238ZM17.3242 1.69238H5.47754V0H17.3242V1.69238Z" fill="black"/>
</svg>