<svg width="16" height="16" viewBox="0 0 16 16" fill="none" xmlns="http://www.w3.org/2000/svg">
<rect x="15" y="4" width="1" height="10" fill="currentColor"/>
<rect x="14" y="15" width="1" height="10" transform="rotate(90 14 15)" fill="currentColor"/>
<rect x="14" y="3" width="1" height="1" fill="currentColor"/>
<rect x="3" y="14" width="1" height="1" fill="currentColor"/>
<rect x="14" y="14" width="1" height="1" fill="currentColor"/>
<rect y="2" width="1" height="10" fill="currentColor"/>
<rect x="13" y="2" width="1" height="10" fill="currentColor"/>
<rect x="12" width="1" height="10" transform="rotate(90 12 0)" fill="currentColor"/>
<rect x="12" y="13" width="1" height="10" transform="rotate(90 12 13)" fill="currentColor"/>
<rect x="1" y="1" width="1" height="1" fill="currentColor"/>
<rect x="12" y="1" width="1" height="1" fill="currentColor"/>
<rect x="1" y="12" width="1" height="1" fill="currentColor"/>
<rect x="12" y="12" width="1" height="1" fill="currentColor"/>
</svg>
