<svg xmlns="http://www.w3.org/2000/svg" width="16" height="16" viewBox="0 0 17 17" fill="none">
  <path d="M5.81818 1.45455H4.36364H2.90909V2.90909H1.45455V4.36364V5.81818H0V7.27273V10.1818H1.45455V11.6364V13.0909H2.90909V14.5455H4.36364H5.81818V16H8.72727H10.1818V14.5455H11.6364H13.0909V13.0909H14.5455V11.6364V10.1818H16V7.27273V5.81818H14.5455V4.36364V2.90909H13.0909V1.45455H11.6364H10.1818V0H8.72727H5.81818V1.45455ZM10.1818 2.90909H11.6364H13.0909V4.36364V5.81818H14.5455V7.27273V10.1818H13.0909V11.6364V13.0909H11.6364H10.1818V14.5455H8.72727H5.81818V13.0909H4.36364H2.90909V11.6364V10.1818H1.45455V7.27273V5.81818H2.90909V4.36364V2.90909H4.36364H5.81818V1.45455H8.72727H10.1818V2.90909Z" fill="currentColor"/>
  <path d="M7.27344 8.81747V11.7266H8.72798V8.81747V7.36293H7.27344V8.81747Z" fill="currentColor"/>
  <path d="M7.27344 4.17827V5.63281H8.72798V4.17827H7.27344Z" fill="currentColor"/>
</svg>