<svg xmlns="http://www.w3.org/2000/svg" width="73" height="85" viewBox="0 0 73 85" fill="none">
  <path d="M57.6299 0.470703H15.3682V4.3125H11.5254V8.14844H7.68164V11.9902H15.3652V8.1543H19.209V4.3125H53.79V8.1543H57.6289V11.9902H65.3125V8.14844H61.4736V4.3125H57.6299V0.470703ZM7.68359 15.834H11.5273V11.9922H3.84375L3.84375 15.8281H0L0 19.6699H7.68359L7.68359 15.834ZM72.999 15.8281H69.1553V11.9922H61.4717V15.834H65.3154V19.6699H72.999V15.8281ZM72.999 54.25H72.9971V19.6719H69.1553V54.25H65.3154V58.0918H72.999V54.25ZM11.5273 58.0879H7.68359V54.252H3.8418L3.8418 19.6729H0L0 58.0938H3.84375V61.9297H11.5273V58.0879ZM46.1035 58.1055H42.2617V69.6426H19.209V65.8066H11.5254V69.6484H15.3682L15.3682 73.4844H42.2617V85H46.1035V58.1055ZM49.9473 77.3203H53.7852V65.7939H49.9473V61.9541H46.1055V81.1641H49.9473V77.3203ZM15.3652 61.9629H7.68164V65.8047H15.3652V61.9629ZM57.6289 69.6426H53.7871V73.4844H57.6289V69.6426Z" fill="black"/>
</svg>