<svg xmlns="http://www.w3.org/2000/svg" width="16" height="16" viewBox="0 0 16 16" fill="none">
  <path d="M7.11227 1.77782H8.89009V0C7.11227 0 5.33446 0 3.55664 0V1.77782C4.74185 1.77782 5.92706 1.77782 7.11227 1.77782Z" fill="currentColor"/>
  <path d="M10.6645 3.55125V1.77344H8.88672V3.55125H10.6645Z" fill="currentColor"/>
  <path d="M10.666 10.6719V12.4497H12.4438V10.6719H10.666Z" fill="currentColor"/>
  <path d="M8.88672 8.89062V10.6684H10.6645V8.89062H8.88672Z" fill="currentColor"/>
  <path d="M10.666 7.11032V8.88814H12.4438C12.4438 7.11032 12.4438 5.3325 12.4438 3.55469H10.666C10.666 4.7399 10.666 5.92511 10.666 7.11032Z" fill="currentColor"/>
  <path d="M3.55516 1.77344H1.77734V3.55125H3.55516V1.77344Z" fill="currentColor"/>
  <path d="M12.4434 12.4453V14.2231H14.2212V12.4453H12.4434Z" fill="currentColor"/>
  <path d="M14.2227 14.2266V16.0044H16.0005V14.2266H14.2227Z" fill="currentColor"/>
  <path d="M5.33446 10.6719H3.55664V12.4497C5.33446 12.4497 7.11227 12.4497 8.89009 12.4497V10.6719C7.70488 10.6719 6.51967 10.6719 5.33446 10.6719Z" fill="currentColor"/>
  <path d="M1.77782 5.3325V3.55469H0C0 5.3325 0 7.11032 0 8.88814H1.77782C1.77782 7.70293 1.77782 6.51771 1.77782 5.3325Z" fill="currentColor"/>
  <path d="M1.77734 8.89062V10.6684H3.55516V8.89062H1.77734Z" fill="currentColor"/>
</svg>