<svg xmlns="http://www.w3.org/2000/svg" width="16" height="16" viewBox="0 0 16 16" fill="none">
  <path d="M14.5449 14.5459H13.0918V16H2.90918V14.5459H13.0908V13.0918H14.5449V14.5459ZM2.90918 14.5459H1.45508V13.0918H2.90918V14.5459ZM1.4541 13.0918H0V10.1826H1.4541V13.0918ZM16 13.0908H14.5459V2.90918H16V13.0908ZM8.72656 11.6377H7.27246V10.1826H8.72656V11.6377ZM10.1826 10.1826H8.72754V8.72852H10.1826V10.1826ZM8.72656 8.72754H1.4541V7.27344H8.72656V8.72754ZM10.1826 7.27344H11.6367V8.72754H10.1816V7.27344H8.72754V5.81934H10.1826V7.27344ZM1.4541 5.81836H0V2.90918H1.4541V5.81836ZM8.72656 5.81836H7.27246V4.36426H8.72656V5.81836ZM2.90918 2.91016H1.4541V1.45508H2.90918V2.91016ZM13.0918 1.45508H14.5459V2.91016H13.0908V1.45508H2.90918V0H13.0918V1.45508Z" fill="currentColor"/>
</svg>