<svg xmlns="http://www.w3.org/2000/svg" width="18" height="18" viewBox="0 0 18 18" fill="none">
  <path d="M14.7285 18.002H3.27441V16.3652H14.7285V18.002ZM3.27441 14.7266V16.3623H1.6377V14.7256L3.27441 14.7266ZM17.9971 14.7285H16.3623V16.3623H14.7266V14.7266H16.3613V3.27441H17.9971V14.7285ZM1.63672 14.7295H0V11.457H1.63672V14.7295ZM9.81934 13.0928H8.18262V11.457H9.81934V13.0928ZM13.0889 9.81934H11.4541V11.4541H9.81738V9.81738H11.4521V8.18262H13.0889V9.81934ZM9.81641 9.81934H1.63477V8.18262H9.81641V9.81934ZM9.81934 6.54395H11.4541V8.17969H9.81738V6.54492H8.18262V4.90918H9.81934V6.54395ZM1.63672 6.54688H0V3.27441H1.63672V6.54688ZM3.27148 3.27148H1.63477V1.63477H3.27148V3.27148ZM14.7285 1.63477H16.3613V3.27148H14.7246V1.63672H3.27441V0H14.7285V1.63477Z" fill="currentColor"/>
</svg>