<svg xmlns="http://www.w3.org/2000/svg" width="10" height="10" viewBox="0 0 10 10" fill="none">
  <path d="M8.18359 10.0039H1.81836V9.09473H8.18359V10.0039ZM1.81836 9.0918H0.90918V8.18262H1.81836V9.0918ZM9.09277 9.0918H8.18359V8.18262H9.09277V9.0918ZM9.09277 1.81934H10.002V8.18359H9.09277V1.82129H8.18359V0.912109H9.09277V1.81934ZM0.90918 8.18262H-0.000976562V6.36426H0.90918V8.18262ZM5.45508 7.27344H4.5459V6.36426H5.45508V7.27344ZM6.36523 6.36621H5.45605V5.45703H6.36523V6.36621ZM5.45508 5.4541H0.90918V4.54492H5.45508V5.4541ZM6.36523 4.54688H5.45605V3.6377H6.36523V4.54688ZM1.81836 1.82129H0.90918V3.6377H-0.000976562V1.81934H0.90918V0.912109H1.81836V1.82129ZM5.45508 3.63574H4.5459V2.72656H5.45508V3.63574ZM8.18359 0.90918H1.81836V0H8.18359V0.90918Z" fill="currentColor"/>
</svg>