<svg xmlns="http://www.w3.org/2000/svg" width="45" height="45" viewBox="0 0 45 45" fill="none">
  <path d="M30 45H15V42H30V45ZM15 42H9V39H15V42ZM36 42H30V39H36V42ZM9 39H6V36H9V39ZM39 39H36V36H39V39ZM24.3604 32.4297H26.25V34.3203H24.3604V36.1797H20.6396V34.3203H18.75V32.4297H20.6396V30.54H24.3604V32.4297ZM6 36H3V30H6V36ZM42 36H39V30H42V36ZM3 30H0V15H3V30ZM45 30H42V15H45V30ZM24.3604 13.6797H26.25V23.04H24.3604V28.6797H20.6396V23.04H18.75V13.6797H20.6396V11.8203H24.3604V13.6797ZM6 15H3V9H6V15ZM42 15H39V9H42V15ZM9 9H6V6H9V9ZM39 9H36V6H39V9ZM15 6H9V3H15V6ZM36 6H30V3H36V6ZM30 3H15V0H30V3Z" fill="black"/>
</svg>