<svg xmlns="http://www.w3.org/2000/svg" width="32" height="32" viewBox="0 0 32 32" fill="none">
  <rect x="1" y="1" width="30" height="30" stroke="black" stroke-width="2"/>
  <rect x="25" y="7" width="2" height="2" transform="rotate(90 25 7)" fill="currentColor"/>
  <rect x="23" y="9" width="2" height="2" transform="rotate(90 23 9)" fill="currentColor"/>
  <rect x="21" y="11" width="2" height="2" transform="rotate(90 21 11)" fill="currentColor"/>
  <rect x="19" y="13" width="2" height="2" transform="rotate(90 19 13)" fill="currentColor"/>
  <rect x="25" y="7" width="2" height="2" transform="rotate(-90 25 7)" fill="currentColor"/>
  <rect x="7" y="7" width="2" height="2" fill="currentColor"/>
  <rect x="9" y="9" width="2" height="2" fill="currentColor"/>
  <rect x="11" y="11" width="2" height="2" fill="currentColor"/>
  <rect x="13" y="13" width="2" height="2" fill="currentColor"/>
  <rect x="15" y="15" width="2" height="2" fill="currentColor"/>
  <rect x="17" y="17" width="2" height="2" fill="currentColor"/>
  <rect x="19" y="19" width="2" height="2" fill="currentColor"/>
  <rect x="21" y="21" width="2" height="2" fill="currentColor"/>
  <rect x="23" y="23" width="2" height="2" fill="currentColor"/>
  <rect x="15" y="17" width="2" height="2" transform="rotate(90 15 17)" fill="currentColor"/>
  <rect x="13" y="19" width="2" height="2" transform="rotate(90 13 19)" fill="currentColor"/>
  <rect x="11" y="21" width="2" height="2" transform="rotate(90 11 21)" fill="currentColor"/>
  <rect x="9" y="23" width="2" height="2" transform="rotate(90 9 23)" fill="currentColor"/>
  <rect x="5" y="5" width="2" height="2" fill="currentColor"/>
  <rect x="7" y="25" width="2" height="2" transform="rotate(90 7 25)" fill="currentColor"/>
  <rect width="2" height="2" transform="matrix(0 1 1 0 25 25)" fill="currentColor"/>
</svg>