<svg xmlns="http://www.w3.org/2000/svg" width="20" height="20" viewBox="0 0 20 20" fill="none">
  <path d="M14.5455 20H5.45455V18.1818H14.5455V20ZM5.45455 18.1818H3.63636V16.3636H5.45455V18.1818ZM16.3636 18.1818H14.5455V16.3636H16.3636V18.1818ZM3.63636 16.3636H1.81818V14.5455H3.63636V16.3636ZM18.1818 16.3636H16.3636V14.5455H18.1818V16.3636ZM1.81818 14.5455H0V5.45455H1.81818V14.5455ZM11.8182 7.27273H8.18182V9.09091H11.8182V10.9091H8.18182V12.7273H11.8182V14.5455H6.36364V5.45455H11.8182V7.27273ZM20 14.5455H18.1818V5.45455H20V14.5455ZM13.6364 12.7273H11.8182V10.9091H13.6364V12.7273ZM13.6364 9.09091H11.8182V7.27273H13.6364V9.09091ZM3.63636 5.45455H1.81818V3.63636H3.63636V5.45455ZM18.1818 5.45455H16.3636V3.63636H18.1818V5.45455ZM5.45455 3.63636H3.63636V1.81818H5.45455V3.63636ZM16.3636 3.63636H14.5455V1.81818H16.3636V3.63636ZM14.5455 1.81818H5.45455V0H14.5455V1.81818Z" fill="currentColor"/>
</svg>