<svg xmlns="http://www.w3.org/2000/svg" width="14" height="14" viewBox="0 0 14 14" fill="none">
  <path d="M10.2543 13.5H4.34526V12.3182H10.2543V13.5ZM4.34526 12.3182H3.16344V11.1364H4.34526V12.3182ZM11.4362 12.3182H10.2543V11.1364H11.4362V12.3182ZM3.16344 11.1364H1.98162V9.95455H3.16344V11.1364ZM12.618 11.1364H11.4362V9.95455H12.618V11.1364ZM1.98162 9.95455H0.799805V4.04545H1.98162V9.95455ZM8.48162 5.22727H6.11799V6.40909H8.48162V7.59091H6.11799V8.77273H8.48162V9.95455H4.93617V4.04545H8.48162V5.22727ZM13.7998 9.95455H12.618V4.04545H13.7998V9.95455ZM9.66344 8.77273H8.48162V7.59091H9.66344V8.77273ZM9.66344 6.40909H8.48162V5.22727H9.66344V6.40909ZM3.16344 4.04545H1.98162V2.86364H3.16344V4.04545ZM12.618 4.04545H11.4362V2.86364H12.618V4.04545ZM4.34526 2.86364H3.16344V1.68182H4.34526V2.86364ZM11.4362 2.86364H10.2543V1.68182H11.4362V2.86364ZM10.2543 1.68182H4.34526V0.5H10.2543V1.68182Z" fill="currentColor"/>
</svg>