<svg xmlns="http://www.w3.org/2000/svg" width="16" height="16" viewBox="0 0 16 16" fill="none">
  <rect x="2" y="12" width="1" height="1" fill="currentColor"/>
  <rect x="3" y="12" width="1" height="1" fill="currentColor"/>
  <rect x="4" y="12" width="1" height="1" fill="currentColor"/>
  <rect x="5" y="11" width="1" height="1" fill="currentColor"/>
  <rect x="1" y="11" width="1" height="1" fill="currentColor"/>
  <rect y="10" width="1" height="1" fill="currentColor"/>
  <rect y="9" width="1" height="1" fill="currentColor"/>
  <rect y="8" width="1" height="1" fill="currentColor"/>
  <rect y="7" width="1" height="1" fill="currentColor"/>
  <rect x="1" y="7" width="1" height="1" fill="currentColor"/>
  <rect x="1" y="6" width="1" height="1" fill="currentColor"/>
  <rect x="2" y="6" width="1" height="1" fill="currentColor"/>
  <rect x="3" y="6" width="1" height="1" fill="currentColor"/>
  <rect x="4" y="6" width="1" height="1" fill="currentColor"/>
  <rect x="5" y="7" width="1" height="1" fill="currentColor"/>
  <rect x="6" y="10" width="1" height="1" fill="currentColor"/>
  <rect x="6" y="9" width="1" height="1" fill="currentColor"/>
  <rect x="6" y="8" width="1" height="1" fill="currentColor"/>
  <rect x="2" y="5" width="1" height="1" fill="currentColor"/>
  <rect x="3" y="4" width="1" height="1" fill="currentColor"/>
  <rect x="4" y="3" width="1" height="1" fill="currentColor"/>
  <rect x="5" y="2" width="1" height="1" fill="currentColor"/>
  <rect x="6" y="2" width="1" height="1" fill="currentColor"/>
  <rect x="13" y="12" width="1" height="1" fill="currentColor"/>
  <rect x="12" y="12" width="1" height="1" fill="currentColor"/>
  <rect x="11" y="12" width="1" height="1" fill="currentColor"/>
  <rect x="10" y="11" width="1" height="1" fill="currentColor"/>
  <rect x="14" y="11" width="1" height="1" fill="currentColor"/>
  <rect x="15" y="10" width="1" height="1" fill="currentColor"/>
  <rect x="15" y="9" width="1" height="1" fill="currentColor"/>
  <rect x="15" y="8" width="1" height="1" fill="currentColor"/>
  <rect x="9" y="10" width="1" height="1" fill="currentColor"/>
  <rect x="9" y="9" width="1" height="1" fill="currentColor"/>
  <rect x="9" y="8" width="1" height="1" fill="currentColor"/>
  <rect x="14" y="7" width="1" height="1" fill="currentColor"/>
  <rect x="10" y="7" width="1" height="1" fill="currentColor"/>
  <rect x="11" y="6" width="1" height="1" fill="currentColor"/>
  <rect x="12" y="6" width="1" height="1" fill="currentColor"/>
  <rect x="13" y="6" width="1" height="1" fill="currentColor"/>
  <rect x="10" y="6" width="1" height="1" fill="currentColor"/>
  <rect x="9" y="7" width="1" height="1" fill="currentColor"/>
  <rect x="11" y="5" width="1" height="1" fill="currentColor"/>
  <rect x="12" y="4" width="1" height="1" fill="currentColor"/>
  <rect x="13" y="3" width="1" height="1" fill="currentColor"/>
  <rect x="14" y="2" width="1" height="1" fill="currentColor"/>
  <rect x="15" y="2" width="1" height="1" fill="currentColor"/>
</svg>