<svg xmlns="http://www.w3.org/2000/svg" width="13" height="12" viewBox="0 0 13 12" fill="none">
  <path d="M12.7998 12H11.7089V10.9091H10.618V9.81818H11.7089V2.18182H12.7998V12ZM10.618 9.81818H2.98162V8.72727H10.618V9.81818ZM2.98162 8.72727H1.89071V7.63636H2.98162V8.72727ZM1.89071 7.63636H0.799805V2.18182H1.89071V7.63636ZM8.43617 6.54545H2.98162V5.45455H8.43617V6.54545ZM10.618 4.36364H2.98162V3.27273H10.618V4.36364ZM2.98162 2.18182H1.89071V1.09091H2.98162V2.18182ZM11.7089 2.18182H10.618V1.09091H11.7089V2.18182ZM10.618 1.09091H2.98162V0H10.618V1.09091Z" fill="currentColor"/>
</svg>