<svg xmlns="http://www.w3.org/2000/svg" width="16" height="16" viewBox="0 0 20 20" fill="none">
  <g clip-path="url(#clip0_660_226978)">
    <path d="M3.19996 6.39918V5.3324V4.26562H2.13318V5.3324H1.06641V6.39918H2.13318H3.19996Z" fill="currentColor"/>
    <path d="M9.60156 3.19605H10.6683H11.7351V2.12928H10.6683V1.0625H9.60156V2.12928V3.19605Z" fill="currentColor"/>
    <path d="M12.7988 9.60156V10.6683V11.7351H13.8656V10.6683H14.9324V9.60156H13.8656H12.7988Z" fill="currentColor"/>
    <path d="M9.59681 0H6.39648V1.06678H9.59681V0Z" fill="currentColor"/>
    <path d="M16.0004 6.39844H14.9336V9.59877H16.0004V6.39844Z" fill="currentColor"/>
    <path d="M1.06678 6.39844H0V9.59877H1.06678V6.39844Z" fill="currentColor"/>
    <path d="M9.59681 4.26562H6.39648V5.3324H9.59681V4.26562Z" fill="currentColor"/>
    <path d="M6.39881 5.32812H5.33203V6.3949H6.39881V5.32812Z" fill="currentColor"/>
    <path d="M5.3324 6.39844H4.26562V9.59877H5.3324V6.39844Z" fill="currentColor"/>
    <path d="M10.6683 5.32812H9.60156V6.3949H10.6683V5.32812Z" fill="currentColor"/>
    <path d="M11.7347 6.39844H10.668V9.59877H11.7347V6.39844Z" fill="currentColor"/>
    <path d="M6.39881 9.60156H5.33203V10.6683H6.39881V9.60156Z" fill="currentColor"/>
    <path d="M10.6683 9.60156H9.60156V10.6683H10.6683V9.60156Z" fill="currentColor"/>
    <path d="M9.59681 10.6719H6.39648V11.7387H9.59681V10.6719Z" fill="currentColor"/>
    <path d="M6.39918 12.8047H5.3324H4.26562V13.8715H5.3324V14.9382H6.39918V13.8715V12.8047Z" fill="currentColor"/>
    <path d="M9.59681 14.9375H6.39648V16.0043H9.59681V14.9375Z" fill="currentColor"/>
    <path d="M5.3324 3.19605H6.39918V2.12928V1.0625H5.3324V2.12928H4.26562V3.19605H5.3324Z" fill="currentColor"/>
    <path d="M4.26441 2.12928V1.0625H3.19764H2.13086V2.12928H3.19764H4.26441Z" fill="currentColor"/>
    <path d="M2.13318 2.13281H1.06641V3.19959V4.26637H2.13318V3.19959V2.13281Z" fill="currentColor"/>
    <path d="M12.7988 5.3324V6.39918H13.8656H14.9324V5.3324H13.8656V4.26562H12.7988V5.3324Z" fill="currentColor"/>
    <path d="M13.8679 1.0625H11.7344V2.12928H13.8679V1.0625Z" fill="currentColor"/>
    <path d="M14.934 2.13281H13.8672V4.26637H14.934V2.13281Z" fill="currentColor"/>
    <path d="M10.6683 12.8047H9.60156V13.8715V14.9382H10.6683V13.8715H11.7351V12.8047H10.6683Z" fill="currentColor"/>
    <path d="M13.8679 13.8672H11.7344V14.934H13.8679V13.8672Z" fill="currentColor"/>
    <path d="M14.934 11.7344H13.8672V13.8679H14.934V11.7344Z" fill="currentColor"/>
    <path d="M3.19996 10.6683V9.60156H2.13318H1.06641V10.6683H2.13318V11.7351H3.19996V10.6683Z" fill="currentColor"/>
    <path d="M2.13318 11.7344H1.06641V13.8679H2.13318V11.7344Z" fill="currentColor"/>
    <path d="M4.26441 13.8672H2.13086V14.934H4.26441V13.8672Z" fill="currentColor"/>
  </g>
  <defs>
    <clipPath id="clip0_660_226978">
      <rect width="16" height="16" fill="white"/>
    </clipPath>
  </defs>
</svg>