<svg width="45" height="46" viewBox="0 0 45 46" fill="none" xmlns="http://www.w3.org/2000/svg">
<path d="M30 45.5H15V42.5H30V45.5ZM15 42.5H9V39.5H15V42.5ZM36 42.5H30V39.5H36V42.5ZM9 39.5H6V36.5H9V39.5ZM39 39.5H36V36.5H39V39.5ZM24.3604 32.9297H26.25V34.8203H24.3604V36.6797H20.6396V34.8203H18.75V32.9297H20.6396V31.04H24.3604V32.9297ZM6 36.5H3V30.5H6V36.5ZM42 36.5H39V30.5H42V36.5ZM3 30.5H0V15.5H3V30.5ZM45 30.5H42V15.5H45V30.5ZM24.3604 14.1797H26.25V23.54H24.3604V29.1797H20.6396V23.54H18.75V14.1797H20.6396V12.3203H24.3604V14.1797ZM6 15.5H3V9.5H6V15.5ZM42 15.5H39V9.5H42V15.5ZM9 9.5H6V6.5H9V9.5ZM39 9.5H36V6.5H39V9.5ZM15 6.5H9V3.5H15V6.5ZM36 6.5H30V3.5H36V6.5ZM30 3.5H15V0.5H30V3.5Z" fill="black"/>
</svg>
