<svg width="177" height="111" viewBox="0 0 177 111" fill="none" xmlns="http://www.w3.org/2000/svg">
<g opacity="0.2">
<rect width="157" height="91" transform="translate(0.5)" fill="#DBDBDB"/>
<rect x="31.5" y="17.5" width="4" height="4" fill="#6C6C6C"/>
<rect x="35.5" y="17.5" width="4" height="4" fill="#6C6C6C"/>
<rect x="39.5" y="17.5" width="4" height="4" fill="#6C6C6C"/>
<rect x="27.5" y="21.5" width="4" height="4" fill="#6C6C6C"/>
<rect x="23.5" y="25.5" width="4" height="4" fill="#6C6C6C"/>
<rect x="23.5" y="29.5" width="4" height="4" fill="#6C6C6C"/>
<rect x="23.5" y="33.5" width="4" height="4" fill="#6C6C6C"/>
<rect x="27.5" y="37.5" width="4" height="4" fill="#6C6C6C"/>
<rect x="31.5" y="41.5" width="4" height="4" fill="#6C6C6C"/>
<rect x="35.5" y="41.5" width="4" height="4" fill="#6C6C6C"/>
<rect x="39.5" y="41.5" width="4" height="4" fill="#6C6C6C"/>
<rect x="43.5" y="37.5" width="4" height="4" fill="#6C6C6C"/>
<rect x="47.5" y="33.5" width="4" height="4" fill="#6C6C6C"/>
<rect x="47.5" y="29.5" width="4" height="4" fill="#6C6C6C"/>
<rect x="47.5" y="25.5" width="4" height="4" fill="#6C6C6C"/>
<rect x="43.5" y="21.5" width="4" height="4" fill="#6C6C6C"/>
<rect x="23.5" y="49.5" width="4" height="4" fill="#6C6C6C"/>
<rect x="27.5" y="49.5" width="4" height="4" fill="#6C6C6C"/>
<rect x="31.5" y="49.5" width="4" height="4" fill="#6C6C6C"/>
<rect x="35.5" y="49.5" width="4" height="4" fill="#6C6C6C"/>
<rect x="39.5" y="49.5" width="4" height="4" fill="#6C6C6C"/>
<rect x="43.5" y="49.5" width="4" height="4" fill="#6C6C6C"/>
<rect x="47.5" y="49.5" width="4" height="4" fill="#6C6C6C"/>
<rect x="19.5" y="53.5" width="4" height="4" fill="#6C6C6C"/>
<rect x="15.5" y="57.5" width="4" height="4" fill="#6C6C6C"/>
<rect x="15.5" y="61.5" width="4" height="4" fill="#6C6C6C"/>
<rect x="15.5" y="65.5" width="4" height="4" fill="#6C6C6C"/>
<rect x="19.5" y="69.5" width="4" height="4" fill="#6C6C6C"/>
<rect x="23.5" y="69.5" width="4" height="4" fill="#6C6C6C"/>
<rect x="27.5" y="69.5" width="4" height="4" fill="#6C6C6C"/>
<rect x="31.5" y="69.5" width="4" height="4" fill="#6C6C6C"/>
<rect x="35.5" y="69.5" width="4" height="4" fill="#6C6C6C"/>
<rect x="39.5" y="69.5" width="4" height="4" fill="#6C6C6C"/>
<rect x="43.5" y="69.5" width="4" height="4" fill="#6C6C6C"/>
<rect x="47.5" y="69.5" width="4" height="4" fill="#6C6C6C"/>
<rect x="51.5" y="69.5" width="4" height="4" fill="#6C6C6C"/>
<rect x="51.5" y="53.5" width="4" height="4" fill="#6C6C6C"/>
<rect x="55.5" y="57.5" width="4" height="4" fill="#6C6C6C"/>
<rect x="55.5" y="61.5" width="4" height="4" fill="#6C6C6C"/>
<rect x="55.5" y="65.5" width="4" height="4" fill="#6C6C6C"/>
<rect x="39.5" y="21.5" width="4" height="4" fill="#6C6C6C"/>
<rect x="31.5" y="25.5" width="4" height="4" fill="#6C6C6C"/>
<rect x="35.5" y="25.5" width="4" height="4" fill="#6C6C6C"/>
<rect x="31.5" y="29.5" width="4" height="4" fill="#6C6C6C"/>
<rect x="31.5" y="33.5" width="4" height="4" fill="#6C6C6C"/>
<rect x="27.5" y="33.5" width="4" height="4" fill="#6C6C6C"/>
<rect x="31.5" y="37.5" width="4" height="4" fill="#6C6C6C"/>
<rect x="35.5" y="37.5" width="4" height="4" fill="#6C6C6C"/>
<rect x="39.5" y="37.5" width="4" height="4" fill="#6C6C6C"/>
<rect x="35.5" y="29.5" width="4" height="4" fill="#6C6C6C"/>
<rect x="35.5" y="33.5" width="4" height="4" fill="#6C6C6C"/>
<rect x="39.5" y="25.5" width="4" height="4" fill="#6C6C6C"/>
<rect x="39.5" y="29.5" width="4" height="4" fill="#6C6C6C"/>
<rect x="39.5" y="33.5" width="4" height="4" fill="#6C6C6C"/>
<rect x="43.5" y="25.5" width="4" height="4" fill="#6C6C6C"/>
<rect x="43.5" y="29.5" width="4" height="4" fill="#6C6C6C"/>
<rect x="43.5" y="33.5" width="4" height="4" fill="#6C6C6C"/>
<rect x="23.5" y="57.5" width="4" height="4" fill="#6C6C6C"/>
<rect x="19.5" y="61.5" width="4" height="4" fill="#6C6C6C"/>
<rect x="23.5" y="61.5" width="4" height="4" fill="#6C6C6C"/>
<rect x="19.5" y="65.5" width="4" height="4" fill="#6C6C6C"/>
<rect x="23.5" y="65.5" width="4" height="4" fill="#6C6C6C"/>
<rect x="27.5" y="65.5" width="4" height="4" fill="#6C6C6C"/>
<rect x="31.5" y="65.5" width="4" height="4" fill="#6C6C6C"/>
<rect x="35.5" y="65.5" width="4" height="4" fill="#6C6C6C"/>
<rect x="39.5" y="65.5" width="4" height="4" fill="#6C6C6C"/>
<rect x="43.5" y="65.5" width="4" height="4" fill="#6C6C6C"/>
<rect x="47.5" y="65.5" width="4" height="4" fill="#6C6C6C"/>
<rect x="51.5" y="65.5" width="4" height="4" fill="#6C6C6C"/>
<rect x="39.5" y="53.5" width="4" height="4" fill="#6C6C6C"/>
<rect x="43.5" y="53.5" width="4" height="4" fill="#6C6C6C"/>
<rect x="47.5" y="53.5" width="4" height="4" fill="#6C6C6C"/>
<rect x="27.5" y="57.5" width="4" height="4" fill="#6C6C6C"/>
<rect x="31.5" y="57.5" width="4" height="4" fill="#6C6C6C"/>
<rect x="35.5" y="57.5" width="4" height="4" fill="#6C6C6C"/>
<rect x="39.5" y="57.5" width="4" height="4" fill="#6C6C6C"/>
<rect x="43.5" y="57.5" width="4" height="4" fill="#6C6C6C"/>
<rect x="47.5" y="57.5" width="4" height="4" fill="#6C6C6C"/>
<rect x="51.5" y="57.5" width="4" height="4" fill="#6C6C6C"/>
<rect x="27.5" y="61.5" width="4" height="4" fill="#6C6C6C"/>
<rect x="31.5" y="61.5" width="4" height="4" fill="#6C6C6C"/>
<rect x="35.5" y="61.5" width="4" height="4" fill="#6C6C6C"/>
<rect x="39.5" y="61.5" width="4" height="4" fill="#6C6C6C"/>
<rect x="43.5" y="61.5" width="4" height="4" fill="#6C6C6C"/>
<rect x="47.5" y="61.5" width="4" height="4" fill="#6C6C6C"/>
<rect x="51.5" y="61.5" width="4" height="4" fill="#6C6C6C"/>
<rect x="35.5" y="53.5" width="4" height="4" fill="#6C6C6C"/>
<path d="M70.5 18.25V17.125H78.375V18.25H70.5ZM79.5 18.25V17.125H87.375V18.25H79.5ZM88.5 18.25V17.125H96.375V18.25H88.5ZM97.5 18.25V17.125H105.375V18.25H97.5ZM106.5 18.25V17.125H114.375V18.25H106.5ZM115.5 18.25V17.125H123.375V18.25H115.5ZM124.5 18.25V17.125H132.375V18.25H124.5ZM133.5 18.25V17.125H141.375V18.25H133.5ZM70.5 45.25V44.125H78.375V45.25H70.5ZM79.5 45.25V44.125H87.375V45.25H79.5ZM88.5 45.25V44.125H96.375V45.25H88.5ZM97.5 45.25V44.125H105.375V45.25H97.5ZM106.5 45.25V44.125H114.375V45.25H106.5ZM115.5 45.25V44.125H123.375V45.25H115.5ZM124.5 45.25V44.125H132.375V45.25H124.5ZM70.5 72.25V71.125H78.375V72.25H70.5ZM79.5 72.25V71.125H87.375V72.25H79.5ZM88.5 72.25V71.125H96.375V72.25H88.5Z" fill="#6C6C6C"/>
</g>
</svg>
