<svg xmlns="http://www.w3.org/2000/svg" width="41" height="24" viewBox="0 0 41 24" fill="none">
  <rect width="1.42857" height="1.42857" transform="matrix(0 1 1 0 39.3711 0.328125)" fill="white"/>
  <rect width="1.42857" height="1.42857" transform="matrix(0 1 1 0 36.8725 0.328125)" fill="white"/>
  <rect width="1.42857" height="1.42857" transform="matrix(0 1 1 0 34.3738 0.328125)" fill="white" fill-opacity="0.690076"/>
  <rect width="1.42857" height="1.42857" transform="matrix(0 1 1 0 31.8751 0.328125)" fill="white" fill-opacity="0.121281"/>
  <rect width="1.42857" height="1.42857" transform="matrix(0 1 1 0 29.3764 0.328125)" fill="white"/>
  <rect width="1.42857" height="1.42857" transform="matrix(0 1 1 0 26.8777 0.328125)" fill="white"/>
  <rect width="1.42857" height="1.42857" transform="matrix(0 1 1 0 24.379 0.328125)" fill="white" fill-opacity="0.274627"/>
  <rect width="1.42857" height="1.42857" transform="matrix(0 1 1 0 21.8802 0.328125)" fill="white"/>
  <rect width="1.42857" height="1.42857" transform="matrix(0 1 1 0 19.3816 0.328125)" fill="white"/>
  <rect width="1.42857" height="1.42857" transform="matrix(0 1 1 0 16.8829 0.328125)" fill="white"/>
  <rect width="1.42857" height="1.42857" transform="matrix(0 1 1 0 14.3842 0.328125)" fill="white" fill-opacity="0.229265"/>
  <rect width="1.42857" height="1.42857" transform="matrix(0 1 1 0 11.8854 0.328125)" fill="white" fill-opacity="0.331951"/>
  <rect width="1.42857" height="1.42857" transform="matrix(0 1 1 0 9.38672 0.328125)" fill="white" fill-opacity="0.023522"/>
  <rect width="1.42857" height="1.42857" transform="matrix(0 1 1 0 6.888 0.328125)" fill="white"/>
  <rect width="1.42857" height="1.42857" transform="matrix(0 1 1 0 4.38934 0.328125)" fill="white"/>
  <rect width="1.42857" height="1.42857" transform="matrix(0 1 1 0 1.89062 0.328125)" fill="white" fill-opacity="0.0637701"/>
  <rect width="1.42857" height="1.42857" transform="matrix(0 1 1 0 39.3712 2.86816)" fill="white" fill-opacity="0.385699"/>
  <rect width="1.42857" height="1.42857" transform="matrix(0 1 1 0 36.8725 2.86816)" fill="white"/>
  <rect width="1.42857" height="1.42857" transform="matrix(0 1 1 0 34.3738 2.86816)" fill="white"/>
  <rect width="1.42857" height="1.42857" transform="matrix(0 1 1 0 31.8751 2.86816)" fill="white" fill-opacity="0.0593071"/>
  <rect width="1.42857" height="1.42857" transform="matrix(0 1 1 0 29.3764 2.86816)" fill="white" fill-opacity="0.701743"/>
  <rect width="1.42857" height="1.42857" transform="matrix(0 1 1 0 26.8777 2.86816)" fill="white" fill-opacity="0.6569"/>
  <rect width="1.42857" height="1.42857" transform="matrix(0 1 1 0 24.379 2.86816)" fill="white"/>
  <rect width="1.42857" height="1.42857" transform="matrix(0 1 1 0 21.8802 2.86816)" fill="white" fill-opacity="0.130286"/>
  <rect width="1.42857" height="1.42857" transform="matrix(0 1 1 0 19.3816 2.86816)" fill="white"/>
  <rect width="1.42857" height="1.42857" transform="matrix(0 1 1 0 16.8829 2.86816)" fill="white" fill-opacity="0.574657"/>
  <rect width="1.42857" height="1.42857" transform="matrix(0 1 1 0 14.3842 2.86816)" fill="white"/>
  <rect width="1.42857" height="1.42857" transform="matrix(0 1 1 0 11.8854 2.86816)" fill="white"/>
  <rect width="1.42857" height="1.42857" transform="matrix(0 1 1 0 9.38672 2.86816)" fill="white" fill-opacity="0.0141518"/>
  <rect width="1.42857" height="1.42857" transform="matrix(0 1 1 0 6.888 2.86816)" fill="white"/>
  <rect width="1.42857" height="1.42857" transform="matrix(0 1 1 0 4.38934 2.86816)" fill="white"/>
  <rect width="1.42857" height="1.42857" transform="matrix(0 1 1 0 1.89062 2.86816)" fill="white"/>
  <rect width="1.42857" height="1.42857" transform="matrix(0 1 1 0 39.3712 5.40723)" fill="white" fill-opacity="0.404535"/>
  <rect width="1.42857" height="1.42857" transform="matrix(0 1 1 0 36.8725 5.40723)" fill="white"/>
  <rect width="1.42857" height="1.42857" transform="matrix(0 1 1 0 34.3738 5.40723)" fill="white"/>
  <rect width="1.42857" height="1.42857" transform="matrix(0 1 1 0 31.8751 5.40723)" fill="white" fill-opacity="0.747685"/>
  <rect width="1.42857" height="1.42857" transform="matrix(0 1 1 0 29.3764 5.40723)" fill="white" fill-opacity="0.666052"/>
  <rect width="1.42857" height="1.42857" transform="matrix(0 1 1 0 26.8777 5.40723)" fill="white"/>
  <rect width="1.42857" height="1.42857" transform="matrix(0 1 1 0 24.379 5.40723)" fill="white"/>
  <rect width="1.42857" height="1.42857" transform="matrix(0 1 1 0 21.8802 5.40723)" fill="white" fill-opacity="0.44564"/>
  <rect width="1.42857" height="1.42857" transform="matrix(0 1 1 0 19.3816 5.40723)" fill="white"/>
  <rect width="1.42857" height="1.42857" transform="matrix(0 1 1 0 16.8829 5.40723)" fill="white" fill-opacity="0.239456"/>
  <rect width="1.42857" height="1.42857" transform="matrix(0 1 1 0 14.3842 5.40723)" fill="white" fill-opacity="0.247693"/>
  <rect width="1.42857" height="1.42857" transform="matrix(0 1 1 0 11.8854 5.40723)" fill="white"/>
  <rect width="1.42857" height="1.42857" transform="matrix(0 1 1 0 9.38672 5.40723)" fill="white"/>
  <rect width="1.42857" height="1.42857" transform="matrix(0 1 1 0 6.888 5.40723)" fill="white"/>
  <rect width="1.42857" height="1.42857" transform="matrix(0 1 1 0 4.38934 5.40723)" fill="white" fill-opacity="0.480698"/>
  <rect width="1.42857" height="1.42857" transform="matrix(0 1 1 0 1.89062 5.40723)" fill="white" fill-opacity="0.375569"/>
  <rect width="1.42857" height="1.42857" transform="matrix(0 1 1 0 39.3711 7.94727)" fill="white" fill-opacity="0.0279873"/>
  <rect width="1.42857" height="1.42857" transform="matrix(0 1 1 0 36.8725 7.94727)" fill="white" fill-opacity="0.79057"/>
  <rect width="1.42857" height="1.42857" transform="matrix(0 1 1 0 34.3738 7.94727)" fill="white" fill-opacity="0.418555"/>
  <rect width="1.42857" height="1.42857" transform="matrix(0 1 1 0 31.8751 7.94727)" fill="white"/>
  <rect width="1.42857" height="1.42857" transform="matrix(0 1 1 0 29.3764 7.94727)" fill="white"/>
  <rect width="1.42857" height="1.42857" transform="matrix(0 1 1 0 26.8777 7.94727)" fill="white" fill-opacity="0.400382"/>
  <rect width="1.42857" height="1.42857" transform="matrix(0 1 1 0 24.379 7.94727)" fill="white"/>
  <rect width="1.42857" height="1.42857" transform="matrix(0 1 1 0 21.8802 7.94727)" fill="white" fill-opacity="0.481964"/>
  <rect width="1.42857" height="1.42857" transform="matrix(0 1 1 0 19.3816 7.94727)" fill="white"/>
  <rect width="1.42857" height="1.42857" transform="matrix(0 1 1 0 16.8829 7.94727)" fill="white"/>
  <rect width="1.42857" height="1.42857" transform="matrix(0 1 1 0 14.3842 7.94727)" fill="white" fill-opacity="0.415616"/>
  <rect width="1.42857" height="1.42857" transform="matrix(0 1 1 0 11.8854 7.94727)" fill="white" fill-opacity="0.126605"/>
  <rect width="1.42857" height="1.42857" transform="matrix(0 1 1 0 9.38672 7.94727)" fill="white" fill-opacity="0.183368"/>
  <rect width="1.42857" height="1.42857" transform="matrix(0 1 1 0 6.888 7.94727)" fill="white" fill-opacity="0.507916"/>
  <rect width="1.42857" height="1.42857" transform="matrix(0 1 1 0 4.38934 7.94727)" fill="white"/>
  <rect width="1.42857" height="1.42857" transform="matrix(0 1 1 0 1.89062 7.94727)" fill="white" fill-opacity="0.299796"/>
  <rect width="1.42857" height="1.42857" transform="matrix(0 1 1 0 39.3712 10.4873)" fill="white" fill-opacity="0.102001"/>
  <rect width="1.42857" height="1.42857" transform="matrix(0 1 1 0 36.8725 10.4873)" fill="white" fill-opacity="0.563375"/>
  <rect width="1.42857" height="1.42857" transform="matrix(0 1 1 0 34.3738 10.4873)" fill="white"/>
  <rect width="1.42857" height="1.42857" transform="matrix(0 1 1 0 31.8751 10.4873)" fill="white" fill-opacity="0.148272"/>
  <rect width="1.42857" height="1.42857" transform="matrix(0 1 1 0 29.3764 10.4873)" fill="white" fill-opacity="0.434594"/>
  <rect width="1.42857" height="1.42857" transform="matrix(0 1 1 0 26.8777 10.4873)" fill="white"/>
  <rect width="1.42857" height="1.42857" transform="matrix(0 1 1 0 24.379 10.4873)" fill="white" fill-opacity="0.361438"/>
  <rect width="1.42857" height="1.42857" transform="matrix(0 1 1 0 21.8802 10.4873)" fill="white"/>
  <rect width="1.42857" height="1.42857" transform="matrix(0 1 1 0 19.3816 10.4873)" fill="white"/>
  <rect width="1.42857" height="1.42857" transform="matrix(0 1 1 0 16.8829 10.4873)" fill="white"/>
  <rect width="1.42857" height="1.42857" transform="matrix(0 1 1 0 14.3842 10.4873)" fill="white"/>
  <rect width="1.42857" height="1.42857" transform="matrix(0 1 1 0 11.8854 10.4873)" fill="white"/>
  <rect width="1.42857" height="1.42857" transform="matrix(0 1 1 0 9.38672 10.4873)" fill="white"/>
  <rect width="1.42857" height="1.42857" transform="matrix(0 1 1 0 6.888 10.4873)" fill="white" fill-opacity="0.342936"/>
  <rect width="1.42857" height="1.42857" transform="matrix(0 1 1 0 4.38934 10.4873)" fill="white" fill-opacity="0.677066"/>
  <rect width="1.42857" height="1.42857" transform="matrix(0 1 1 0 1.89062 10.4873)" fill="white"/>
  <rect width="1.42857" height="1.42857" transform="matrix(0 1 1 0 39.3712 13.0264)" fill="white" fill-opacity="0.071074"/>
  <rect width="1.42857" height="1.42857" transform="matrix(0 1 1 0 36.8725 13.0264)" fill="white"/>
  <rect width="1.42857" height="1.42857" transform="matrix(0 1 1 0 34.3738 13.0264)" fill="white"/>
  <rect width="1.42857" height="1.42857" transform="matrix(0 1 1 0 31.8751 13.0264)" fill="white" fill-opacity="0.683916"/>
  <rect width="1.42857" height="1.42857" transform="matrix(0 1 1 0 29.3764 13.0264)" fill="white" fill-opacity="0.0323705"/>
  <rect width="1.42857" height="1.42857" transform="matrix(0 1 1 0 26.8777 13.0264)" fill="white" fill-opacity="0.797002"/>
  <rect width="1.42857" height="1.42857" transform="matrix(0 1 1 0 24.379 13.0264)" fill="white" fill-opacity="0.37758"/>
  <rect width="1.42857" height="1.42857" transform="matrix(0 1 1 0 21.8802 13.0264)" fill="white"/>
  <rect width="1.42857" height="1.42857" transform="matrix(0 1 1 0 19.3816 13.0264)" fill="white" fill-opacity="0.586741"/>
  <rect width="1.42857" height="1.42857" transform="matrix(0 1 1 0 16.8829 13.0264)" fill="white" fill-opacity="0.54956"/>
  <rect width="1.42857" height="1.42857" transform="matrix(0 1 1 0 14.3842 13.0264)" fill="white"/>
  <rect width="1.42857" height="1.42857" transform="matrix(0 1 1 0 11.8854 13.0264)" fill="white" fill-opacity="0.269797"/>
  <rect width="1.42857" height="1.42857" transform="matrix(0 1 1 0 9.38672 13.0264)" fill="white"/>
  <rect width="1.42857" height="1.42857" transform="matrix(0 1 1 0 6.888 13.0264)" fill="white"/>
  <rect width="1.42857" height="1.42857" transform="matrix(0 1 1 0 4.38934 13.0264)" fill="white" fill-opacity="0.679494"/>
  <rect width="1.42857" height="1.42857" transform="matrix(0 1 1 0 1.89062 13.0264)" fill="white" fill-opacity="0.546626"/>
  <rect width="1.42857" height="1.42857" transform="matrix(0 1 1 0 39.3711 15.5664)" fill="white"/>
  <rect width="1.42857" height="1.42857" transform="matrix(0 1 1 0 36.8725 15.5664)" fill="white" fill-opacity="0.448754"/>
  <rect width="1.42857" height="1.42857" transform="matrix(0 1 1 0 34.3738 15.5664)" fill="white"/>
  <rect width="1.42857" height="1.42857" transform="matrix(0 1 1 0 31.8751 15.5664)" fill="white" fill-opacity="0.119528"/>
  <rect width="1.42857" height="1.42857" transform="matrix(0 1 1 0 29.3764 15.5664)" fill="white" fill-opacity="0.144342"/>
  <rect width="1.42857" height="1.42857" transform="matrix(0 1 1 0 26.8777 15.5664)" fill="white" fill-opacity="0.674305"/>
  <rect width="1.42857" height="1.42857" transform="matrix(0 1 1 0 24.379 15.5664)" fill="white" fill-opacity="0.250906"/>
  <rect width="1.42857" height="1.42857" transform="matrix(0 1 1 0 21.8802 15.5664)" fill="white" fill-opacity="0.309719"/>
  <rect width="1.42857" height="1.42857" transform="matrix(0 1 1 0 19.3816 15.5664)" fill="white"/>
  <rect width="1.42857" height="1.42857" transform="matrix(0 1 1 0 16.8829 15.5664)" fill="white"/>
  <rect width="1.42857" height="1.42857" transform="matrix(0 1 1 0 14.3842 15.5664)" fill="white" fill-opacity="0.583993"/>
  <rect width="1.42857" height="1.42857" transform="matrix(0 1 1 0 11.8854 15.5664)" fill="white" fill-opacity="0.594364"/>
  <rect width="1.42857" height="1.42857" transform="matrix(0 1 1 0 9.38672 15.5664)" fill="white"/>
  <rect width="1.42857" height="1.42857" transform="matrix(0 1 1 0 6.888 15.5664)" fill="white"/>
  <rect width="1.42857" height="1.42857" transform="matrix(0 1 1 0 4.38934 15.5664)" fill="white"/>
  <rect width="1.42857" height="1.42857" transform="matrix(0 1 1 0 1.89062 15.5664)" fill="white" fill-opacity="0.399081"/>
  <rect width="1.42857" height="1.42857" transform="matrix(0 1 1 0 39.3712 18.1055)" fill="white" fill-opacity="0.451755"/>
  <rect width="1.42857" height="1.42857" transform="matrix(0 1 1 0 36.8725 18.1055)" fill="white"/>
  <rect width="1.42857" height="1.42857" transform="matrix(0 1 1 0 34.3738 18.1055)" fill="white"/>
  <rect width="1.42857" height="1.42857" transform="matrix(0 1 1 0 31.8751 18.1055)" fill="white"/>
  <rect width="1.42857" height="1.42857" transform="matrix(0 1 1 0 29.3764 18.1055)" fill="white" fill-opacity="0.274632"/>
  <rect width="1.42857" height="1.42857" transform="matrix(0 1 1 0 26.8777 18.1055)" fill="white" fill-opacity="0.447231"/>
  <rect width="1.42857" height="1.42857" transform="matrix(0 1 1 0 24.379 18.1055)" fill="white"/>
  <rect width="1.42857" height="1.42857" transform="matrix(0 1 1 0 21.8802 18.1055)" fill="white"/>
  <rect width="1.42857" height="1.42857" transform="matrix(0 1 1 0 19.3816 18.1055)" fill="white"/>
  <rect width="1.42857" height="1.42857" transform="matrix(0 1 1 0 16.8829 18.1055)" fill="white" fill-opacity="0.306566"/>
  <rect width="1.42857" height="1.42857" transform="matrix(0 1 1 0 14.3842 18.1055)" fill="white" fill-opacity="0.106089"/>
  <rect width="1.42857" height="1.42857" transform="matrix(0 1 1 0 11.8854 18.1055)" fill="white" fill-opacity="0.634433"/>
  <rect width="1.42857" height="1.42857" transform="matrix(0 1 1 0 9.38672 18.1055)" fill="white"/>
  <rect width="1.42857" height="1.42857" transform="matrix(0 1 1 0 6.888 18.1055)" fill="white" fill-opacity="0.549154"/>
  <rect width="1.42857" height="1.42857" transform="matrix(0 1 1 0 4.38934 18.1055)" fill="white" fill-opacity="0.798279"/>
  <rect width="1.42857" height="1.42857" transform="matrix(0 1 1 0 1.89062 18.1055)" fill="white" fill-opacity="0.237286"/>
  <rect width="1.42857" height="1.42857" transform="matrix(0 1 1 0 39.3712 20.6455)" fill="white" fill-opacity="0.522169"/>
  <rect width="1.42857" height="1.42857" transform="matrix(0 1 1 0 36.8725 20.6455)" fill="white"/>
  <rect width="1.42857" height="1.42857" transform="matrix(0 1 1 0 34.3738 20.6455)" fill="white"/>
  <rect width="1.42857" height="1.42857" transform="matrix(0 1 1 0 31.8751 20.6455)" fill="white" fill-opacity="0.509369"/>
  <rect width="1.42857" height="1.42857" transform="matrix(0 1 1 0 29.3764 20.6455)" fill="white" fill-opacity="0.334633"/>
  <rect width="1.42857" height="1.42857" transform="matrix(0 1 1 0 26.8777 20.6455)" fill="white" fill-opacity="0.237319"/>
  <rect width="1.42857" height="1.42857" transform="matrix(0 1 1 0 24.379 20.6455)" fill="white" fill-opacity="0.429278"/>
  <rect width="1.42857" height="1.42857" transform="matrix(0 1 1 0 21.8802 20.6455)" fill="white"/>
  <rect width="1.42857" height="1.42857" transform="matrix(0 1 1 0 19.3816 20.6455)" fill="white" fill-opacity="0.135041"/>
  <rect width="1.42857" height="1.42857" transform="matrix(0 1 1 0 16.8829 20.6455)" fill="white" fill-opacity="0.319571"/>
  <rect width="1.42857" height="1.42857" transform="matrix(0 1 1 0 14.3842 20.6455)" fill="white"/>
  <rect width="1.42857" height="1.42857" transform="matrix(0 1 1 0 11.8854 20.6455)" fill="white" fill-opacity="0.221377"/>
  <rect width="1.42857" height="1.42857" transform="matrix(0 1 1 0 9.38672 20.6455)" fill="white"/>
  <rect width="1.42857" height="1.42857" transform="matrix(0 1 1 0 6.888 20.6455)" fill="white" fill-opacity="0.612043"/>
  <rect width="1.42857" height="1.42857" transform="matrix(0 1 1 0 4.38934 20.6455)" fill="white"/>
  <rect width="1.42857" height="1.42857" transform="matrix(0 1 1 0 1.89062 20.6455)" fill="white"/>
</svg>