<svg xmlns="http://www.w3.org/2000/svg" width="24" height="17" viewBox="0 0 24 17" fill="none">
  <path d="M1.5 7H2.75L5.5 5.75L8.25 4L16.5 2.75H17.75L19.25 4L20.75 5.5V9.75H18V12.5H1.5V7Z" fill="white"/>
  <path d="M15.125 1.375V2.75H11.75H8.25V3.5V4.125H6.875H5.5V4.875V5.625H4.125H2.75V6.25V7H2H1.375V8.375V9.75H0.625H0L0 13.125L0 16.625H0.625H1.375V16V15.25H2H2.75V14.625V13.875H4.125H5.5V13.125V12.5H10.375H15.125V13.875V15.25H15.875H16.625V14.625V13.875H17.25H18V13.125V12.5H18.625H19.375V11.875C19.3688 11.5488 19.375 11.125 19.375 11.125C19.375 11.125 19.5751 11.1375 20 11.125H20.75V10.625C20.7562 10.3803 20.75 10.1255 20.75 10V9.75H21.375H22.125V9V8.25C22.125 8.25 22.5012 8.24197 22.75 8.25C23.0468 8.25957 23.5 8.25 23.5 8.25V7.625V6.875H22.875H22.125V6.25C22.1188 5.90495 22.125 5.5 22.125 5.5H21.625H21H20.625V4.875V4.125H20H19.25V3.5V2.75H18.625H17.875V2.125V1.375H17.25H16.5V0.75V0H15.875H15.125V1.375ZM17.875 3.5V4.125H18.625H19.25V4.875V5.5H20H20.625V6.25V7.5V8.25H20H19.375V9V9.75H18.625H18V10.375V11.125H17.25H16.625V10.375V9.75H11H5.5V10.375V11.125H4.125H2.75V11.75V12.5H2H1.375V11.125V9.75H2.125H2.75C2.75 9.70608 2.75625 9.04627 2.75 8.375C2.75 7.70373 2.75 7 2.75 7C2.75 7 3.15026 7.01255 4.125 7H5.5V6.25V5.625H6.875H8.25V4.875V4.125H12.5H16.5V3.5V2.75H17.25H17.875V3.5Z" fill="black"/>
</svg>